%TF.GenerationSoftware,KiCad,Pcbnew,10.0.3*%
%TF.CreationDate,2026-06-22T07:12:48-07:00*%
%TF.ProjectId,Tenseract_JBox,54656e73-6572-4616-9374-5f4a426f782e,1.0*%
%TF.SameCoordinates,Original*%
%TF.FileFunction,Legend,Bot*%
%TF.FilePolarity,Positive*%
%FSLAX46Y46*%
G04 Gerber Fmt 4.6, Leading zero omitted, Abs format (unit mm)*
G04 Created by KiCad (PCBNEW 10.0.3) date 2026-06-22 07:12:48*
%MOMM*%
%LPD*%
G01*
G04 APERTURE LIST*
%ADD10C,0.150000*%
G04 APERTURE END LIST*
D10*
X92051066Y-47844875D02*
X91479638Y-47844875D01*
X91765352Y-48844875D02*
X91765352Y-47844875D01*
X90765352Y-48797256D02*
X90860590Y-48844875D01*
X90860590Y-48844875D02*
X91051066Y-48844875D01*
X91051066Y-48844875D02*
X91146304Y-48797256D01*
X91146304Y-48797256D02*
X91193923Y-48702017D01*
X91193923Y-48702017D02*
X91193923Y-48321065D01*
X91193923Y-48321065D02*
X91146304Y-48225827D01*
X91146304Y-48225827D02*
X91051066Y-48178208D01*
X91051066Y-48178208D02*
X90860590Y-48178208D01*
X90860590Y-48178208D02*
X90765352Y-48225827D01*
X90765352Y-48225827D02*
X90717733Y-48321065D01*
X90717733Y-48321065D02*
X90717733Y-48416303D01*
X90717733Y-48416303D02*
X91193923Y-48511541D01*
X90289161Y-48178208D02*
X90289161Y-48844875D01*
X90289161Y-48273446D02*
X90241542Y-48225827D01*
X90241542Y-48225827D02*
X90146304Y-48178208D01*
X90146304Y-48178208D02*
X90003447Y-48178208D01*
X90003447Y-48178208D02*
X89908209Y-48225827D01*
X89908209Y-48225827D02*
X89860590Y-48321065D01*
X89860590Y-48321065D02*
X89860590Y-48844875D01*
X89432018Y-48797256D02*
X89336780Y-48844875D01*
X89336780Y-48844875D02*
X89146304Y-48844875D01*
X89146304Y-48844875D02*
X89051066Y-48797256D01*
X89051066Y-48797256D02*
X89003447Y-48702017D01*
X89003447Y-48702017D02*
X89003447Y-48654398D01*
X89003447Y-48654398D02*
X89051066Y-48559160D01*
X89051066Y-48559160D02*
X89146304Y-48511541D01*
X89146304Y-48511541D02*
X89289161Y-48511541D01*
X89289161Y-48511541D02*
X89384399Y-48463922D01*
X89384399Y-48463922D02*
X89432018Y-48368684D01*
X89432018Y-48368684D02*
X89432018Y-48321065D01*
X89432018Y-48321065D02*
X89384399Y-48225827D01*
X89384399Y-48225827D02*
X89289161Y-48178208D01*
X89289161Y-48178208D02*
X89146304Y-48178208D01*
X89146304Y-48178208D02*
X89051066Y-48225827D01*
X88193923Y-48797256D02*
X88289161Y-48844875D01*
X88289161Y-48844875D02*
X88479637Y-48844875D01*
X88479637Y-48844875D02*
X88574875Y-48797256D01*
X88574875Y-48797256D02*
X88622494Y-48702017D01*
X88622494Y-48702017D02*
X88622494Y-48321065D01*
X88622494Y-48321065D02*
X88574875Y-48225827D01*
X88574875Y-48225827D02*
X88479637Y-48178208D01*
X88479637Y-48178208D02*
X88289161Y-48178208D01*
X88289161Y-48178208D02*
X88193923Y-48225827D01*
X88193923Y-48225827D02*
X88146304Y-48321065D01*
X88146304Y-48321065D02*
X88146304Y-48416303D01*
X88146304Y-48416303D02*
X88622494Y-48511541D01*
X87717732Y-48844875D02*
X87717732Y-48178208D01*
X87717732Y-48368684D02*
X87670113Y-48273446D01*
X87670113Y-48273446D02*
X87622494Y-48225827D01*
X87622494Y-48225827D02*
X87527256Y-48178208D01*
X87527256Y-48178208D02*
X87432018Y-48178208D01*
X86670113Y-48844875D02*
X86670113Y-48321065D01*
X86670113Y-48321065D02*
X86717732Y-48225827D01*
X86717732Y-48225827D02*
X86812970Y-48178208D01*
X86812970Y-48178208D02*
X87003446Y-48178208D01*
X87003446Y-48178208D02*
X87098684Y-48225827D01*
X86670113Y-48797256D02*
X86765351Y-48844875D01*
X86765351Y-48844875D02*
X87003446Y-48844875D01*
X87003446Y-48844875D02*
X87098684Y-48797256D01*
X87098684Y-48797256D02*
X87146303Y-48702017D01*
X87146303Y-48702017D02*
X87146303Y-48606779D01*
X87146303Y-48606779D02*
X87098684Y-48511541D01*
X87098684Y-48511541D02*
X87003446Y-48463922D01*
X87003446Y-48463922D02*
X86765351Y-48463922D01*
X86765351Y-48463922D02*
X86670113Y-48416303D01*
X85765351Y-48797256D02*
X85860589Y-48844875D01*
X85860589Y-48844875D02*
X86051065Y-48844875D01*
X86051065Y-48844875D02*
X86146303Y-48797256D01*
X86146303Y-48797256D02*
X86193922Y-48749636D01*
X86193922Y-48749636D02*
X86241541Y-48654398D01*
X86241541Y-48654398D02*
X86241541Y-48368684D01*
X86241541Y-48368684D02*
X86193922Y-48273446D01*
X86193922Y-48273446D02*
X86146303Y-48225827D01*
X86146303Y-48225827D02*
X86051065Y-48178208D01*
X86051065Y-48178208D02*
X85860589Y-48178208D01*
X85860589Y-48178208D02*
X85765351Y-48225827D01*
X85479636Y-48178208D02*
X85098684Y-48178208D01*
X85336779Y-47844875D02*
X85336779Y-48702017D01*
X85336779Y-48702017D02*
X85289160Y-48797256D01*
X85289160Y-48797256D02*
X85193922Y-48844875D01*
X85193922Y-48844875D02*
X85098684Y-48844875D01*
X84098683Y-48178208D02*
X83860588Y-48844875D01*
X83860588Y-48844875D02*
X83622493Y-48178208D01*
X82717731Y-48844875D02*
X83289159Y-48844875D01*
X83003445Y-48844875D02*
X83003445Y-47844875D01*
X83003445Y-47844875D02*
X83098683Y-47987732D01*
X83098683Y-47987732D02*
X83193921Y-48082970D01*
X83193921Y-48082970D02*
X83289159Y-48130589D01*
X82289159Y-48749636D02*
X82241540Y-48797256D01*
X82241540Y-48797256D02*
X82289159Y-48844875D01*
X82289159Y-48844875D02*
X82336778Y-48797256D01*
X82336778Y-48797256D02*
X82289159Y-48749636D01*
X82289159Y-48749636D02*
X82289159Y-48844875D01*
X81622493Y-47844875D02*
X81527255Y-47844875D01*
X81527255Y-47844875D02*
X81432017Y-47892494D01*
X81432017Y-47892494D02*
X81384398Y-47940113D01*
X81384398Y-47940113D02*
X81336779Y-48035351D01*
X81336779Y-48035351D02*
X81289160Y-48225827D01*
X81289160Y-48225827D02*
X81289160Y-48463922D01*
X81289160Y-48463922D02*
X81336779Y-48654398D01*
X81336779Y-48654398D02*
X81384398Y-48749636D01*
X81384398Y-48749636D02*
X81432017Y-48797256D01*
X81432017Y-48797256D02*
X81527255Y-48844875D01*
X81527255Y-48844875D02*
X81622493Y-48844875D01*
X81622493Y-48844875D02*
X81717731Y-48797256D01*
X81717731Y-48797256D02*
X81765350Y-48749636D01*
X81765350Y-48749636D02*
X81812969Y-48654398D01*
X81812969Y-48654398D02*
X81860588Y-48463922D01*
X81860588Y-48463922D02*
X81860588Y-48225827D01*
X81860588Y-48225827D02*
X81812969Y-48035351D01*
X81812969Y-48035351D02*
X81765350Y-47940113D01*
X81765350Y-47940113D02*
X81717731Y-47892494D01*
X81717731Y-47892494D02*
X81622493Y-47844875D01*
X91003445Y-49550057D02*
X90955826Y-49502438D01*
X90955826Y-49502438D02*
X90860588Y-49454819D01*
X90860588Y-49454819D02*
X90622493Y-49454819D01*
X90622493Y-49454819D02*
X90527255Y-49502438D01*
X90527255Y-49502438D02*
X90479636Y-49550057D01*
X90479636Y-49550057D02*
X90432017Y-49645295D01*
X90432017Y-49645295D02*
X90432017Y-49740533D01*
X90432017Y-49740533D02*
X90479636Y-49883390D01*
X90479636Y-49883390D02*
X91051064Y-50454819D01*
X91051064Y-50454819D02*
X90432017Y-50454819D01*
X89812969Y-49454819D02*
X89717731Y-49454819D01*
X89717731Y-49454819D02*
X89622493Y-49502438D01*
X89622493Y-49502438D02*
X89574874Y-49550057D01*
X89574874Y-49550057D02*
X89527255Y-49645295D01*
X89527255Y-49645295D02*
X89479636Y-49835771D01*
X89479636Y-49835771D02*
X89479636Y-50073866D01*
X89479636Y-50073866D02*
X89527255Y-50264342D01*
X89527255Y-50264342D02*
X89574874Y-50359580D01*
X89574874Y-50359580D02*
X89622493Y-50407200D01*
X89622493Y-50407200D02*
X89717731Y-50454819D01*
X89717731Y-50454819D02*
X89812969Y-50454819D01*
X89812969Y-50454819D02*
X89908207Y-50407200D01*
X89908207Y-50407200D02*
X89955826Y-50359580D01*
X89955826Y-50359580D02*
X90003445Y-50264342D01*
X90003445Y-50264342D02*
X90051064Y-50073866D01*
X90051064Y-50073866D02*
X90051064Y-49835771D01*
X90051064Y-49835771D02*
X90003445Y-49645295D01*
X90003445Y-49645295D02*
X89955826Y-49550057D01*
X89955826Y-49550057D02*
X89908207Y-49502438D01*
X89908207Y-49502438D02*
X89812969Y-49454819D01*
X89098683Y-49550057D02*
X89051064Y-49502438D01*
X89051064Y-49502438D02*
X88955826Y-49454819D01*
X88955826Y-49454819D02*
X88717731Y-49454819D01*
X88717731Y-49454819D02*
X88622493Y-49502438D01*
X88622493Y-49502438D02*
X88574874Y-49550057D01*
X88574874Y-49550057D02*
X88527255Y-49645295D01*
X88527255Y-49645295D02*
X88527255Y-49740533D01*
X88527255Y-49740533D02*
X88574874Y-49883390D01*
X88574874Y-49883390D02*
X89146302Y-50454819D01*
X89146302Y-50454819D02*
X88527255Y-50454819D01*
X87670112Y-49454819D02*
X87860588Y-49454819D01*
X87860588Y-49454819D02*
X87955826Y-49502438D01*
X87955826Y-49502438D02*
X88003445Y-49550057D01*
X88003445Y-49550057D02*
X88098683Y-49692914D01*
X88098683Y-49692914D02*
X88146302Y-49883390D01*
X88146302Y-49883390D02*
X88146302Y-50264342D01*
X88146302Y-50264342D02*
X88098683Y-50359580D01*
X88098683Y-50359580D02*
X88051064Y-50407200D01*
X88051064Y-50407200D02*
X87955826Y-50454819D01*
X87955826Y-50454819D02*
X87765350Y-50454819D01*
X87765350Y-50454819D02*
X87670112Y-50407200D01*
X87670112Y-50407200D02*
X87622493Y-50359580D01*
X87622493Y-50359580D02*
X87574874Y-50264342D01*
X87574874Y-50264342D02*
X87574874Y-50026247D01*
X87574874Y-50026247D02*
X87622493Y-49931009D01*
X87622493Y-49931009D02*
X87670112Y-49883390D01*
X87670112Y-49883390D02*
X87765350Y-49835771D01*
X87765350Y-49835771D02*
X87955826Y-49835771D01*
X87955826Y-49835771D02*
X88051064Y-49883390D01*
X88051064Y-49883390D02*
X88098683Y-49931009D01*
X88098683Y-49931009D02*
X88146302Y-50026247D01*
X87146302Y-50073866D02*
X86384398Y-50073866D01*
X85717731Y-49454819D02*
X85622493Y-49454819D01*
X85622493Y-49454819D02*
X85527255Y-49502438D01*
X85527255Y-49502438D02*
X85479636Y-49550057D01*
X85479636Y-49550057D02*
X85432017Y-49645295D01*
X85432017Y-49645295D02*
X85384398Y-49835771D01*
X85384398Y-49835771D02*
X85384398Y-50073866D01*
X85384398Y-50073866D02*
X85432017Y-50264342D01*
X85432017Y-50264342D02*
X85479636Y-50359580D01*
X85479636Y-50359580D02*
X85527255Y-50407200D01*
X85527255Y-50407200D02*
X85622493Y-50454819D01*
X85622493Y-50454819D02*
X85717731Y-50454819D01*
X85717731Y-50454819D02*
X85812969Y-50407200D01*
X85812969Y-50407200D02*
X85860588Y-50359580D01*
X85860588Y-50359580D02*
X85908207Y-50264342D01*
X85908207Y-50264342D02*
X85955826Y-50073866D01*
X85955826Y-50073866D02*
X85955826Y-49835771D01*
X85955826Y-49835771D02*
X85908207Y-49645295D01*
X85908207Y-49645295D02*
X85860588Y-49550057D01*
X85860588Y-49550057D02*
X85812969Y-49502438D01*
X85812969Y-49502438D02*
X85717731Y-49454819D01*
X84527255Y-49454819D02*
X84717731Y-49454819D01*
X84717731Y-49454819D02*
X84812969Y-49502438D01*
X84812969Y-49502438D02*
X84860588Y-49550057D01*
X84860588Y-49550057D02*
X84955826Y-49692914D01*
X84955826Y-49692914D02*
X85003445Y-49883390D01*
X85003445Y-49883390D02*
X85003445Y-50264342D01*
X85003445Y-50264342D02*
X84955826Y-50359580D01*
X84955826Y-50359580D02*
X84908207Y-50407200D01*
X84908207Y-50407200D02*
X84812969Y-50454819D01*
X84812969Y-50454819D02*
X84622493Y-50454819D01*
X84622493Y-50454819D02*
X84527255Y-50407200D01*
X84527255Y-50407200D02*
X84479636Y-50359580D01*
X84479636Y-50359580D02*
X84432017Y-50264342D01*
X84432017Y-50264342D02*
X84432017Y-50026247D01*
X84432017Y-50026247D02*
X84479636Y-49931009D01*
X84479636Y-49931009D02*
X84527255Y-49883390D01*
X84527255Y-49883390D02*
X84622493Y-49835771D01*
X84622493Y-49835771D02*
X84812969Y-49835771D01*
X84812969Y-49835771D02*
X84908207Y-49883390D01*
X84908207Y-49883390D02*
X84955826Y-49931009D01*
X84955826Y-49931009D02*
X85003445Y-50026247D01*
X84003445Y-50073866D02*
X83241541Y-50073866D01*
X82812969Y-49550057D02*
X82765350Y-49502438D01*
X82765350Y-49502438D02*
X82670112Y-49454819D01*
X82670112Y-49454819D02*
X82432017Y-49454819D01*
X82432017Y-49454819D02*
X82336779Y-49502438D01*
X82336779Y-49502438D02*
X82289160Y-49550057D01*
X82289160Y-49550057D02*
X82241541Y-49645295D01*
X82241541Y-49645295D02*
X82241541Y-49740533D01*
X82241541Y-49740533D02*
X82289160Y-49883390D01*
X82289160Y-49883390D02*
X82860588Y-50454819D01*
X82860588Y-50454819D02*
X82241541Y-50454819D01*
X81860588Y-49550057D02*
X81812969Y-49502438D01*
X81812969Y-49502438D02*
X81717731Y-49454819D01*
X81717731Y-49454819D02*
X81479636Y-49454819D01*
X81479636Y-49454819D02*
X81384398Y-49502438D01*
X81384398Y-49502438D02*
X81336779Y-49550057D01*
X81336779Y-49550057D02*
X81289160Y-49645295D01*
X81289160Y-49645295D02*
X81289160Y-49740533D01*
X81289160Y-49740533D02*
X81336779Y-49883390D01*
X81336779Y-49883390D02*
X81908207Y-50454819D01*
X81908207Y-50454819D02*
X81289160Y-50454819D01*
X90860590Y-51064763D02*
X90860590Y-51779048D01*
X90860590Y-51779048D02*
X90908209Y-51921905D01*
X90908209Y-51921905D02*
X91003447Y-52017144D01*
X91003447Y-52017144D02*
X91146304Y-52064763D01*
X91146304Y-52064763D02*
X91241542Y-52064763D01*
X89908209Y-52064763D02*
X90384399Y-52064763D01*
X90384399Y-52064763D02*
X90384399Y-51064763D01*
X89003447Y-51969524D02*
X89051066Y-52017144D01*
X89051066Y-52017144D02*
X89193923Y-52064763D01*
X89193923Y-52064763D02*
X89289161Y-52064763D01*
X89289161Y-52064763D02*
X89432018Y-52017144D01*
X89432018Y-52017144D02*
X89527256Y-51921905D01*
X89527256Y-51921905D02*
X89574875Y-51826667D01*
X89574875Y-51826667D02*
X89622494Y-51636191D01*
X89622494Y-51636191D02*
X89622494Y-51493334D01*
X89622494Y-51493334D02*
X89574875Y-51302858D01*
X89574875Y-51302858D02*
X89527256Y-51207620D01*
X89527256Y-51207620D02*
X89432018Y-51112382D01*
X89432018Y-51112382D02*
X89289161Y-51064763D01*
X89289161Y-51064763D02*
X89193923Y-51064763D01*
X89193923Y-51064763D02*
X89051066Y-51112382D01*
X89051066Y-51112382D02*
X89003447Y-51160001D01*
X88289161Y-51064763D02*
X88289161Y-51779048D01*
X88289161Y-51779048D02*
X88336780Y-51921905D01*
X88336780Y-51921905D02*
X88432018Y-52017144D01*
X88432018Y-52017144D02*
X88574875Y-52064763D01*
X88574875Y-52064763D02*
X88670113Y-52064763D01*
X87336780Y-52064763D02*
X87812970Y-52064763D01*
X87812970Y-52064763D02*
X87812970Y-51064763D01*
X86432018Y-51969524D02*
X86479637Y-52017144D01*
X86479637Y-52017144D02*
X86622494Y-52064763D01*
X86622494Y-52064763D02*
X86717732Y-52064763D01*
X86717732Y-52064763D02*
X86860589Y-52017144D01*
X86860589Y-52017144D02*
X86955827Y-51921905D01*
X86955827Y-51921905D02*
X87003446Y-51826667D01*
X87003446Y-51826667D02*
X87051065Y-51636191D01*
X87051065Y-51636191D02*
X87051065Y-51493334D01*
X87051065Y-51493334D02*
X87003446Y-51302858D01*
X87003446Y-51302858D02*
X86955827Y-51207620D01*
X86955827Y-51207620D02*
X86860589Y-51112382D01*
X86860589Y-51112382D02*
X86717732Y-51064763D01*
X86717732Y-51064763D02*
X86622494Y-51064763D01*
X86622494Y-51064763D02*
X86479637Y-51112382D01*
X86479637Y-51112382D02*
X86432018Y-51160001D01*
X85717732Y-51064763D02*
X85717732Y-51779048D01*
X85717732Y-51779048D02*
X85765351Y-51921905D01*
X85765351Y-51921905D02*
X85860589Y-52017144D01*
X85860589Y-52017144D02*
X86003446Y-52064763D01*
X86003446Y-52064763D02*
X86098684Y-52064763D01*
X84765351Y-52064763D02*
X85241541Y-52064763D01*
X85241541Y-52064763D02*
X85241541Y-51064763D01*
X83860589Y-51969524D02*
X83908208Y-52017144D01*
X83908208Y-52017144D02*
X84051065Y-52064763D01*
X84051065Y-52064763D02*
X84146303Y-52064763D01*
X84146303Y-52064763D02*
X84289160Y-52017144D01*
X84289160Y-52017144D02*
X84384398Y-51921905D01*
X84384398Y-51921905D02*
X84432017Y-51826667D01*
X84432017Y-51826667D02*
X84479636Y-51636191D01*
X84479636Y-51636191D02*
X84479636Y-51493334D01*
X84479636Y-51493334D02*
X84432017Y-51302858D01*
X84432017Y-51302858D02*
X84384398Y-51207620D01*
X84384398Y-51207620D02*
X84289160Y-51112382D01*
X84289160Y-51112382D02*
X84146303Y-51064763D01*
X84146303Y-51064763D02*
X84051065Y-51064763D01*
X84051065Y-51064763D02*
X83908208Y-51112382D01*
X83908208Y-51112382D02*
X83860589Y-51160001D01*
X83146303Y-51064763D02*
X83146303Y-51779048D01*
X83146303Y-51779048D02*
X83193922Y-51921905D01*
X83193922Y-51921905D02*
X83289160Y-52017144D01*
X83289160Y-52017144D02*
X83432017Y-52064763D01*
X83432017Y-52064763D02*
X83527255Y-52064763D01*
X82193922Y-52064763D02*
X82670112Y-52064763D01*
X82670112Y-52064763D02*
X82670112Y-51064763D01*
X81289160Y-51969524D02*
X81336779Y-52017144D01*
X81336779Y-52017144D02*
X81479636Y-52064763D01*
X81479636Y-52064763D02*
X81574874Y-52064763D01*
X81574874Y-52064763D02*
X81717731Y-52017144D01*
X81717731Y-52017144D02*
X81812969Y-51921905D01*
X81812969Y-51921905D02*
X81860588Y-51826667D01*
X81860588Y-51826667D02*
X81908207Y-51636191D01*
X81908207Y-51636191D02*
X81908207Y-51493334D01*
X81908207Y-51493334D02*
X81860588Y-51302858D01*
X81860588Y-51302858D02*
X81812969Y-51207620D01*
X81812969Y-51207620D02*
X81717731Y-51112382D01*
X81717731Y-51112382D02*
X81574874Y-51064763D01*
X81574874Y-51064763D02*
X81479636Y-51064763D01*
X81479636Y-51064763D02*
X81336779Y-51112382D01*
X81336779Y-51112382D02*
X81289160Y-51160001D01*
X135306077Y-55844875D02*
X134734649Y-55844875D01*
X135020363Y-56844875D02*
X135020363Y-55844875D01*
X134020363Y-56797256D02*
X134115601Y-56844875D01*
X134115601Y-56844875D02*
X134306077Y-56844875D01*
X134306077Y-56844875D02*
X134401315Y-56797256D01*
X134401315Y-56797256D02*
X134448934Y-56702017D01*
X134448934Y-56702017D02*
X134448934Y-56321065D01*
X134448934Y-56321065D02*
X134401315Y-56225827D01*
X134401315Y-56225827D02*
X134306077Y-56178208D01*
X134306077Y-56178208D02*
X134115601Y-56178208D01*
X134115601Y-56178208D02*
X134020363Y-56225827D01*
X134020363Y-56225827D02*
X133972744Y-56321065D01*
X133972744Y-56321065D02*
X133972744Y-56416303D01*
X133972744Y-56416303D02*
X134448934Y-56511541D01*
X133544172Y-56178208D02*
X133544172Y-56844875D01*
X133544172Y-56273446D02*
X133496553Y-56225827D01*
X133496553Y-56225827D02*
X133401315Y-56178208D01*
X133401315Y-56178208D02*
X133258458Y-56178208D01*
X133258458Y-56178208D02*
X133163220Y-56225827D01*
X133163220Y-56225827D02*
X133115601Y-56321065D01*
X133115601Y-56321065D02*
X133115601Y-56844875D01*
X132687029Y-56797256D02*
X132591791Y-56844875D01*
X132591791Y-56844875D02*
X132401315Y-56844875D01*
X132401315Y-56844875D02*
X132306077Y-56797256D01*
X132306077Y-56797256D02*
X132258458Y-56702017D01*
X132258458Y-56702017D02*
X132258458Y-56654398D01*
X132258458Y-56654398D02*
X132306077Y-56559160D01*
X132306077Y-56559160D02*
X132401315Y-56511541D01*
X132401315Y-56511541D02*
X132544172Y-56511541D01*
X132544172Y-56511541D02*
X132639410Y-56463922D01*
X132639410Y-56463922D02*
X132687029Y-56368684D01*
X132687029Y-56368684D02*
X132687029Y-56321065D01*
X132687029Y-56321065D02*
X132639410Y-56225827D01*
X132639410Y-56225827D02*
X132544172Y-56178208D01*
X132544172Y-56178208D02*
X132401315Y-56178208D01*
X132401315Y-56178208D02*
X132306077Y-56225827D01*
X131448934Y-56797256D02*
X131544172Y-56844875D01*
X131544172Y-56844875D02*
X131734648Y-56844875D01*
X131734648Y-56844875D02*
X131829886Y-56797256D01*
X131829886Y-56797256D02*
X131877505Y-56702017D01*
X131877505Y-56702017D02*
X131877505Y-56321065D01*
X131877505Y-56321065D02*
X131829886Y-56225827D01*
X131829886Y-56225827D02*
X131734648Y-56178208D01*
X131734648Y-56178208D02*
X131544172Y-56178208D01*
X131544172Y-56178208D02*
X131448934Y-56225827D01*
X131448934Y-56225827D02*
X131401315Y-56321065D01*
X131401315Y-56321065D02*
X131401315Y-56416303D01*
X131401315Y-56416303D02*
X131877505Y-56511541D01*
X130972743Y-56844875D02*
X130972743Y-56178208D01*
X130972743Y-56368684D02*
X130925124Y-56273446D01*
X130925124Y-56273446D02*
X130877505Y-56225827D01*
X130877505Y-56225827D02*
X130782267Y-56178208D01*
X130782267Y-56178208D02*
X130687029Y-56178208D01*
X129925124Y-56844875D02*
X129925124Y-56321065D01*
X129925124Y-56321065D02*
X129972743Y-56225827D01*
X129972743Y-56225827D02*
X130067981Y-56178208D01*
X130067981Y-56178208D02*
X130258457Y-56178208D01*
X130258457Y-56178208D02*
X130353695Y-56225827D01*
X129925124Y-56797256D02*
X130020362Y-56844875D01*
X130020362Y-56844875D02*
X130258457Y-56844875D01*
X130258457Y-56844875D02*
X130353695Y-56797256D01*
X130353695Y-56797256D02*
X130401314Y-56702017D01*
X130401314Y-56702017D02*
X130401314Y-56606779D01*
X130401314Y-56606779D02*
X130353695Y-56511541D01*
X130353695Y-56511541D02*
X130258457Y-56463922D01*
X130258457Y-56463922D02*
X130020362Y-56463922D01*
X130020362Y-56463922D02*
X129925124Y-56416303D01*
X129020362Y-56797256D02*
X129115600Y-56844875D01*
X129115600Y-56844875D02*
X129306076Y-56844875D01*
X129306076Y-56844875D02*
X129401314Y-56797256D01*
X129401314Y-56797256D02*
X129448933Y-56749636D01*
X129448933Y-56749636D02*
X129496552Y-56654398D01*
X129496552Y-56654398D02*
X129496552Y-56368684D01*
X129496552Y-56368684D02*
X129448933Y-56273446D01*
X129448933Y-56273446D02*
X129401314Y-56225827D01*
X129401314Y-56225827D02*
X129306076Y-56178208D01*
X129306076Y-56178208D02*
X129115600Y-56178208D01*
X129115600Y-56178208D02*
X129020362Y-56225827D01*
X128734647Y-56178208D02*
X128353695Y-56178208D01*
X128591790Y-55844875D02*
X128591790Y-56702017D01*
X128591790Y-56702017D02*
X128544171Y-56797256D01*
X128544171Y-56797256D02*
X128448933Y-56844875D01*
X128448933Y-56844875D02*
X128353695Y-56844875D01*
X127353694Y-56178208D02*
X127115599Y-56844875D01*
X127115599Y-56844875D02*
X126877504Y-56178208D01*
X125972742Y-56844875D02*
X126544170Y-56844875D01*
X126258456Y-56844875D02*
X126258456Y-55844875D01*
X126258456Y-55844875D02*
X126353694Y-55987732D01*
X126353694Y-55987732D02*
X126448932Y-56082970D01*
X126448932Y-56082970D02*
X126544170Y-56130589D01*
X125544170Y-56749636D02*
X125496551Y-56797256D01*
X125496551Y-56797256D02*
X125544170Y-56844875D01*
X125544170Y-56844875D02*
X125591789Y-56797256D01*
X125591789Y-56797256D02*
X125544170Y-56749636D01*
X125544170Y-56749636D02*
X125544170Y-56844875D01*
X124877504Y-55844875D02*
X124782266Y-55844875D01*
X124782266Y-55844875D02*
X124687028Y-55892494D01*
X124687028Y-55892494D02*
X124639409Y-55940113D01*
X124639409Y-55940113D02*
X124591790Y-56035351D01*
X124591790Y-56035351D02*
X124544171Y-56225827D01*
X124544171Y-56225827D02*
X124544171Y-56463922D01*
X124544171Y-56463922D02*
X124591790Y-56654398D01*
X124591790Y-56654398D02*
X124639409Y-56749636D01*
X124639409Y-56749636D02*
X124687028Y-56797256D01*
X124687028Y-56797256D02*
X124782266Y-56844875D01*
X124782266Y-56844875D02*
X124877504Y-56844875D01*
X124877504Y-56844875D02*
X124972742Y-56797256D01*
X124972742Y-56797256D02*
X125020361Y-56749636D01*
X125020361Y-56749636D02*
X125067980Y-56654398D01*
X125067980Y-56654398D02*
X125115599Y-56463922D01*
X125115599Y-56463922D02*
X125115599Y-56225827D01*
X125115599Y-56225827D02*
X125067980Y-56035351D01*
X125067980Y-56035351D02*
X125020361Y-55940113D01*
X125020361Y-55940113D02*
X124972742Y-55892494D01*
X124972742Y-55892494D02*
X124877504Y-55844875D01*
X135210839Y-57550057D02*
X135163220Y-57502438D01*
X135163220Y-57502438D02*
X135067982Y-57454819D01*
X135067982Y-57454819D02*
X134829887Y-57454819D01*
X134829887Y-57454819D02*
X134734649Y-57502438D01*
X134734649Y-57502438D02*
X134687030Y-57550057D01*
X134687030Y-57550057D02*
X134639411Y-57645295D01*
X134639411Y-57645295D02*
X134639411Y-57740533D01*
X134639411Y-57740533D02*
X134687030Y-57883390D01*
X134687030Y-57883390D02*
X135258458Y-58454819D01*
X135258458Y-58454819D02*
X134639411Y-58454819D01*
X134020363Y-57454819D02*
X133925125Y-57454819D01*
X133925125Y-57454819D02*
X133829887Y-57502438D01*
X133829887Y-57502438D02*
X133782268Y-57550057D01*
X133782268Y-57550057D02*
X133734649Y-57645295D01*
X133734649Y-57645295D02*
X133687030Y-57835771D01*
X133687030Y-57835771D02*
X133687030Y-58073866D01*
X133687030Y-58073866D02*
X133734649Y-58264342D01*
X133734649Y-58264342D02*
X133782268Y-58359580D01*
X133782268Y-58359580D02*
X133829887Y-58407200D01*
X133829887Y-58407200D02*
X133925125Y-58454819D01*
X133925125Y-58454819D02*
X134020363Y-58454819D01*
X134020363Y-58454819D02*
X134115601Y-58407200D01*
X134115601Y-58407200D02*
X134163220Y-58359580D01*
X134163220Y-58359580D02*
X134210839Y-58264342D01*
X134210839Y-58264342D02*
X134258458Y-58073866D01*
X134258458Y-58073866D02*
X134258458Y-57835771D01*
X134258458Y-57835771D02*
X134210839Y-57645295D01*
X134210839Y-57645295D02*
X134163220Y-57550057D01*
X134163220Y-57550057D02*
X134115601Y-57502438D01*
X134115601Y-57502438D02*
X134020363Y-57454819D01*
X133306077Y-57550057D02*
X133258458Y-57502438D01*
X133258458Y-57502438D02*
X133163220Y-57454819D01*
X133163220Y-57454819D02*
X132925125Y-57454819D01*
X132925125Y-57454819D02*
X132829887Y-57502438D01*
X132829887Y-57502438D02*
X132782268Y-57550057D01*
X132782268Y-57550057D02*
X132734649Y-57645295D01*
X132734649Y-57645295D02*
X132734649Y-57740533D01*
X132734649Y-57740533D02*
X132782268Y-57883390D01*
X132782268Y-57883390D02*
X133353696Y-58454819D01*
X133353696Y-58454819D02*
X132734649Y-58454819D01*
X131877506Y-57454819D02*
X132067982Y-57454819D01*
X132067982Y-57454819D02*
X132163220Y-57502438D01*
X132163220Y-57502438D02*
X132210839Y-57550057D01*
X132210839Y-57550057D02*
X132306077Y-57692914D01*
X132306077Y-57692914D02*
X132353696Y-57883390D01*
X132353696Y-57883390D02*
X132353696Y-58264342D01*
X132353696Y-58264342D02*
X132306077Y-58359580D01*
X132306077Y-58359580D02*
X132258458Y-58407200D01*
X132258458Y-58407200D02*
X132163220Y-58454819D01*
X132163220Y-58454819D02*
X131972744Y-58454819D01*
X131972744Y-58454819D02*
X131877506Y-58407200D01*
X131877506Y-58407200D02*
X131829887Y-58359580D01*
X131829887Y-58359580D02*
X131782268Y-58264342D01*
X131782268Y-58264342D02*
X131782268Y-58026247D01*
X131782268Y-58026247D02*
X131829887Y-57931009D01*
X131829887Y-57931009D02*
X131877506Y-57883390D01*
X131877506Y-57883390D02*
X131972744Y-57835771D01*
X131972744Y-57835771D02*
X132163220Y-57835771D01*
X132163220Y-57835771D02*
X132258458Y-57883390D01*
X132258458Y-57883390D02*
X132306077Y-57931009D01*
X132306077Y-57931009D02*
X132353696Y-58026247D01*
X131353696Y-58073866D02*
X130591792Y-58073866D01*
X129925125Y-57454819D02*
X129829887Y-57454819D01*
X129829887Y-57454819D02*
X129734649Y-57502438D01*
X129734649Y-57502438D02*
X129687030Y-57550057D01*
X129687030Y-57550057D02*
X129639411Y-57645295D01*
X129639411Y-57645295D02*
X129591792Y-57835771D01*
X129591792Y-57835771D02*
X129591792Y-58073866D01*
X129591792Y-58073866D02*
X129639411Y-58264342D01*
X129639411Y-58264342D02*
X129687030Y-58359580D01*
X129687030Y-58359580D02*
X129734649Y-58407200D01*
X129734649Y-58407200D02*
X129829887Y-58454819D01*
X129829887Y-58454819D02*
X129925125Y-58454819D01*
X129925125Y-58454819D02*
X130020363Y-58407200D01*
X130020363Y-58407200D02*
X130067982Y-58359580D01*
X130067982Y-58359580D02*
X130115601Y-58264342D01*
X130115601Y-58264342D02*
X130163220Y-58073866D01*
X130163220Y-58073866D02*
X130163220Y-57835771D01*
X130163220Y-57835771D02*
X130115601Y-57645295D01*
X130115601Y-57645295D02*
X130067982Y-57550057D01*
X130067982Y-57550057D02*
X130020363Y-57502438D01*
X130020363Y-57502438D02*
X129925125Y-57454819D01*
X128734649Y-57454819D02*
X128925125Y-57454819D01*
X128925125Y-57454819D02*
X129020363Y-57502438D01*
X129020363Y-57502438D02*
X129067982Y-57550057D01*
X129067982Y-57550057D02*
X129163220Y-57692914D01*
X129163220Y-57692914D02*
X129210839Y-57883390D01*
X129210839Y-57883390D02*
X129210839Y-58264342D01*
X129210839Y-58264342D02*
X129163220Y-58359580D01*
X129163220Y-58359580D02*
X129115601Y-58407200D01*
X129115601Y-58407200D02*
X129020363Y-58454819D01*
X129020363Y-58454819D02*
X128829887Y-58454819D01*
X128829887Y-58454819D02*
X128734649Y-58407200D01*
X128734649Y-58407200D02*
X128687030Y-58359580D01*
X128687030Y-58359580D02*
X128639411Y-58264342D01*
X128639411Y-58264342D02*
X128639411Y-58026247D01*
X128639411Y-58026247D02*
X128687030Y-57931009D01*
X128687030Y-57931009D02*
X128734649Y-57883390D01*
X128734649Y-57883390D02*
X128829887Y-57835771D01*
X128829887Y-57835771D02*
X129020363Y-57835771D01*
X129020363Y-57835771D02*
X129115601Y-57883390D01*
X129115601Y-57883390D02*
X129163220Y-57931009D01*
X129163220Y-57931009D02*
X129210839Y-58026247D01*
X128210839Y-58073866D02*
X127448935Y-58073866D01*
X127020363Y-57550057D02*
X126972744Y-57502438D01*
X126972744Y-57502438D02*
X126877506Y-57454819D01*
X126877506Y-57454819D02*
X126639411Y-57454819D01*
X126639411Y-57454819D02*
X126544173Y-57502438D01*
X126544173Y-57502438D02*
X126496554Y-57550057D01*
X126496554Y-57550057D02*
X126448935Y-57645295D01*
X126448935Y-57645295D02*
X126448935Y-57740533D01*
X126448935Y-57740533D02*
X126496554Y-57883390D01*
X126496554Y-57883390D02*
X127067982Y-58454819D01*
X127067982Y-58454819D02*
X126448935Y-58454819D01*
X126067982Y-57550057D02*
X126020363Y-57502438D01*
X126020363Y-57502438D02*
X125925125Y-57454819D01*
X125925125Y-57454819D02*
X125687030Y-57454819D01*
X125687030Y-57454819D02*
X125591792Y-57502438D01*
X125591792Y-57502438D02*
X125544173Y-57550057D01*
X125544173Y-57550057D02*
X125496554Y-57645295D01*
X125496554Y-57645295D02*
X125496554Y-57740533D01*
X125496554Y-57740533D02*
X125544173Y-57883390D01*
X125544173Y-57883390D02*
X126115601Y-58454819D01*
X126115601Y-58454819D02*
X125496554Y-58454819D01*
X134877506Y-59064763D02*
X134877506Y-59779048D01*
X134877506Y-59779048D02*
X134925125Y-59921905D01*
X134925125Y-59921905D02*
X135020363Y-60017144D01*
X135020363Y-60017144D02*
X135163220Y-60064763D01*
X135163220Y-60064763D02*
X135258458Y-60064763D01*
X133925125Y-60064763D02*
X134401315Y-60064763D01*
X134401315Y-60064763D02*
X134401315Y-59064763D01*
X133020363Y-59969524D02*
X133067982Y-60017144D01*
X133067982Y-60017144D02*
X133210839Y-60064763D01*
X133210839Y-60064763D02*
X133306077Y-60064763D01*
X133306077Y-60064763D02*
X133448934Y-60017144D01*
X133448934Y-60017144D02*
X133544172Y-59921905D01*
X133544172Y-59921905D02*
X133591791Y-59826667D01*
X133591791Y-59826667D02*
X133639410Y-59636191D01*
X133639410Y-59636191D02*
X133639410Y-59493334D01*
X133639410Y-59493334D02*
X133591791Y-59302858D01*
X133591791Y-59302858D02*
X133544172Y-59207620D01*
X133544172Y-59207620D02*
X133448934Y-59112382D01*
X133448934Y-59112382D02*
X133306077Y-59064763D01*
X133306077Y-59064763D02*
X133210839Y-59064763D01*
X133210839Y-59064763D02*
X133067982Y-59112382D01*
X133067982Y-59112382D02*
X133020363Y-59160001D01*
X132306077Y-59064763D02*
X132306077Y-59779048D01*
X132306077Y-59779048D02*
X132353696Y-59921905D01*
X132353696Y-59921905D02*
X132448934Y-60017144D01*
X132448934Y-60017144D02*
X132591791Y-60064763D01*
X132591791Y-60064763D02*
X132687029Y-60064763D01*
X131353696Y-60064763D02*
X131829886Y-60064763D01*
X131829886Y-60064763D02*
X131829886Y-59064763D01*
X130448934Y-59969524D02*
X130496553Y-60017144D01*
X130496553Y-60017144D02*
X130639410Y-60064763D01*
X130639410Y-60064763D02*
X130734648Y-60064763D01*
X130734648Y-60064763D02*
X130877505Y-60017144D01*
X130877505Y-60017144D02*
X130972743Y-59921905D01*
X130972743Y-59921905D02*
X131020362Y-59826667D01*
X131020362Y-59826667D02*
X131067981Y-59636191D01*
X131067981Y-59636191D02*
X131067981Y-59493334D01*
X131067981Y-59493334D02*
X131020362Y-59302858D01*
X131020362Y-59302858D02*
X130972743Y-59207620D01*
X130972743Y-59207620D02*
X130877505Y-59112382D01*
X130877505Y-59112382D02*
X130734648Y-59064763D01*
X130734648Y-59064763D02*
X130639410Y-59064763D01*
X130639410Y-59064763D02*
X130496553Y-59112382D01*
X130496553Y-59112382D02*
X130448934Y-59160001D01*
X129734648Y-59064763D02*
X129734648Y-59779048D01*
X129734648Y-59779048D02*
X129782267Y-59921905D01*
X129782267Y-59921905D02*
X129877505Y-60017144D01*
X129877505Y-60017144D02*
X130020362Y-60064763D01*
X130020362Y-60064763D02*
X130115600Y-60064763D01*
X128782267Y-60064763D02*
X129258457Y-60064763D01*
X129258457Y-60064763D02*
X129258457Y-59064763D01*
X127877505Y-59969524D02*
X127925124Y-60017144D01*
X127925124Y-60017144D02*
X128067981Y-60064763D01*
X128067981Y-60064763D02*
X128163219Y-60064763D01*
X128163219Y-60064763D02*
X128306076Y-60017144D01*
X128306076Y-60017144D02*
X128401314Y-59921905D01*
X128401314Y-59921905D02*
X128448933Y-59826667D01*
X128448933Y-59826667D02*
X128496552Y-59636191D01*
X128496552Y-59636191D02*
X128496552Y-59493334D01*
X128496552Y-59493334D02*
X128448933Y-59302858D01*
X128448933Y-59302858D02*
X128401314Y-59207620D01*
X128401314Y-59207620D02*
X128306076Y-59112382D01*
X128306076Y-59112382D02*
X128163219Y-59064763D01*
X128163219Y-59064763D02*
X128067981Y-59064763D01*
X128067981Y-59064763D02*
X127925124Y-59112382D01*
X127925124Y-59112382D02*
X127877505Y-59160001D01*
X127163219Y-59064763D02*
X127163219Y-59779048D01*
X127163219Y-59779048D02*
X127210838Y-59921905D01*
X127210838Y-59921905D02*
X127306076Y-60017144D01*
X127306076Y-60017144D02*
X127448933Y-60064763D01*
X127448933Y-60064763D02*
X127544171Y-60064763D01*
X126210838Y-60064763D02*
X126687028Y-60064763D01*
X126687028Y-60064763D02*
X126687028Y-59064763D01*
X125306076Y-59969524D02*
X125353695Y-60017144D01*
X125353695Y-60017144D02*
X125496552Y-60064763D01*
X125496552Y-60064763D02*
X125591790Y-60064763D01*
X125591790Y-60064763D02*
X125734647Y-60017144D01*
X125734647Y-60017144D02*
X125829885Y-59921905D01*
X125829885Y-59921905D02*
X125877504Y-59826667D01*
X125877504Y-59826667D02*
X125925123Y-59636191D01*
X125925123Y-59636191D02*
X125925123Y-59493334D01*
X125925123Y-59493334D02*
X125877504Y-59302858D01*
X125877504Y-59302858D02*
X125829885Y-59207620D01*
X125829885Y-59207620D02*
X125734647Y-59112382D01*
X125734647Y-59112382D02*
X125591790Y-59064763D01*
X125591790Y-59064763D02*
X125496552Y-59064763D01*
X125496552Y-59064763D02*
X125353695Y-59112382D01*
X125353695Y-59112382D02*
X125306076Y-59160001D01*
M02*
