%TF.GenerationSoftware,KiCad,Pcbnew,10.0.3*%
%TF.CreationDate,2026-06-22T07:12:48-07:00*%
%TF.ProjectId,Tenseract_JBox,54656e73-6572-4616-9374-5f4a426f782e,1.0*%
%TF.SameCoordinates,Original*%
%TF.FileFunction,Copper,L1,Top*%
%TF.FilePolarity,Positive*%
%FSLAX46Y46*%
G04 Gerber Fmt 4.6, Leading zero omitted, Abs format (unit mm)*
G04 Created by KiCad (PCBNEW 10.0.3) date 2026-06-22 07:12:48*
%MOMM*%
%LPD*%
G01*
G04 APERTURE LIST*
G04 Aperture macros list*
%AMRoundRect*
0 Rectangle with rounded corners*
0 $1 Rounding radius*
0 $2 $3 $4 $5 $6 $7 $8 $9 X,Y pos of 4 corners*
0 Add a 4 corners polygon primitive as box body*
4,1,4,$2,$3,$4,$5,$6,$7,$8,$9,$2,$3,0*
0 Add four circle primitives for the rounded corners*
1,1,$1+$1,$2,$3*
1,1,$1+$1,$4,$5*
1,1,$1+$1,$6,$7*
1,1,$1+$1,$8,$9*
0 Add four rect primitives between the rounded corners*
20,1,$1+$1,$2,$3,$4,$5,0*
20,1,$1+$1,$4,$5,$6,$7,0*
20,1,$1+$1,$6,$7,$8,$9,0*
20,1,$1+$1,$8,$9,$2,$3,0*%
G04 Aperture macros list end*
%TA.AperFunction,ComponentPad*%
%ADD10C,1.400000*%
%TD*%
%TA.AperFunction,ComponentPad*%
%ADD11RoundRect,0.750000X0.750000X-0.750000X0.750000X0.750000X-0.750000X0.750000X-0.750000X-0.750000X0*%
%TD*%
%TA.AperFunction,ComponentPad*%
%ADD12C,3.000000*%
%TD*%
%TA.AperFunction,ComponentPad*%
%ADD13R,1.700000X1.700000*%
%TD*%
%TA.AperFunction,ComponentPad*%
%ADD14C,1.700000*%
%TD*%
%TA.AperFunction,ComponentPad*%
%ADD15RoundRect,0.750000X-0.750000X0.750000X-0.750000X-0.750000X0.750000X-0.750000X0.750000X0.750000X0*%
%TD*%
%TA.AperFunction,ComponentPad*%
%ADD16RoundRect,0.249999X0.850001X0.850001X-0.850001X0.850001X-0.850001X-0.850001X0.850001X-0.850001X0*%
%TD*%
%TA.AperFunction,ComponentPad*%
%ADD17C,2.200000*%
%TD*%
%TA.AperFunction,ComponentPad*%
%ADD18RoundRect,0.249999X-0.850001X-0.850001X0.850001X-0.850001X0.850001X0.850001X-0.850001X0.850001X0*%
%TD*%
%TA.AperFunction,Conductor*%
%ADD19C,1.650000*%
%TD*%
%TA.AperFunction,Conductor*%
%ADD20C,1.700000*%
%TD*%
%TA.AperFunction,Conductor*%
%ADD21C,1.000000*%
%TD*%
G04 APERTURE END LIST*
D10*
%TO.P,J1,*%
%TO.N,*%
X85000000Y-56500000D03*
X85000000Y-43500000D03*
D11*
%TO.P,J1,1,Pin_1_1*%
%TO.N,+12V*%
X95000000Y-53500000D03*
D12*
%TO.P,J1,2,Pin_2_2*%
%TO.N,/DI*%
X95000000Y-50000000D03*
%TO.P,J1,3,Pin_3_3*%
%TO.N,GND*%
X95000000Y-46500000D03*
%TD*%
D13*
%TO.P,J19,1,Pin_1_1*%
%TO.N,/DI*%
X88135000Y-57960000D03*
D14*
%TO.P,J19,2,Pin_2_2*%
%TO.N,/DI1*%
X90675000Y-57960000D03*
%TO.P,J19,3,Pin_3_3*%
%TO.N,/DI*%
X88135000Y-60500000D03*
%TO.P,J19,4,Pin_4_4*%
%TO.N,/DI2*%
X90675000Y-60500000D03*
%TD*%
D13*
%TO.P,J11,1,Pin_1_1*%
%TO.N,GND*%
X114175000Y-51905000D03*
D14*
%TO.P,J11,2,Pin_2_2*%
%TO.N,/BO2*%
X116715000Y-51905000D03*
%TO.P,J11,3,Pin_3_3*%
%TO.N,/DO2*%
X119255000Y-51905000D03*
%TO.P,J11,4,Pin_4_4*%
%TO.N,+12V*%
X121795000Y-51905000D03*
%TD*%
D10*
%TO.P,J4,*%
%TO.N,*%
X137000000Y-43500000D03*
X137000000Y-56500000D03*
D15*
%TO.P,J4,1,Pin_1_1*%
%TO.N,+12V*%
X132000000Y-53500000D03*
D12*
%TO.P,J4,2,Pin_2_2*%
%TO.N,/DO*%
X132000000Y-50000000D03*
%TO.P,J4,3,Pin_3_3*%
%TO.N,GND*%
X132000000Y-46500000D03*
%TD*%
D13*
%TO.P,J12,1,Pin_1_1*%
%TO.N,GND*%
X121795000Y-48095000D03*
D14*
%TO.P,J12,2,Pin_2_2*%
%TO.N,/BO1*%
X119255000Y-48095000D03*
%TO.P,J12,3,Pin_3_3*%
%TO.N,/DO1*%
X116715000Y-48095000D03*
%TO.P,J12,4,Pin_4_4*%
%TO.N,+12V*%
X114175000Y-48095000D03*
%TD*%
D13*
%TO.P,J15,1,Pin_1_1*%
%TO.N,+12V*%
X88140000Y-41110000D03*
D14*
%TO.P,J15,2,Pin_2_2*%
%TO.N,/DI*%
X90680000Y-41110000D03*
%TO.P,J15,3,Pin_3_3*%
%TO.N,unconnected-(J15-Pin_3-Pad3)*%
X93220000Y-41110000D03*
%TO.P,J15,4,Pin_4_4*%
%TO.N,GND*%
X95760000Y-41110000D03*
%TD*%
D16*
%TO.P,J2,1,Pin_1_1*%
%TO.N,+12V*%
X107825000Y-42380000D03*
D17*
%TO.P,J2,2,Pin_2_2*%
%TO.N,/DI1*%
X105285000Y-42380000D03*
%TO.P,J2,3,Pin_3_3*%
%TO.N,/BI1*%
X102745000Y-42380000D03*
%TO.P,J2,4,Pin_4_4*%
%TO.N,GND*%
X100205000Y-42380000D03*
%TD*%
D18*
%TO.P,J6,1,Pin_1_1*%
%TO.N,GND*%
X114175000Y-57620000D03*
D17*
%TO.P,J6,2,Pin_2_2*%
%TO.N,/BO2*%
X116715000Y-57620000D03*
%TO.P,J6,3,Pin_3_3*%
%TO.N,/DO2*%
X119255000Y-57620000D03*
%TO.P,J6,4,Pin_4_4*%
%TO.N,+12V*%
X121795000Y-57620000D03*
%TD*%
D18*
%TO.P,J3,1,Pin_1_1*%
%TO.N,+12V*%
X100205000Y-57620000D03*
D17*
%TO.P,J3,2,Pin_2_2*%
%TO.N,/DI2*%
X102745000Y-57620000D03*
%TO.P,J3,3,Pin_3_3*%
%TO.N,/BI2*%
X105285000Y-57620000D03*
%TO.P,J3,4,Pin_4_4*%
%TO.N,GND*%
X107825000Y-57620000D03*
%TD*%
D16*
%TO.P,J5,1,Pin_1_1*%
%TO.N,GND*%
X121795000Y-42380000D03*
D17*
%TO.P,J5,2,Pin_2_2*%
%TO.N,/BO1*%
X119255000Y-42380000D03*
%TO.P,J5,3,Pin_3_3*%
%TO.N,/DO1*%
X116715000Y-42380000D03*
%TO.P,J5,4,Pin_4_4*%
%TO.N,+12V*%
X114175000Y-42380000D03*
%TD*%
D13*
%TO.P,J16,1,Pin_1_1*%
%TO.N,+12V*%
X133860000Y-41110000D03*
D14*
%TO.P,J16,2,Pin_2_2*%
%TO.N,/DO*%
X131320000Y-41110000D03*
%TO.P,J16,3,Pin_3_3*%
%TO.N,unconnected-(J16-Pin_3-Pad3)*%
X128780000Y-41110000D03*
%TO.P,J16,4,Pin_4_4*%
%TO.N,GND*%
X126240000Y-41110000D03*
%TD*%
D13*
%TO.P,J8,1,Pin_1_1*%
%TO.N,+12V*%
X107825000Y-48095000D03*
D14*
%TO.P,J8,2,Pin_2_2*%
%TO.N,/DI1*%
X105285000Y-48095000D03*
%TO.P,J8,3,Pin_3_3*%
%TO.N,/BI1*%
X102745000Y-48095000D03*
%TO.P,J8,4,Pin_4_4*%
%TO.N,GND*%
X100205000Y-48095000D03*
%TD*%
D13*
%TO.P,J10,1,Pin_1_1*%
%TO.N,+12V*%
X100205000Y-51905000D03*
D14*
%TO.P,J10,2,Pin_2_2*%
%TO.N,/DI2*%
X102745000Y-51905000D03*
%TO.P,J10,3,Pin_3_3*%
%TO.N,/BI2*%
X105285000Y-51905000D03*
%TO.P,J10,4,Pin_4_4*%
%TO.N,GND*%
X107825000Y-51905000D03*
%TD*%
D13*
%TO.P,J17,1,Pin_1_1*%
%TO.N,/DO1*%
X126875000Y-49365000D03*
D14*
%TO.P,J17,2,Pin_2_2*%
%TO.N,/DO*%
X126875000Y-51905000D03*
%TO.P,J17,3,Pin_3_3*%
%TO.N,/DO2*%
X126875000Y-54445000D03*
%TD*%
%TO.N,+12V*%
D19*
X107825000Y-42380000D02*
X114175000Y-42380000D01*
%TO.N,GND*%
D20*
X107825000Y-57620000D02*
X114175000Y-57620000D01*
X121795000Y-42380000D02*
X121795000Y-48095000D01*
%TO.N,/DO*%
D21*
X131500000Y-50000000D02*
X132000000Y-50000000D01*
X129500000Y-52000000D02*
X131500000Y-50000000D01*
X126970000Y-52000000D02*
X129500000Y-52000000D01*
X126875000Y-51905000D02*
X126970000Y-52000000D01*
%TO.N,/DI2*%
X102745000Y-59175634D02*
X102745000Y-57620000D01*
X101420634Y-60500000D02*
X102745000Y-59175634D01*
X90675000Y-60500000D02*
X101420634Y-60500000D01*
%TO.N,/DI1*%
X96673148Y-57960000D02*
X90675000Y-57960000D01*
X100633148Y-54000000D02*
X96673148Y-57960000D01*
X108166726Y-54000000D02*
X100633148Y-54000000D01*
X108500000Y-50000000D02*
X109730000Y-51230000D01*
X105987919Y-50000000D02*
X108500000Y-50000000D01*
X105285000Y-49297081D02*
X105987919Y-50000000D01*
X109730000Y-51230000D02*
X109730000Y-52436726D01*
X109730000Y-52436726D02*
X108166726Y-54000000D01*
X105285000Y-48095000D02*
X105285000Y-49297081D01*
%TO.N,/DI*%
X89685000Y-56410000D02*
X88135000Y-57960000D01*
X95923454Y-56410000D02*
X89685000Y-56410000D01*
X97400000Y-54933454D02*
X95923454Y-56410000D01*
X97121320Y-50000000D02*
X97400000Y-50278680D01*
X97400000Y-50278680D02*
X97400000Y-54933454D01*
X95000000Y-50000000D02*
X97121320Y-50000000D01*
%TO.N,/DO2*%
X119310000Y-54445000D02*
X119255000Y-54500000D01*
X126875000Y-54445000D02*
X119310000Y-54445000D01*
X119255000Y-54500000D02*
X119255000Y-57620000D01*
%TO.N,/DO1*%
X118365000Y-49745000D02*
X116715000Y-48095000D01*
X126495000Y-49745000D02*
X118365000Y-49745000D01*
X126875000Y-49365000D02*
X126495000Y-49745000D01*
%TO.N,/DO2*%
X119255000Y-51905000D02*
X119255000Y-54500000D01*
%TO.N,/BO2*%
X116715000Y-51905000D02*
X116715000Y-57620000D01*
%TO.N,/BO1*%
X119255000Y-42380000D02*
X119255000Y-48095000D01*
%TO.N,/DO1*%
X116715000Y-42380000D02*
X116715000Y-48095000D01*
%TO.N,/DI*%
X88135000Y-57960000D02*
X88135000Y-60500000D01*
%TO.N,+12V*%
D20*
X88140000Y-48139999D02*
X88140000Y-41110000D01*
%TO.N,/DO*%
D21*
X129415000Y-47415000D02*
X129415000Y-43015000D01*
X129415000Y-43015000D02*
X131320000Y-41110000D01*
X132000000Y-50000000D02*
X129415000Y-47415000D01*
%TO.N,+12V*%
D20*
X135130000Y-51869999D02*
X135130000Y-44880000D01*
X93500001Y-53500000D02*
X88140000Y-48139999D01*
X95000000Y-53500000D02*
X93500001Y-53500000D01*
X132000000Y-53500000D02*
X133499999Y-53500000D01*
X133499999Y-53500000D02*
X135130000Y-51869999D01*
X133860000Y-43610000D02*
X133860000Y-41110000D01*
X135130000Y-44880000D02*
X133860000Y-43610000D01*
%TO.N,GND*%
X95000000Y-46500000D02*
X98610000Y-46500000D01*
X98610000Y-46500000D02*
X100205000Y-48095000D01*
%TO.N,/DI*%
D21*
X95000000Y-50000000D02*
X90680000Y-45680000D01*
X90680000Y-45680000D02*
X90680000Y-41110000D01*
%TO.N,/DI1*%
X105285000Y-42380000D02*
X105285000Y-48095000D01*
%TO.N,/BI1*%
X102745000Y-42380000D02*
X102745000Y-48095000D01*
%TD*%
%TA.AperFunction,Conductor*%
%TO.N,+12V*%
G36*
X108875439Y-41380956D02*
G01*
X109915213Y-41553377D01*
X109922814Y-41558111D01*
X109924999Y-41564919D01*
X109924999Y-43195080D01*
X109921572Y-43203353D01*
X109915213Y-43206622D01*
X108875441Y-43379042D01*
X108866719Y-43377015D01*
X108865441Y-43375956D01*
X107832841Y-42388456D01*
X107829230Y-42380261D01*
X107832471Y-42371914D01*
X107832841Y-42371544D01*
X108865441Y-41384042D01*
X108873788Y-41380802D01*
X108875439Y-41380956D01*
G37*
%TD.AperFunction*%
%TD*%
%TA.AperFunction,Conductor*%
%TO.N,+12V*%
G36*
X113722336Y-41383422D02*
G01*
X113725625Y-41387660D01*
X114177166Y-42375135D01*
X114177490Y-42384083D01*
X114177166Y-42384865D01*
X113725625Y-43372339D01*
X113719068Y-43378438D01*
X113713746Y-43379108D01*
X112088852Y-43206113D01*
X112080988Y-43201830D01*
X112078391Y-43194479D01*
X112078391Y-41565520D01*
X112081818Y-41557247D01*
X112088851Y-41553886D01*
X113713747Y-41380891D01*
X113722336Y-41383422D01*
G37*
%TD.AperFunction*%
%TD*%
%TA.AperFunction,Conductor*%
%TO.N,GND*%
G36*
X113133378Y-56623028D02*
G01*
X113134437Y-56623927D01*
X114167158Y-57611544D01*
X114170769Y-57619739D01*
X114167528Y-57628086D01*
X114167158Y-57628456D01*
X113134437Y-58616072D01*
X113126090Y-58619313D01*
X113124705Y-58619200D01*
X112085055Y-58471429D01*
X112077346Y-58466872D01*
X112075001Y-58459845D01*
X112075001Y-56780154D01*
X112078428Y-56771881D01*
X112085052Y-56768571D01*
X113124706Y-56620799D01*
X113133378Y-56623028D01*
G37*
%TD.AperFunction*%
%TD*%
%TA.AperFunction,Conductor*%
%TO.N,GND*%
G36*
X109910972Y-56769029D02*
G01*
X109918900Y-56773194D01*
X109921609Y-56780681D01*
X109921609Y-58459318D01*
X109918182Y-58467591D01*
X109910972Y-58470970D01*
X108286133Y-58619246D01*
X108277583Y-58616585D01*
X108274430Y-58612460D01*
X108209731Y-58470970D01*
X107822832Y-57624863D01*
X107822509Y-57615917D01*
X107822822Y-57615158D01*
X108274431Y-56627537D01*
X108280987Y-56621441D01*
X108286131Y-56620753D01*
X109910972Y-56769029D01*
G37*
%TD.AperFunction*%
%TD*%
%TA.AperFunction,Conductor*%
%TO.N,GND*%
G36*
X121799259Y-42385985D02*
G01*
X121800692Y-42386542D01*
X121804909Y-42389361D01*
X122789462Y-43418878D01*
X122791912Y-43422729D01*
X122793265Y-43426213D01*
X122793943Y-43432094D01*
X122646756Y-44467640D01*
X122645246Y-44471945D01*
X122644097Y-44473890D01*
X122637729Y-44479036D01*
X122636646Y-44479397D01*
X122632945Y-44479999D01*
X120957482Y-44479999D01*
X120953002Y-44479107D01*
X120950915Y-44478242D01*
X120944933Y-44472672D01*
X120944420Y-44471646D01*
X120943304Y-44468069D01*
X120935311Y-44411834D01*
X120796126Y-43432592D01*
X120796377Y-43428039D01*
X120797309Y-43424415D01*
X120800182Y-43419248D01*
X121784938Y-42389518D01*
X121788671Y-42386902D01*
X121790305Y-42386182D01*
X121799256Y-42385984D01*
X121799259Y-42385985D01*
G37*
%TD.AperFunction*%
%TD*%
%TA.AperFunction,Conductor*%
%TO.N,/DO*%
G36*
X130625233Y-49507236D02*
G01*
X131769479Y-49717134D01*
X131776998Y-49721997D01*
X131778911Y-49730554D01*
X131501103Y-51407554D01*
X131496370Y-51415156D01*
X131493683Y-51416592D01*
X130372931Y-51838577D01*
X130363981Y-51838285D01*
X130360535Y-51835900D01*
X129665062Y-51140427D01*
X129661635Y-51132154D01*
X129663156Y-51126385D01*
X130581681Y-49507235D01*
X130588744Y-49501731D01*
X130593969Y-49501501D01*
X130625233Y-49507236D01*
G37*
%TD.AperFunction*%
%TD*%
%TA.AperFunction,Conductor*%
%TO.N,/DO*%
G36*
X127418144Y-51246654D02*
G01*
X128559400Y-51497977D01*
X128566742Y-51503103D01*
X128568583Y-51509403D01*
X128568583Y-52489929D01*
X128565156Y-52498202D01*
X128558625Y-52501499D01*
X126888308Y-52752996D01*
X126879617Y-52750839D01*
X126874996Y-52743168D01*
X126874867Y-52741552D01*
X126867620Y-52003831D01*
X126869820Y-51996889D01*
X127406136Y-51251247D01*
X127413747Y-51246534D01*
X127418144Y-51246654D01*
G37*
%TD.AperFunction*%
%TD*%
%TA.AperFunction,Conductor*%
%TO.N,/DI2*%
G36*
X92361681Y-59998004D02*
G01*
X92369042Y-60003103D01*
X92370907Y-60009440D01*
X92370907Y-60990559D01*
X92367480Y-60998832D01*
X92361680Y-61001995D01*
X90932220Y-61311132D01*
X90923410Y-61309531D01*
X90918571Y-61303157D01*
X90670978Y-60503459D01*
X90670978Y-60496540D01*
X90823750Y-60003103D01*
X90918571Y-59696841D01*
X90924291Y-59689953D01*
X90932220Y-59688867D01*
X92361681Y-59998004D01*
G37*
%TD.AperFunction*%
%TD*%
%TA.AperFunction,Conductor*%
%TO.N,/DI1*%
G36*
X90934236Y-57149303D02*
G01*
X92359406Y-57457512D01*
X92363593Y-57459329D01*
X92365644Y-57460749D01*
X92370207Y-57467062D01*
X92370430Y-57467819D01*
X92370907Y-57471125D01*
X92370907Y-58448231D01*
X92370015Y-58452712D01*
X92369059Y-58455018D01*
X92363854Y-58460808D01*
X92363161Y-58461186D01*
X92360031Y-58462351D01*
X90934492Y-58770640D01*
X90929927Y-58770715D01*
X90927886Y-58770344D01*
X90920659Y-58765907D01*
X90919818Y-58764799D01*
X90917960Y-58761185D01*
X90824349Y-58458832D01*
X90671501Y-57965148D01*
X90670978Y-57961688D01*
X90670978Y-57958310D01*
X90671501Y-57954850D01*
X90823750Y-57463103D01*
X90825481Y-57457512D01*
X90917883Y-57159060D01*
X90920054Y-57155054D01*
X90921385Y-57153451D01*
X90928800Y-57149335D01*
X90930182Y-57149146D01*
X90934236Y-57149303D01*
G37*
%TD.AperFunction*%
%TD*%
%TA.AperFunction,Conductor*%
%TO.N,/DO2*%
G36*
X126622112Y-53634654D02*
G01*
X126629338Y-53639090D01*
X126630180Y-53640199D01*
X126632039Y-53643814D01*
X126878498Y-54439850D01*
X126879021Y-54443310D01*
X126879021Y-54446689D01*
X126878498Y-54450149D01*
X126632116Y-55245934D01*
X126629941Y-55249948D01*
X126628615Y-55251545D01*
X126621195Y-55255664D01*
X126619817Y-55255852D01*
X126615762Y-55255695D01*
X125190594Y-54947486D01*
X125186406Y-54945669D01*
X125184354Y-54944248D01*
X125179790Y-54937927D01*
X125179566Y-54937169D01*
X125179093Y-54933873D01*
X125179093Y-53956767D01*
X125179983Y-53952292D01*
X125180938Y-53949985D01*
X125186138Y-53944193D01*
X125186832Y-53943814D01*
X125189959Y-53942648D01*
X126615508Y-53634357D01*
X126620068Y-53634283D01*
X126622112Y-53634654D01*
G37*
%TD.AperFunction*%
%TD*%
%TA.AperFunction,Conductor*%
%TO.N,/DO2*%
G36*
X119754602Y-55526818D02*
G01*
X119757523Y-55531686D01*
X120252022Y-57157332D01*
X120251151Y-57166244D01*
X120245694Y-57171377D01*
X119259866Y-57622166D01*
X119250917Y-57622490D01*
X119250135Y-57622166D01*
X118264306Y-57171377D01*
X118258207Y-57164820D01*
X118257977Y-57157334D01*
X118752477Y-55531686D01*
X118758164Y-55524768D01*
X118763671Y-55523391D01*
X119746329Y-55523391D01*
X119754602Y-55526818D01*
G37*
%TD.AperFunction*%
%TD*%
%TA.AperFunction,Conductor*%
%TO.N,/DO1*%
G36*
X117467688Y-47701235D02*
G01*
X117468799Y-47702079D01*
X117471558Y-47705060D01*
X118207287Y-48846819D01*
X118261367Y-48930743D01*
X118263044Y-48934992D01*
X118263489Y-48937446D01*
X118262252Y-48945130D01*
X118261874Y-48945824D01*
X118259872Y-48948501D01*
X117568954Y-49639419D01*
X117565158Y-49641956D01*
X117562852Y-49642911D01*
X117555069Y-49643324D01*
X117554312Y-49643101D01*
X117551281Y-49641713D01*
X116325281Y-48851700D01*
X116322001Y-48848528D01*
X116320817Y-48846819D01*
X116318843Y-48838566D01*
X116319032Y-48837187D01*
X116320272Y-48833327D01*
X116708887Y-48096161D01*
X116710958Y-48093352D01*
X116713352Y-48090958D01*
X116716161Y-48088887D01*
X117453092Y-47700395D01*
X117457461Y-47699096D01*
X117459533Y-47698904D01*
X117467688Y-47701235D01*
G37*
%TD.AperFunction*%
%TD*%
%TA.AperFunction,Conductor*%
%TO.N,/DO1*%
G36*
X126026747Y-48897986D02*
G01*
X126030513Y-48900506D01*
X126375412Y-49245000D01*
X126872568Y-49741572D01*
X126876000Y-49749843D01*
X126876000Y-50203504D01*
X126872573Y-50211777D01*
X126864506Y-50215202D01*
X125186906Y-50244790D01*
X125178574Y-50241510D01*
X125175002Y-50233298D01*
X125175000Y-50233092D01*
X125175000Y-49252835D01*
X125178427Y-49244562D01*
X125182242Y-49242017D01*
X126017794Y-48897967D01*
X126026747Y-48897986D01*
G37*
%TD.AperFunction*%
%TD*%
%TA.AperFunction,Conductor*%
%TO.N,/DO2*%
G36*
X120058157Y-52148571D02*
G01*
X120065046Y-52154291D01*
X120066132Y-52162220D01*
X119756995Y-53591680D01*
X119751896Y-53599042D01*
X119745559Y-53600907D01*
X118764441Y-53600907D01*
X118756168Y-53597480D01*
X118753005Y-53591680D01*
X118443867Y-52162220D01*
X118445468Y-52153410D01*
X118451840Y-52148571D01*
X119251541Y-51900978D01*
X119258459Y-51900978D01*
X120058157Y-52148571D01*
G37*
%TD.AperFunction*%
%TD*%
%TA.AperFunction,Conductor*%
%TO.N,/BO2*%
G36*
X117208480Y-55524282D02*
G01*
X117211034Y-55525340D01*
X117216586Y-55530125D01*
X117216777Y-55530443D01*
X117217941Y-55533062D01*
X117711344Y-57155105D01*
X117711795Y-57159647D01*
X117711578Y-57161870D01*
X117707948Y-57169257D01*
X117707094Y-57170060D01*
X117703945Y-57172176D01*
X116721982Y-57621198D01*
X116717539Y-57622250D01*
X116713617Y-57622392D01*
X116708329Y-57621340D01*
X115726423Y-57172345D01*
X115722721Y-57169672D01*
X115721198Y-57168034D01*
X115718072Y-57160428D01*
X115718036Y-57159261D01*
X115718536Y-57155495D01*
X115718655Y-57155105D01*
X116211801Y-55533908D01*
X116213953Y-55529890D01*
X116215712Y-55527750D01*
X116221918Y-55523830D01*
X116222283Y-55523739D01*
X116223515Y-55523587D01*
X116223610Y-55523537D01*
X116223700Y-55523564D01*
X116225113Y-55523391D01*
X117204002Y-55523391D01*
X117208480Y-55524282D01*
G37*
%TD.AperFunction*%
%TD*%
%TA.AperFunction,Conductor*%
%TO.N,/BO2*%
G36*
X116720148Y-51901501D02*
G01*
X117515934Y-52147883D01*
X117519948Y-52150058D01*
X117521546Y-52151385D01*
X117525663Y-52158803D01*
X117525851Y-52160180D01*
X117525695Y-52164236D01*
X117217486Y-53589405D01*
X117215669Y-53593593D01*
X117214248Y-53595645D01*
X117207939Y-53600206D01*
X117207183Y-53600429D01*
X117203873Y-53600907D01*
X116226768Y-53600907D01*
X116222288Y-53600015D01*
X116221469Y-53599676D01*
X116219981Y-53599059D01*
X116214191Y-53593854D01*
X116213813Y-53593161D01*
X116212648Y-53590031D01*
X115904358Y-52164492D01*
X115904282Y-52159935D01*
X115904655Y-52157882D01*
X115909093Y-52150657D01*
X115910200Y-52149817D01*
X115913809Y-52147961D01*
X116709852Y-51901501D01*
X116713312Y-51900978D01*
X116716688Y-51900978D01*
X116720148Y-51901501D01*
G37*
%TD.AperFunction*%
%TD*%
%TA.AperFunction,Conductor*%
%TO.N,/BO1*%
G36*
X119259850Y-42377827D02*
G01*
X120245693Y-42828621D01*
X120251792Y-42835178D01*
X120252022Y-42842666D01*
X119757523Y-44468314D01*
X119751836Y-44475232D01*
X119746329Y-44476609D01*
X118763671Y-44476609D01*
X118755398Y-44473182D01*
X118752477Y-44468314D01*
X118630306Y-44066684D01*
X118257977Y-42842664D01*
X118258848Y-42833754D01*
X118264304Y-42828622D01*
X119250136Y-42377832D01*
X119259083Y-42377509D01*
X119259850Y-42377827D01*
G37*
%TD.AperFunction*%
%TD*%
%TA.AperFunction,Conductor*%
%TO.N,/BO1*%
G36*
X119747710Y-46399984D02*
G01*
X119750015Y-46400939D01*
X119755808Y-46406145D01*
X119756186Y-46406838D01*
X119757351Y-46409968D01*
X120065640Y-47835506D01*
X120065715Y-47840071D01*
X120065344Y-47842112D01*
X120060908Y-47849338D01*
X120059799Y-47850180D01*
X120056184Y-47852039D01*
X119260149Y-48098498D01*
X119256689Y-48099021D01*
X119253311Y-48099021D01*
X119249851Y-48098498D01*
X118454064Y-47852116D01*
X118450052Y-47849942D01*
X118448452Y-47848613D01*
X118444335Y-47841197D01*
X118444146Y-47839816D01*
X118444303Y-47835762D01*
X118752513Y-46410592D01*
X118754328Y-46406408D01*
X118755752Y-46404352D01*
X118762075Y-46399789D01*
X118762834Y-46399566D01*
X118766127Y-46399093D01*
X119743232Y-46399093D01*
X119747710Y-46399984D01*
G37*
%TD.AperFunction*%
%TD*%
%TA.AperFunction,Conductor*%
%TO.N,/DO1*%
G36*
X117213832Y-46402520D02*
G01*
X117216995Y-46408320D01*
X117526132Y-47837779D01*
X117524531Y-47846589D01*
X117518156Y-47851429D01*
X116718460Y-48099021D01*
X116711540Y-48099021D01*
X115911843Y-47851429D01*
X115904953Y-47845708D01*
X115903867Y-47837779D01*
X116213005Y-46408320D01*
X116218104Y-46400958D01*
X116224441Y-46399093D01*
X117205559Y-46399093D01*
X117213832Y-46402520D01*
G37*
%TD.AperFunction*%
%TD*%
%TA.AperFunction,Conductor*%
%TO.N,/DO1*%
G36*
X116721666Y-42378657D02*
G01*
X117703574Y-42827652D01*
X117707277Y-42830325D01*
X117708800Y-42831963D01*
X117711926Y-42839570D01*
X117711962Y-42840739D01*
X117711462Y-42844504D01*
X117218200Y-44466087D01*
X117216044Y-44470112D01*
X117214289Y-44472247D01*
X117208118Y-44476160D01*
X117207754Y-44476252D01*
X117204887Y-44476609D01*
X116225998Y-44476609D01*
X116221518Y-44475717D01*
X116218963Y-44474658D01*
X116213413Y-44469874D01*
X116213222Y-44469556D01*
X116212708Y-44468400D01*
X116212633Y-44468325D01*
X116212633Y-44468230D01*
X116212058Y-44466937D01*
X116211799Y-44466087D01*
X116090306Y-44066684D01*
X115718652Y-42844885D01*
X115718203Y-42840348D01*
X115718420Y-42838124D01*
X115722048Y-42830744D01*
X115722907Y-42829935D01*
X115726050Y-42827823D01*
X116708019Y-42378799D01*
X116712459Y-42377748D01*
X116716381Y-42377606D01*
X116721666Y-42378657D01*
G37*
%TD.AperFunction*%
%TD*%
%TA.AperFunction,Conductor*%
%TO.N,/DI*%
G36*
X88633832Y-58807520D02*
G01*
X88636995Y-58813320D01*
X88946132Y-60242779D01*
X88944531Y-60251589D01*
X88938156Y-60256429D01*
X88138460Y-60504021D01*
X88131540Y-60504021D01*
X87331843Y-60256429D01*
X87324953Y-60250708D01*
X87323867Y-60242779D01*
X87633005Y-58813320D01*
X87638104Y-58805958D01*
X87644441Y-58804093D01*
X88625559Y-58804093D01*
X88633832Y-58807520D01*
G37*
%TD.AperFunction*%
%TD*%
%TA.AperFunction,Conductor*%
%TO.N,/DI*%
G36*
X88143266Y-57967276D02*
G01*
X88979491Y-58804484D01*
X88982913Y-58812759D01*
X88982032Y-58817207D01*
X88637983Y-59652755D01*
X88631664Y-59659100D01*
X88627164Y-59660000D01*
X87642836Y-59660000D01*
X87634563Y-59656573D01*
X87632017Y-59652755D01*
X87533717Y-59414027D01*
X87287967Y-58817205D01*
X87287986Y-58808252D01*
X87290504Y-58804488D01*
X88126723Y-57967286D01*
X88134993Y-57963855D01*
X88143266Y-57967276D01*
G37*
%TD.AperFunction*%
%TD*%
%TA.AperFunction,Conductor*%
%TO.N,/DO*%
G36*
X130579849Y-40714311D02*
G01*
X131320396Y-41104709D01*
X131325290Y-41109603D01*
X131715687Y-41850149D01*
X131716514Y-41859065D01*
X131711674Y-41865440D01*
X130482300Y-42657627D01*
X130473490Y-42659228D01*
X130467690Y-42656065D01*
X129773934Y-41962309D01*
X129770507Y-41954036D01*
X129772372Y-41947699D01*
X129835232Y-41850149D01*
X130564560Y-40718323D01*
X130571921Y-40713226D01*
X130579849Y-40714311D01*
G37*
%TD.AperFunction*%
%TD*%
%TA.AperFunction,Conductor*%
%TO.N,/DO*%
G36*
X130596487Y-47885429D02*
G01*
X131912513Y-48501663D01*
X131918552Y-48508275D01*
X131919232Y-48511596D01*
X132003232Y-49990888D01*
X132000280Y-49999342D01*
X131992214Y-50003232D01*
X131990888Y-50003232D01*
X130511596Y-49919232D01*
X130503530Y-49915342D01*
X130501663Y-49912513D01*
X129885429Y-48596487D01*
X129885024Y-48587541D01*
X129887750Y-48583254D01*
X130583253Y-47887751D01*
X130591525Y-47884325D01*
X130596487Y-47885429D01*
G37*
%TD.AperFunction*%
%TD*%
%TA.AperFunction,Conductor*%
%TO.N,+12V*%
G36*
X93400409Y-52193531D02*
G01*
X93674534Y-52264636D01*
X93681681Y-52270030D01*
X93682519Y-52271768D01*
X94557072Y-54550178D01*
X94556837Y-54559130D01*
X94550342Y-54565294D01*
X94550079Y-54565391D01*
X93791422Y-54835958D01*
X93782479Y-54835509D01*
X93779633Y-54833606D01*
X92200955Y-53402185D01*
X92197128Y-53394089D01*
X92200146Y-53385658D01*
X92200520Y-53385265D01*
X93389202Y-52196583D01*
X93397474Y-52193157D01*
X93400409Y-52193531D01*
G37*
%TD.AperFunction*%
%TD*%
%TA.AperFunction,Conductor*%
%TO.N,+12V*%
G36*
X133608456Y-52194772D02*
G01*
X133610798Y-52196584D01*
X134799458Y-53385244D01*
X134802885Y-53393517D01*
X134799458Y-53401790D01*
X134799044Y-53402185D01*
X133220366Y-54833606D01*
X133211935Y-54836624D01*
X133208577Y-54835958D01*
X132449920Y-54565391D01*
X132443279Y-54559384D01*
X132442830Y-54550441D01*
X132442927Y-54550178D01*
X133317480Y-52271766D01*
X133323643Y-52265273D01*
X133325457Y-52264638D01*
X133599588Y-52193532D01*
X133608456Y-52194772D01*
G37*
%TD.AperFunction*%
%TD*%
%TA.AperFunction,Conductor*%
%TO.N,GND*%
G36*
X96565584Y-45548979D02*
G01*
X97482628Y-45648614D01*
X97486981Y-45649984D01*
X97488864Y-45651015D01*
X97494279Y-45657385D01*
X97494710Y-45658607D01*
X97495376Y-45662499D01*
X97495376Y-47337173D01*
X97494484Y-47341654D01*
X97493661Y-47343639D01*
X97487911Y-47349708D01*
X97486747Y-47350266D01*
X97482953Y-47351348D01*
X96122265Y-47499185D01*
X96117718Y-47498783D01*
X96115374Y-47498097D01*
X96113859Y-47497654D01*
X96109352Y-47495154D01*
X95005890Y-46510277D01*
X95003144Y-46506631D01*
X95002368Y-46505023D01*
X95001861Y-46496094D01*
X95002271Y-46494920D01*
X95005523Y-46490050D01*
X95934958Y-45660498D01*
X96109164Y-45505012D01*
X96113091Y-45502698D01*
X96116896Y-45501370D01*
X96122008Y-45500785D01*
X96565584Y-45548979D01*
G37*
%TD.AperFunction*%
%TD*%
%TA.AperFunction,Conductor*%
%TO.N,/DI*%
G36*
X93596487Y-47885429D02*
G01*
X94912513Y-48501663D01*
X94918552Y-48508275D01*
X94919232Y-48511596D01*
X95003232Y-49990888D01*
X95000280Y-49999342D01*
X94992214Y-50003232D01*
X94990888Y-50003232D01*
X93511596Y-49919232D01*
X93503530Y-49915342D01*
X93501663Y-49912513D01*
X92885429Y-48596487D01*
X92885024Y-48587541D01*
X92887750Y-48583254D01*
X93583253Y-47887751D01*
X93591525Y-47884325D01*
X93596487Y-47885429D01*
G37*
%TD.AperFunction*%
%TD*%
%TA.AperFunction,Conductor*%
%TO.N,/DI*%
G36*
X91483157Y-41353571D02*
G01*
X91490046Y-41359291D01*
X91491132Y-41367220D01*
X91181995Y-42796680D01*
X91176896Y-42804042D01*
X91170559Y-42805907D01*
X90189441Y-42805907D01*
X90181168Y-42802480D01*
X90178005Y-42796680D01*
X89868867Y-41367220D01*
X89870468Y-41358410D01*
X89876840Y-41353571D01*
X90676541Y-41105978D01*
X90683459Y-41105978D01*
X91483157Y-41353571D01*
G37*
%TD.AperFunction*%
%TD*%
%TA.AperFunction,Conductor*%
%TO.N,/DI1*%
G36*
X105289850Y-42377827D02*
G01*
X106275693Y-42828621D01*
X106281792Y-42835178D01*
X106282022Y-42842666D01*
X105787523Y-44468314D01*
X105781836Y-44475232D01*
X105776329Y-44476609D01*
X104793671Y-44476609D01*
X104785398Y-44473182D01*
X104782477Y-44468314D01*
X104660306Y-44066684D01*
X104287977Y-42842664D01*
X104288848Y-42833754D01*
X104294304Y-42828622D01*
X105280136Y-42377832D01*
X105289083Y-42377509D01*
X105289850Y-42377827D01*
G37*
%TD.AperFunction*%
%TD*%
%TA.AperFunction,Conductor*%
%TO.N,/DI1*%
G36*
X105783832Y-46402520D02*
G01*
X105786995Y-46408320D01*
X106096132Y-47837779D01*
X106094531Y-47846589D01*
X106088156Y-47851429D01*
X105288460Y-48099021D01*
X105281540Y-48099021D01*
X104481843Y-47851429D01*
X104474953Y-47845708D01*
X104473867Y-47837779D01*
X104783005Y-46408320D01*
X104788104Y-46400958D01*
X104794441Y-46399093D01*
X105775559Y-46399093D01*
X105783832Y-46402520D01*
G37*
%TD.AperFunction*%
%TD*%
%TA.AperFunction,Conductor*%
%TO.N,/BI1*%
G36*
X102751666Y-42378657D02*
G01*
X103733574Y-42827652D01*
X103737277Y-42830325D01*
X103738800Y-42831963D01*
X103741926Y-42839570D01*
X103741962Y-42840739D01*
X103741462Y-42844504D01*
X103248200Y-44466087D01*
X103246044Y-44470112D01*
X103244289Y-44472247D01*
X103238118Y-44476160D01*
X103237754Y-44476252D01*
X103234887Y-44476609D01*
X102255998Y-44476609D01*
X102251518Y-44475717D01*
X102248963Y-44474658D01*
X102243413Y-44469874D01*
X102243222Y-44469556D01*
X102242708Y-44468400D01*
X102242633Y-44468325D01*
X102242633Y-44468230D01*
X102242058Y-44466937D01*
X102241799Y-44466087D01*
X102120306Y-44066684D01*
X101748652Y-42844885D01*
X101748203Y-42840348D01*
X101748420Y-42838124D01*
X101752048Y-42830744D01*
X101752907Y-42829935D01*
X101756050Y-42827823D01*
X102738019Y-42378799D01*
X102742459Y-42377748D01*
X102746381Y-42377606D01*
X102751666Y-42378657D01*
G37*
%TD.AperFunction*%
%TD*%
%TA.AperFunction,Conductor*%
%TO.N,/BI1*%
G36*
X103237710Y-46399984D02*
G01*
X103240015Y-46400939D01*
X103245808Y-46406145D01*
X103246186Y-46406838D01*
X103247351Y-46409968D01*
X103555640Y-47835506D01*
X103555715Y-47840071D01*
X103555344Y-47842112D01*
X103550908Y-47849338D01*
X103549799Y-47850180D01*
X103546184Y-47852039D01*
X102750149Y-48098498D01*
X102746689Y-48099021D01*
X102743311Y-48099021D01*
X102739851Y-48098498D01*
X101944064Y-47852116D01*
X101940052Y-47849942D01*
X101938452Y-47848613D01*
X101934335Y-47841197D01*
X101934146Y-47839816D01*
X101934303Y-47835762D01*
X102242513Y-46410592D01*
X102244328Y-46406408D01*
X102245752Y-46404352D01*
X102252075Y-46399789D01*
X102252834Y-46399566D01*
X102256127Y-46399093D01*
X103233232Y-46399093D01*
X103237710Y-46399984D01*
G37*
%TD.AperFunction*%
%TD*%
M02*
