%TF.GenerationSoftware,KiCad,Pcbnew,10.0.3*%
%TF.CreationDate,2026-06-24T14:13:27-07:00*%
%TF.ProjectId,Tenseract_JBox,54656e73-6572-4616-9374-5f4a426f782e,1.0*%
%TF.SameCoordinates,Original*%
%TF.FileFunction,Soldermask,Bot*%
%TF.FilePolarity,Negative*%
%FSLAX46Y46*%
G04 Gerber Fmt 4.6, Leading zero omitted, Abs format (unit mm)*
G04 Created by KiCad (PCBNEW 10.0.3) date 2026-06-24 14:13:27*
%MOMM*%
%LPD*%
G01*
G04 APERTURE LIST*
G04 Aperture macros list*
%AMRoundRect*
0 Rectangle with rounded corners*
0 $1 Rounding radius*
0 $2 $3 $4 $5 $6 $7 $8 $9 X,Y pos of 4 corners*
0 Add a 4 corners polygon primitive as box body*
4,1,4,$2,$3,$4,$5,$6,$7,$8,$9,$2,$3,0*
0 Add four circle primitives for the rounded corners*
1,1,$1+$1,$2,$3*
1,1,$1+$1,$4,$5*
1,1,$1+$1,$6,$7*
1,1,$1+$1,$8,$9*
0 Add four rect primitives between the rounded corners*
20,1,$1+$1,$2,$3,$4,$5,0*
20,1,$1+$1,$4,$5,$6,$7,0*
20,1,$1+$1,$6,$7,$8,$9,0*
20,1,$1+$1,$8,$9,$2,$3,0*%
G04 Aperture macros list end*
%ADD10R,1.700000X1.700000*%
%ADD11C,1.700000*%
%ADD12C,1.400000*%
%ADD13RoundRect,0.750000X-0.750000X0.750000X-0.750000X-0.750000X0.750000X-0.750000X0.750000X0.750000X0*%
%ADD14C,3.000000*%
%ADD15C,0.500000*%
%ADD16RoundRect,0.750000X0.750000X-0.750000X0.750000X0.750000X-0.750000X0.750000X-0.750000X-0.750000X0*%
%ADD17RoundRect,0.249999X0.850001X0.850001X-0.850001X0.850001X-0.850001X-0.850001X0.850001X-0.850001X0*%
%ADD18C,2.200000*%
%ADD19RoundRect,0.249999X-0.850001X-0.850001X0.850001X-0.850001X0.850001X0.850001X-0.850001X0.850001X0*%
G04 APERTURE END LIST*
D10*
%TO.C,J14*%
X119120000Y-46190000D03*
D11*
X116580000Y-46190000D03*
X114040000Y-46190000D03*
%TD*%
D10*
%TO.C,J12*%
X114040000Y-58890000D03*
D11*
X116580000Y-58890000D03*
X119120000Y-58890000D03*
X121660000Y-58890000D03*
%TD*%
D10*
%TO.C,J7*%
X105420000Y-48730000D03*
D11*
X107960000Y-48730000D03*
X105420000Y-51270000D03*
X107960000Y-51270000D03*
%TD*%
D12*
%TO.C,J8*%
X136500000Y-43500000D03*
X136500000Y-56500000D03*
D13*
X131500000Y-53500000D03*
D14*
X131500000Y-50000000D03*
X131500000Y-46500000D03*
%TD*%
D15*
%TO.C,REF\u002A\u002A*%
X111750000Y-43350000D03*
X111750000Y-42500000D03*
X111750000Y-41650000D03*
%TD*%
D10*
%TO.C,J10*%
X121660000Y-41110000D03*
D11*
X119120000Y-41110000D03*
X116580000Y-41110000D03*
X114040000Y-41110000D03*
%TD*%
D12*
%TO.C,J1*%
X85500000Y-56500000D03*
X85500000Y-43500000D03*
D16*
X95500000Y-53500000D03*
D14*
X95500000Y-50000000D03*
X95500000Y-46500000D03*
%TD*%
D10*
%TO.C,J6*%
X100340000Y-53810000D03*
D11*
X100340000Y-51270000D03*
X100340000Y-48730000D03*
X100340000Y-46190000D03*
%TD*%
D15*
%TO.C,REF\u002A\u002A*%
X110250000Y-43350000D03*
X110250000Y-42500000D03*
X110250000Y-41650000D03*
%TD*%
D17*
%TO.C,J2*%
X96530000Y-39840000D03*
D18*
X93990000Y-39840000D03*
X91450000Y-39840000D03*
X88910000Y-39840000D03*
%TD*%
D15*
%TO.C,REF\u002A\u002A*%
X110250000Y-58350000D03*
X110250000Y-57500000D03*
X110250000Y-56650000D03*
%TD*%
D19*
%TO.C,J11*%
X125470000Y-60160000D03*
D18*
X128010000Y-60160000D03*
X130550000Y-60160000D03*
X133090000Y-60160000D03*
%TD*%
%TO.C,REF\u002A\u002A*%
X139500000Y-58000000D03*
%TD*%
D19*
%TO.C,J4*%
X88910000Y-60160000D03*
D18*
X91450000Y-60160000D03*
X93990000Y-60160000D03*
X96530000Y-60160000D03*
%TD*%
D10*
%TO.C,J15*%
X119120000Y-53810000D03*
D11*
X116580000Y-53810000D03*
X114040000Y-53810000D03*
%TD*%
D15*
%TO.C,REF\u002A\u002A*%
X111750000Y-58350000D03*
X111750000Y-57500000D03*
X111750000Y-56650000D03*
%TD*%
D17*
%TO.C,J9*%
X133090000Y-39840000D03*
D18*
X130550000Y-39840000D03*
X128010000Y-39840000D03*
X125470000Y-39840000D03*
%TD*%
D10*
%TO.C,J13*%
X126105000Y-53810000D03*
D11*
X126105000Y-51270000D03*
X126105000Y-48730000D03*
X126105000Y-46190000D03*
%TD*%
D18*
%TO.C,REF\u002A\u002A*%
X82500000Y-58000000D03*
%TD*%
%TO.C,REF\u002A\u002A*%
X139500000Y-42000000D03*
%TD*%
%TO.C,REF\u002A\u002A*%
X82500000Y-42000000D03*
%TD*%
D10*
%TO.C,J3*%
X107960000Y-41110000D03*
D11*
X105420000Y-41110000D03*
X102880000Y-41110000D03*
X100340000Y-41110000D03*
%TD*%
D10*
%TO.C,J5*%
X100340000Y-58890000D03*
D11*
X102880000Y-58890000D03*
X105420000Y-58890000D03*
X107960000Y-58890000D03*
%TD*%
M02*
