M48
; DRILL file KiCad 10.0.3 date 2026-06-24T15:10:01
; FORMAT={-:-/ absolute / metric / decimal}
; #@! TF.CreationDate,2026-06-24T15:10:01-07:00
; #@! TF.GenerationSoftware,Kicad,Pcbnew,10.0.3
; #@! TF.FileFunction,Plated,1,2,PTH
FMAT,2
METRIC
; #@! TA.AperFunction,Plated,PTH,ComponentDrill
T1C1.000
; #@! TA.AperFunction,Plated,PTH,ComponentDrill
T2C1.100
; #@! TA.AperFunction,Plated,PTH,ComponentDrill
T3C1.900
%
G90
G05
T1
X85.5Y-43.5
X85.5Y-56.5
X100.34Y-41.11
X100.34Y-46.19
X100.34Y-48.73
X100.34Y-51.27
X100.34Y-53.81
X100.34Y-58.89
X102.88Y-41.11
X102.88Y-58.89
X105.42Y-41.11
X105.42Y-48.73
X105.42Y-51.27
X105.42Y-58.89
X107.96Y-41.11
X107.96Y-48.73
X107.96Y-51.27
X107.96Y-58.89
X114.04Y-41.11
X114.04Y-46.19
X114.04Y-53.81
X114.04Y-58.89
X116.58Y-41.11
X116.58Y-46.19
X116.58Y-53.81
X116.58Y-58.89
X119.12Y-41.11
X119.12Y-46.19
X119.12Y-53.81
X119.12Y-58.89
X121.66Y-41.11
X121.66Y-58.89
X126.105Y-46.19
X126.105Y-48.73
X126.105Y-51.27
X126.105Y-53.81
X136.5Y-43.5
X136.5Y-56.5
T2
X88.91Y-39.84
X88.91Y-60.16
X91.45Y-39.84
X91.45Y-60.16
X93.99Y-39.84
X93.99Y-60.16
X96.53Y-39.84
X96.53Y-60.16
X125.47Y-39.84
X125.47Y-60.16
X128.01Y-39.84
X128.01Y-60.16
X130.55Y-39.84
X130.55Y-60.16
X133.09Y-39.84
X133.09Y-60.16
T3
X95.5Y-46.5
X95.5Y-50.0
X95.5Y-53.5
X131.5Y-46.5
X131.5Y-50.0
X131.5Y-53.5
M30
