%TF.GenerationSoftware,KiCad,Pcbnew,10.0.3*%
%TF.CreationDate,2026-06-24T19:52:02-07:00*%
%TF.ProjectId,Tenseract_JBox,54656e73-6572-4616-9374-5f4a426f782e,1.0*%
%TF.SameCoordinates,Original*%
%TF.FileFunction,Copper,L1,Top*%
%TF.FilePolarity,Positive*%
%FSLAX46Y46*%
G04 Gerber Fmt 4.6, Leading zero omitted, Abs format (unit mm)*
G04 Created by KiCad (PCBNEW 10.0.3) date 2026-06-24 19:52:02*
%MOMM*%
%LPD*%
G01*
G04 APERTURE LIST*
G04 Aperture macros list*
%AMRoundRect*
0 Rectangle with rounded corners*
0 $1 Rounding radius*
0 $2 $3 $4 $5 $6 $7 $8 $9 X,Y pos of 4 corners*
0 Add a 4 corners polygon primitive as box body*
4,1,4,$2,$3,$4,$5,$6,$7,$8,$9,$2,$3,0*
0 Add four circle primitives for the rounded corners*
1,1,$1+$1,$2,$3*
1,1,$1+$1,$4,$5*
1,1,$1+$1,$6,$7*
1,1,$1+$1,$8,$9*
0 Add four rect primitives between the rounded corners*
20,1,$1+$1,$2,$3,$4,$5,0*
20,1,$1+$1,$4,$5,$6,$7,0*
20,1,$1+$1,$6,$7,$8,$9,0*
20,1,$1+$1,$8,$9,$2,$3,0*%
G04 Aperture macros list end*
%TA.AperFunction,ComponentPad*%
%ADD10RoundRect,0.249999X0.850001X0.850001X-0.850001X0.850001X-0.850001X-0.850001X0.850001X-0.850001X0*%
%TD*%
%TA.AperFunction,ComponentPad*%
%ADD11C,2.200000*%
%TD*%
%TA.AperFunction,ComponentPad*%
%ADD12R,1.700000X1.700000*%
%TD*%
%TA.AperFunction,ComponentPad*%
%ADD13C,1.700000*%
%TD*%
%TA.AperFunction,ComponentPad*%
%ADD14RoundRect,0.249999X-0.850001X-0.850001X0.850001X-0.850001X0.850001X0.850001X-0.850001X0.850001X0*%
%TD*%
%TA.AperFunction,ComponentPad*%
%ADD15C,1.400000*%
%TD*%
%TA.AperFunction,ComponentPad*%
%ADD16RoundRect,0.750000X-0.750000X0.750000X-0.750000X-0.750000X0.750000X-0.750000X0.750000X0.750000X0*%
%TD*%
%TA.AperFunction,ComponentPad*%
%ADD17C,3.000000*%
%TD*%
%TA.AperFunction,Conductor*%
%ADD18C,1.800000*%
%TD*%
%TA.AperFunction,Conductor*%
%ADD19C,0.800000*%
%TD*%
G04 APERTURE END LIST*
D10*
%TO.P,J9,1,Pin_1_1*%
%TO.N,GND*%
X133090000Y-39840000D03*
D11*
%TO.P,J9,2,Pin_2_2*%
%TO.N,/BO1*%
X130550000Y-39840000D03*
%TO.P,J9,3,Pin_3_3*%
%TO.N,/DO1*%
X128010000Y-39840000D03*
%TO.P,J9,4,Pin_4_4*%
%TO.N,+12V*%
X125470000Y-39840000D03*
%TD*%
D12*
%TO.P,J15,1,Pin_1_1*%
%TO.N,/DO2*%
X119120000Y-53810000D03*
D13*
%TO.P,J15,2,Pin_2_2*%
%TO.N,/DO*%
X116580000Y-53810000D03*
%TO.P,J15,3,Pin_3_3*%
%TO.N,/BO2*%
X114040000Y-53810000D03*
%TD*%
D12*
%TO.P,J10,1,Pin_1_1*%
%TO.N,GND*%
X121660000Y-41110000D03*
D13*
%TO.P,J10,2,Pin_2_2*%
%TO.N,/BO1*%
X119120000Y-41110000D03*
%TO.P,J10,3,Pin_3_3*%
%TO.N,/DO1*%
X116580000Y-41110000D03*
%TO.P,J10,4,Pin_4_4*%
%TO.N,+12V*%
X114040000Y-41110000D03*
%TD*%
D14*
%TO.P,J11,1,Pin_1_1*%
%TO.N,GND*%
X125470000Y-60160000D03*
D11*
%TO.P,J11,2,Pin_2_2*%
%TO.N,/BO2*%
X128010000Y-60160000D03*
%TO.P,J11,3,Pin_3_3*%
%TO.N,/DO2*%
X130550000Y-60160000D03*
%TO.P,J11,4,Pin_4_4*%
%TO.N,+12V*%
X133090000Y-60160000D03*
%TD*%
D12*
%TO.P,J13,1,Pin_1_1*%
%TO.N,+12V*%
X126105000Y-53810000D03*
D13*
%TO.P,J13,2,Pin_2_2*%
%TO.N,/DO*%
X126105000Y-51270000D03*
%TO.P,J13,3,Pin_3_3*%
%TO.N,unconnected-(J13-Pin_3-Pad3)*%
X126105000Y-48730000D03*
%TO.P,J13,4,Pin_4_4*%
%TO.N,GND*%
X126105000Y-46190000D03*
%TD*%
D15*
%TO.P,J8,*%
%TO.N,*%
X136500000Y-43500000D03*
X136500000Y-56500000D03*
D16*
%TO.P,J8,1,Pin_1_1*%
%TO.N,+12V*%
X131500000Y-53500000D03*
D17*
%TO.P,J8,2,Pin_2_2*%
%TO.N,/DO*%
X131500000Y-50000000D03*
%TO.P,J8,3,Pin_3_3*%
%TO.N,GND*%
X131500000Y-46500000D03*
%TD*%
D12*
%TO.P,J14,1,Pin_1_1*%
%TO.N,/BO1*%
X119120000Y-46190000D03*
D13*
%TO.P,J14,2,Pin_2_2*%
%TO.N,/DO*%
X116580000Y-46190000D03*
%TO.P,J14,3,Pin_3_3*%
%TO.N,/DO1*%
X114040000Y-46190000D03*
%TD*%
D12*
%TO.P,J12,1,Pin_1_1*%
%TO.N,GND*%
X114040000Y-58890000D03*
D13*
%TO.P,J12,2,Pin_2_2*%
%TO.N,/BO2*%
X116580000Y-58890000D03*
%TO.P,J12,3,Pin_3_3*%
%TO.N,/DO2*%
X119120000Y-58890000D03*
%TO.P,J12,4,Pin_4_4*%
%TO.N,+12V*%
X121660000Y-58890000D03*
%TD*%
%TO.N,+12V*%
D18*
X131190000Y-53810000D02*
X131500000Y-53500000D01*
X125470000Y-39840000D02*
X125470000Y-43650000D01*
X121660000Y-56350000D02*
X121660000Y-58890000D01*
X124200000Y-53810000D02*
X121660000Y-56350000D01*
X114040000Y-43650000D02*
X114040000Y-41110000D01*
X134360000Y-58890000D02*
X134360000Y-43650000D01*
X133090000Y-60160000D02*
X134360000Y-58890000D01*
X134360000Y-43650000D02*
X114040000Y-43650000D01*
X125470000Y-53810000D02*
X124200000Y-53810000D01*
X131500000Y-53500000D02*
X133400000Y-53500000D01*
%TO.N,/DO*%
D19*
X122295000Y-51270000D02*
X126105000Y-51270000D01*
X131500000Y-50000000D02*
X127375000Y-50000000D01*
X127375000Y-50000000D02*
X126105000Y-51270000D01*
%TO.N,/BO1*%
X130550000Y-39840000D02*
X130550000Y-37935000D01*
%TO.N,/DO*%
X121025000Y-50000000D02*
X122295000Y-51270000D01*
%TO.N,/BO1*%
X130550000Y-37935000D02*
X119120000Y-37935000D01*
%TO.N,/DO2*%
X130550000Y-60160000D02*
X130550000Y-62065000D01*
X119120000Y-62065000D02*
X119120000Y-58890000D01*
%TO.N,/BO1*%
X119120000Y-37935000D02*
X119120000Y-41110000D01*
%TO.N,/DO*%
X116580000Y-53810000D02*
X116580000Y-50000000D01*
%TO.N,/DO2*%
X119120000Y-58890000D02*
X119120000Y-53810000D01*
%TO.N,/DO*%
X116580000Y-46190000D02*
X116580000Y-50000000D01*
%TO.N,+12V*%
D18*
X125470000Y-53810000D02*
X131190000Y-53810000D01*
%TO.N,/DO2*%
D19*
X130550000Y-62065000D02*
X119120000Y-62065000D01*
%TO.N,/BO2*%
X116580000Y-56350000D02*
X114040000Y-53810000D01*
X116580000Y-58890000D02*
X116580000Y-56350000D01*
%TO.N,/DO*%
X116580000Y-50000000D02*
X121025000Y-50000000D01*
%TD*%
M02*
