%TF.GenerationSoftware,KiCad,Pcbnew,10.0.3*%
%TF.CreationDate,2026-06-24T19:52:02-07:00*%
%TF.ProjectId,Tenseract_JBox,54656e73-6572-4616-9374-5f4a426f782e,1.0*%
%TF.SameCoordinates,Original*%
%TF.FileFunction,Legend,Bot*%
%TF.FilePolarity,Positive*%
%FSLAX46Y46*%
G04 Gerber Fmt 4.6, Leading zero omitted, Abs format (unit mm)*
G04 Created by KiCad (PCBNEW 10.0.3) date 2026-06-24 19:52:02*
%MOMM*%
%LPD*%
G01*
G04 APERTURE LIST*
%ADD10C,0.200000*%
%ADD11C,0.150000*%
G04 APERTURE END LIST*
D10*
X138952219Y-44571428D02*
X138952219Y-45142856D01*
X139952219Y-44857142D02*
X138952219Y-44857142D01*
X139904600Y-45857142D02*
X139952219Y-45761904D01*
X139952219Y-45761904D02*
X139952219Y-45571428D01*
X139952219Y-45571428D02*
X139904600Y-45476190D01*
X139904600Y-45476190D02*
X139809361Y-45428571D01*
X139809361Y-45428571D02*
X139428409Y-45428571D01*
X139428409Y-45428571D02*
X139333171Y-45476190D01*
X139333171Y-45476190D02*
X139285552Y-45571428D01*
X139285552Y-45571428D02*
X139285552Y-45761904D01*
X139285552Y-45761904D02*
X139333171Y-45857142D01*
X139333171Y-45857142D02*
X139428409Y-45904761D01*
X139428409Y-45904761D02*
X139523647Y-45904761D01*
X139523647Y-45904761D02*
X139618885Y-45428571D01*
X139285552Y-46333333D02*
X139952219Y-46333333D01*
X139380790Y-46333333D02*
X139333171Y-46380952D01*
X139333171Y-46380952D02*
X139285552Y-46476190D01*
X139285552Y-46476190D02*
X139285552Y-46619047D01*
X139285552Y-46619047D02*
X139333171Y-46714285D01*
X139333171Y-46714285D02*
X139428409Y-46761904D01*
X139428409Y-46761904D02*
X139952219Y-46761904D01*
X139904600Y-47190476D02*
X139952219Y-47285714D01*
X139952219Y-47285714D02*
X139952219Y-47476190D01*
X139952219Y-47476190D02*
X139904600Y-47571428D01*
X139904600Y-47571428D02*
X139809361Y-47619047D01*
X139809361Y-47619047D02*
X139761742Y-47619047D01*
X139761742Y-47619047D02*
X139666504Y-47571428D01*
X139666504Y-47571428D02*
X139618885Y-47476190D01*
X139618885Y-47476190D02*
X139618885Y-47333333D01*
X139618885Y-47333333D02*
X139571266Y-47238095D01*
X139571266Y-47238095D02*
X139476028Y-47190476D01*
X139476028Y-47190476D02*
X139428409Y-47190476D01*
X139428409Y-47190476D02*
X139333171Y-47238095D01*
X139333171Y-47238095D02*
X139285552Y-47333333D01*
X139285552Y-47333333D02*
X139285552Y-47476190D01*
X139285552Y-47476190D02*
X139333171Y-47571428D01*
X139904600Y-48428571D02*
X139952219Y-48333333D01*
X139952219Y-48333333D02*
X139952219Y-48142857D01*
X139952219Y-48142857D02*
X139904600Y-48047619D01*
X139904600Y-48047619D02*
X139809361Y-48000000D01*
X139809361Y-48000000D02*
X139428409Y-48000000D01*
X139428409Y-48000000D02*
X139333171Y-48047619D01*
X139333171Y-48047619D02*
X139285552Y-48142857D01*
X139285552Y-48142857D02*
X139285552Y-48333333D01*
X139285552Y-48333333D02*
X139333171Y-48428571D01*
X139333171Y-48428571D02*
X139428409Y-48476190D01*
X139428409Y-48476190D02*
X139523647Y-48476190D01*
X139523647Y-48476190D02*
X139618885Y-48000000D01*
X139952219Y-48904762D02*
X139285552Y-48904762D01*
X139476028Y-48904762D02*
X139380790Y-48952381D01*
X139380790Y-48952381D02*
X139333171Y-49000000D01*
X139333171Y-49000000D02*
X139285552Y-49095238D01*
X139285552Y-49095238D02*
X139285552Y-49190476D01*
X139952219Y-49952381D02*
X139428409Y-49952381D01*
X139428409Y-49952381D02*
X139333171Y-49904762D01*
X139333171Y-49904762D02*
X139285552Y-49809524D01*
X139285552Y-49809524D02*
X139285552Y-49619048D01*
X139285552Y-49619048D02*
X139333171Y-49523810D01*
X139904600Y-49952381D02*
X139952219Y-49857143D01*
X139952219Y-49857143D02*
X139952219Y-49619048D01*
X139952219Y-49619048D02*
X139904600Y-49523810D01*
X139904600Y-49523810D02*
X139809361Y-49476191D01*
X139809361Y-49476191D02*
X139714123Y-49476191D01*
X139714123Y-49476191D02*
X139618885Y-49523810D01*
X139618885Y-49523810D02*
X139571266Y-49619048D01*
X139571266Y-49619048D02*
X139571266Y-49857143D01*
X139571266Y-49857143D02*
X139523647Y-49952381D01*
X139904600Y-50857143D02*
X139952219Y-50761905D01*
X139952219Y-50761905D02*
X139952219Y-50571429D01*
X139952219Y-50571429D02*
X139904600Y-50476191D01*
X139904600Y-50476191D02*
X139856980Y-50428572D01*
X139856980Y-50428572D02*
X139761742Y-50380953D01*
X139761742Y-50380953D02*
X139476028Y-50380953D01*
X139476028Y-50380953D02*
X139380790Y-50428572D01*
X139380790Y-50428572D02*
X139333171Y-50476191D01*
X139333171Y-50476191D02*
X139285552Y-50571429D01*
X139285552Y-50571429D02*
X139285552Y-50761905D01*
X139285552Y-50761905D02*
X139333171Y-50857143D01*
X139285552Y-51142858D02*
X139285552Y-51523810D01*
X138952219Y-51285715D02*
X139809361Y-51285715D01*
X139809361Y-51285715D02*
X139904600Y-51333334D01*
X139904600Y-51333334D02*
X139952219Y-51428572D01*
X139952219Y-51428572D02*
X139952219Y-51523810D01*
X139285552Y-52523811D02*
X139952219Y-52761906D01*
X139952219Y-52761906D02*
X139285552Y-53000001D01*
X139952219Y-53904763D02*
X139952219Y-53333335D01*
X139952219Y-53619049D02*
X138952219Y-53619049D01*
X138952219Y-53619049D02*
X139095076Y-53523811D01*
X139095076Y-53523811D02*
X139190314Y-53428573D01*
X139190314Y-53428573D02*
X139237933Y-53333335D01*
X139856980Y-54333335D02*
X139904600Y-54380954D01*
X139904600Y-54380954D02*
X139952219Y-54333335D01*
X139952219Y-54333335D02*
X139904600Y-54285716D01*
X139904600Y-54285716D02*
X139856980Y-54333335D01*
X139856980Y-54333335D02*
X139952219Y-54333335D01*
X138952219Y-55000001D02*
X138952219Y-55095239D01*
X138952219Y-55095239D02*
X138999838Y-55190477D01*
X138999838Y-55190477D02*
X139047457Y-55238096D01*
X139047457Y-55238096D02*
X139142695Y-55285715D01*
X139142695Y-55285715D02*
X139333171Y-55333334D01*
X139333171Y-55333334D02*
X139571266Y-55333334D01*
X139571266Y-55333334D02*
X139761742Y-55285715D01*
X139761742Y-55285715D02*
X139856980Y-55238096D01*
X139856980Y-55238096D02*
X139904600Y-55190477D01*
X139904600Y-55190477D02*
X139952219Y-55095239D01*
X139952219Y-55095239D02*
X139952219Y-55000001D01*
X139952219Y-55000001D02*
X139904600Y-54904763D01*
X139904600Y-54904763D02*
X139856980Y-54857144D01*
X139856980Y-54857144D02*
X139761742Y-54809525D01*
X139761742Y-54809525D02*
X139571266Y-54761906D01*
X139571266Y-54761906D02*
X139333171Y-54761906D01*
X139333171Y-54761906D02*
X139142695Y-54809525D01*
X139142695Y-54809525D02*
X139047457Y-54857144D01*
X139047457Y-54857144D02*
X138999838Y-54904763D01*
X138999838Y-54904763D02*
X138952219Y-55000001D01*
D11*
X117217731Y-43092800D02*
X117122493Y-43045180D01*
X117122493Y-43045180D02*
X116932017Y-43045180D01*
X116932017Y-43045180D02*
X116836779Y-43092800D01*
X116836779Y-43092800D02*
X116789160Y-43188038D01*
X116789160Y-43188038D02*
X116789160Y-43568990D01*
X116789160Y-43568990D02*
X116836779Y-43664228D01*
X116836779Y-43664228D02*
X116932017Y-43711847D01*
X116932017Y-43711847D02*
X117122493Y-43711847D01*
X117122493Y-43711847D02*
X117217731Y-43664228D01*
X117217731Y-43664228D02*
X117265350Y-43568990D01*
X117265350Y-43568990D02*
X117265350Y-43473752D01*
X117265350Y-43473752D02*
X116789160Y-43378514D01*
X117693922Y-43045180D02*
X117693922Y-43711847D01*
X117693922Y-43521371D02*
X117741541Y-43616609D01*
X117741541Y-43616609D02*
X117789160Y-43664228D01*
X117789160Y-43664228D02*
X117884398Y-43711847D01*
X117884398Y-43711847D02*
X117979636Y-43711847D01*
X118312970Y-43045180D02*
X118312970Y-43711847D01*
X118312970Y-44045180D02*
X118265351Y-43997561D01*
X118265351Y-43997561D02*
X118312970Y-43949942D01*
X118312970Y-43949942D02*
X118360589Y-43997561D01*
X118360589Y-43997561D02*
X118312970Y-44045180D01*
X118312970Y-44045180D02*
X118312970Y-43949942D01*
X119217731Y-43092800D02*
X119122493Y-43045180D01*
X119122493Y-43045180D02*
X118932017Y-43045180D01*
X118932017Y-43045180D02*
X118836779Y-43092800D01*
X118836779Y-43092800D02*
X118789160Y-43140419D01*
X118789160Y-43140419D02*
X118741541Y-43235657D01*
X118741541Y-43235657D02*
X118741541Y-43521371D01*
X118741541Y-43521371D02*
X118789160Y-43616609D01*
X118789160Y-43616609D02*
X118836779Y-43664228D01*
X118836779Y-43664228D02*
X118932017Y-43711847D01*
X118932017Y-43711847D02*
X119122493Y-43711847D01*
X119122493Y-43711847D02*
X119217731Y-43664228D01*
X120074874Y-43045180D02*
X120074874Y-43568990D01*
X120074874Y-43568990D02*
X120027255Y-43664228D01*
X120027255Y-43664228D02*
X119932017Y-43711847D01*
X119932017Y-43711847D02*
X119741541Y-43711847D01*
X119741541Y-43711847D02*
X119646303Y-43664228D01*
X120074874Y-43092800D02*
X119979636Y-43045180D01*
X119979636Y-43045180D02*
X119741541Y-43045180D01*
X119741541Y-43045180D02*
X119646303Y-43092800D01*
X119646303Y-43092800D02*
X119598684Y-43188038D01*
X119598684Y-43188038D02*
X119598684Y-43283276D01*
X119598684Y-43283276D02*
X119646303Y-43378514D01*
X119646303Y-43378514D02*
X119741541Y-43426133D01*
X119741541Y-43426133D02*
X119979636Y-43426133D01*
X119979636Y-43426133D02*
X120074874Y-43473752D01*
X120551065Y-43711847D02*
X120551065Y-43045180D01*
X120551065Y-43616609D02*
X120598684Y-43664228D01*
X120598684Y-43664228D02*
X120693922Y-43711847D01*
X120693922Y-43711847D02*
X120836779Y-43711847D01*
X120836779Y-43711847D02*
X120932017Y-43664228D01*
X120932017Y-43664228D02*
X120979636Y-43568990D01*
X120979636Y-43568990D02*
X120979636Y-43045180D01*
X121884398Y-43045180D02*
X121884398Y-43568990D01*
X121884398Y-43568990D02*
X121836779Y-43664228D01*
X121836779Y-43664228D02*
X121741541Y-43711847D01*
X121741541Y-43711847D02*
X121551065Y-43711847D01*
X121551065Y-43711847D02*
X121455827Y-43664228D01*
X121884398Y-43092800D02*
X121789160Y-43045180D01*
X121789160Y-43045180D02*
X121551065Y-43045180D01*
X121551065Y-43045180D02*
X121455827Y-43092800D01*
X121455827Y-43092800D02*
X121408208Y-43188038D01*
X121408208Y-43188038D02*
X121408208Y-43283276D01*
X121408208Y-43283276D02*
X121455827Y-43378514D01*
X121455827Y-43378514D02*
X121551065Y-43426133D01*
X121551065Y-43426133D02*
X121789160Y-43426133D01*
X121789160Y-43426133D02*
X121884398Y-43473752D01*
X122312970Y-43092800D02*
X122408208Y-43045180D01*
X122408208Y-43045180D02*
X122598684Y-43045180D01*
X122598684Y-43045180D02*
X122693922Y-43092800D01*
X122693922Y-43092800D02*
X122741541Y-43188038D01*
X122741541Y-43188038D02*
X122741541Y-43235657D01*
X122741541Y-43235657D02*
X122693922Y-43330895D01*
X122693922Y-43330895D02*
X122598684Y-43378514D01*
X122598684Y-43378514D02*
X122455827Y-43378514D01*
X122455827Y-43378514D02*
X122360589Y-43426133D01*
X122360589Y-43426133D02*
X122312970Y-43521371D01*
X122312970Y-43521371D02*
X122312970Y-43568990D01*
X122312970Y-43568990D02*
X122360589Y-43664228D01*
X122360589Y-43664228D02*
X122455827Y-43711847D01*
X122455827Y-43711847D02*
X122598684Y-43711847D01*
X122598684Y-43711847D02*
X122693922Y-43664228D01*
X123027256Y-43711847D02*
X123408208Y-43711847D01*
X123170113Y-44045180D02*
X123170113Y-43188038D01*
X123170113Y-43188038D02*
X123217732Y-43092800D01*
X123217732Y-43092800D02*
X123312970Y-43045180D01*
X123312970Y-43045180D02*
X123408208Y-43045180D01*
X124170113Y-43045180D02*
X124170113Y-43568990D01*
X124170113Y-43568990D02*
X124122494Y-43664228D01*
X124122494Y-43664228D02*
X124027256Y-43711847D01*
X124027256Y-43711847D02*
X123836780Y-43711847D01*
X123836780Y-43711847D02*
X123741542Y-43664228D01*
X124170113Y-43092800D02*
X124074875Y-43045180D01*
X124074875Y-43045180D02*
X123836780Y-43045180D01*
X123836780Y-43045180D02*
X123741542Y-43092800D01*
X123741542Y-43092800D02*
X123693923Y-43188038D01*
X123693923Y-43188038D02*
X123693923Y-43283276D01*
X123693923Y-43283276D02*
X123741542Y-43378514D01*
X123741542Y-43378514D02*
X123836780Y-43426133D01*
X123836780Y-43426133D02*
X124074875Y-43426133D01*
X124074875Y-43426133D02*
X124170113Y-43473752D01*
X124598685Y-43092800D02*
X124693923Y-43045180D01*
X124693923Y-43045180D02*
X124884399Y-43045180D01*
X124884399Y-43045180D02*
X124979637Y-43092800D01*
X124979637Y-43092800D02*
X125027256Y-43188038D01*
X125027256Y-43188038D02*
X125027256Y-43235657D01*
X125027256Y-43235657D02*
X124979637Y-43330895D01*
X124979637Y-43330895D02*
X124884399Y-43378514D01*
X124884399Y-43378514D02*
X124741542Y-43378514D01*
X124741542Y-43378514D02*
X124646304Y-43426133D01*
X124646304Y-43426133D02*
X124598685Y-43521371D01*
X124598685Y-43521371D02*
X124598685Y-43568990D01*
X124598685Y-43568990D02*
X124646304Y-43664228D01*
X124646304Y-43664228D02*
X124741542Y-43711847D01*
X124741542Y-43711847D02*
X124884399Y-43711847D01*
X124884399Y-43711847D02*
X124979637Y-43664228D01*
X125455828Y-43140419D02*
X125503447Y-43092800D01*
X125503447Y-43092800D02*
X125455828Y-43045180D01*
X125455828Y-43045180D02*
X125408209Y-43092800D01*
X125408209Y-43092800D02*
X125455828Y-43140419D01*
X125455828Y-43140419D02*
X125455828Y-43045180D01*
X126360589Y-43092800D02*
X126265351Y-43045180D01*
X126265351Y-43045180D02*
X126074875Y-43045180D01*
X126074875Y-43045180D02*
X125979637Y-43092800D01*
X125979637Y-43092800D02*
X125932018Y-43140419D01*
X125932018Y-43140419D02*
X125884399Y-43235657D01*
X125884399Y-43235657D02*
X125884399Y-43521371D01*
X125884399Y-43521371D02*
X125932018Y-43616609D01*
X125932018Y-43616609D02*
X125979637Y-43664228D01*
X125979637Y-43664228D02*
X126074875Y-43711847D01*
X126074875Y-43711847D02*
X126265351Y-43711847D01*
X126265351Y-43711847D02*
X126360589Y-43664228D01*
X126932018Y-43045180D02*
X126836780Y-43092800D01*
X126836780Y-43092800D02*
X126789161Y-43140419D01*
X126789161Y-43140419D02*
X126741542Y-43235657D01*
X126741542Y-43235657D02*
X126741542Y-43521371D01*
X126741542Y-43521371D02*
X126789161Y-43616609D01*
X126789161Y-43616609D02*
X126836780Y-43664228D01*
X126836780Y-43664228D02*
X126932018Y-43711847D01*
X126932018Y-43711847D02*
X127074875Y-43711847D01*
X127074875Y-43711847D02*
X127170113Y-43664228D01*
X127170113Y-43664228D02*
X127217732Y-43616609D01*
X127217732Y-43616609D02*
X127265351Y-43521371D01*
X127265351Y-43521371D02*
X127265351Y-43235657D01*
X127265351Y-43235657D02*
X127217732Y-43140419D01*
X127217732Y-43140419D02*
X127170113Y-43092800D01*
X127170113Y-43092800D02*
X127074875Y-43045180D01*
X127074875Y-43045180D02*
X126932018Y-43045180D01*
X127693923Y-43045180D02*
X127693923Y-43711847D01*
X127693923Y-43616609D02*
X127741542Y-43664228D01*
X127741542Y-43664228D02*
X127836780Y-43711847D01*
X127836780Y-43711847D02*
X127979637Y-43711847D01*
X127979637Y-43711847D02*
X128074875Y-43664228D01*
X128074875Y-43664228D02*
X128122494Y-43568990D01*
X128122494Y-43568990D02*
X128122494Y-43045180D01*
X128122494Y-43568990D02*
X128170113Y-43664228D01*
X128170113Y-43664228D02*
X128265351Y-43711847D01*
X128265351Y-43711847D02*
X128408208Y-43711847D01*
X128408208Y-43711847D02*
X128503447Y-43664228D01*
X128503447Y-43664228D02*
X128551066Y-43568990D01*
X128551066Y-43568990D02*
X128551066Y-43045180D01*
X116693922Y-56711847D02*
X117074874Y-56711847D01*
X116836779Y-57045180D02*
X116836779Y-56188038D01*
X116836779Y-56188038D02*
X116884398Y-56092800D01*
X116884398Y-56092800D02*
X116979636Y-56045180D01*
X116979636Y-56045180D02*
X117074874Y-56045180D01*
X117789160Y-56092800D02*
X117693922Y-56045180D01*
X117693922Y-56045180D02*
X117503446Y-56045180D01*
X117503446Y-56045180D02*
X117408208Y-56092800D01*
X117408208Y-56092800D02*
X117360589Y-56188038D01*
X117360589Y-56188038D02*
X117360589Y-56568990D01*
X117360589Y-56568990D02*
X117408208Y-56664228D01*
X117408208Y-56664228D02*
X117503446Y-56711847D01*
X117503446Y-56711847D02*
X117693922Y-56711847D01*
X117693922Y-56711847D02*
X117789160Y-56664228D01*
X117789160Y-56664228D02*
X117836779Y-56568990D01*
X117836779Y-56568990D02*
X117836779Y-56473752D01*
X117836779Y-56473752D02*
X117360589Y-56378514D01*
X118265351Y-56711847D02*
X118265351Y-56045180D01*
X118265351Y-56616609D02*
X118312970Y-56664228D01*
X118312970Y-56664228D02*
X118408208Y-56711847D01*
X118408208Y-56711847D02*
X118551065Y-56711847D01*
X118551065Y-56711847D02*
X118646303Y-56664228D01*
X118646303Y-56664228D02*
X118693922Y-56568990D01*
X118693922Y-56568990D02*
X118693922Y-56045180D01*
X119122494Y-56092800D02*
X119217732Y-56045180D01*
X119217732Y-56045180D02*
X119408208Y-56045180D01*
X119408208Y-56045180D02*
X119503446Y-56092800D01*
X119503446Y-56092800D02*
X119551065Y-56188038D01*
X119551065Y-56188038D02*
X119551065Y-56235657D01*
X119551065Y-56235657D02*
X119503446Y-56330895D01*
X119503446Y-56330895D02*
X119408208Y-56378514D01*
X119408208Y-56378514D02*
X119265351Y-56378514D01*
X119265351Y-56378514D02*
X119170113Y-56426133D01*
X119170113Y-56426133D02*
X119122494Y-56521371D01*
X119122494Y-56521371D02*
X119122494Y-56568990D01*
X119122494Y-56568990D02*
X119170113Y-56664228D01*
X119170113Y-56664228D02*
X119265351Y-56711847D01*
X119265351Y-56711847D02*
X119408208Y-56711847D01*
X119408208Y-56711847D02*
X119503446Y-56664228D01*
X120360589Y-56092800D02*
X120265351Y-56045180D01*
X120265351Y-56045180D02*
X120074875Y-56045180D01*
X120074875Y-56045180D02*
X119979637Y-56092800D01*
X119979637Y-56092800D02*
X119932018Y-56188038D01*
X119932018Y-56188038D02*
X119932018Y-56568990D01*
X119932018Y-56568990D02*
X119979637Y-56664228D01*
X119979637Y-56664228D02*
X120074875Y-56711847D01*
X120074875Y-56711847D02*
X120265351Y-56711847D01*
X120265351Y-56711847D02*
X120360589Y-56664228D01*
X120360589Y-56664228D02*
X120408208Y-56568990D01*
X120408208Y-56568990D02*
X120408208Y-56473752D01*
X120408208Y-56473752D02*
X119932018Y-56378514D01*
X120836780Y-56045180D02*
X120836780Y-56711847D01*
X120836780Y-56521371D02*
X120884399Y-56616609D01*
X120884399Y-56616609D02*
X120932018Y-56664228D01*
X120932018Y-56664228D02*
X121027256Y-56711847D01*
X121027256Y-56711847D02*
X121122494Y-56711847D01*
X121884399Y-56045180D02*
X121884399Y-56568990D01*
X121884399Y-56568990D02*
X121836780Y-56664228D01*
X121836780Y-56664228D02*
X121741542Y-56711847D01*
X121741542Y-56711847D02*
X121551066Y-56711847D01*
X121551066Y-56711847D02*
X121455828Y-56664228D01*
X121884399Y-56092800D02*
X121789161Y-56045180D01*
X121789161Y-56045180D02*
X121551066Y-56045180D01*
X121551066Y-56045180D02*
X121455828Y-56092800D01*
X121455828Y-56092800D02*
X121408209Y-56188038D01*
X121408209Y-56188038D02*
X121408209Y-56283276D01*
X121408209Y-56283276D02*
X121455828Y-56378514D01*
X121455828Y-56378514D02*
X121551066Y-56426133D01*
X121551066Y-56426133D02*
X121789161Y-56426133D01*
X121789161Y-56426133D02*
X121884399Y-56473752D01*
X122789161Y-56092800D02*
X122693923Y-56045180D01*
X122693923Y-56045180D02*
X122503447Y-56045180D01*
X122503447Y-56045180D02*
X122408209Y-56092800D01*
X122408209Y-56092800D02*
X122360590Y-56140419D01*
X122360590Y-56140419D02*
X122312971Y-56235657D01*
X122312971Y-56235657D02*
X122312971Y-56521371D01*
X122312971Y-56521371D02*
X122360590Y-56616609D01*
X122360590Y-56616609D02*
X122408209Y-56664228D01*
X122408209Y-56664228D02*
X122503447Y-56711847D01*
X122503447Y-56711847D02*
X122693923Y-56711847D01*
X122693923Y-56711847D02*
X122789161Y-56664228D01*
X123074876Y-56711847D02*
X123455828Y-56711847D01*
X123217733Y-57045180D02*
X123217733Y-56188038D01*
X123217733Y-56188038D02*
X123265352Y-56092800D01*
X123265352Y-56092800D02*
X123360590Y-56045180D01*
X123360590Y-56045180D02*
X123455828Y-56045180D01*
X123789162Y-56140419D02*
X123836781Y-56092800D01*
X123836781Y-56092800D02*
X123789162Y-56045180D01*
X123789162Y-56045180D02*
X123741543Y-56092800D01*
X123741543Y-56092800D02*
X123789162Y-56140419D01*
X123789162Y-56140419D02*
X123789162Y-56045180D01*
X124693923Y-56045180D02*
X124693923Y-56568990D01*
X124693923Y-56568990D02*
X124646304Y-56664228D01*
X124646304Y-56664228D02*
X124551066Y-56711847D01*
X124551066Y-56711847D02*
X124360590Y-56711847D01*
X124360590Y-56711847D02*
X124265352Y-56664228D01*
X124693923Y-56092800D02*
X124598685Y-56045180D01*
X124598685Y-56045180D02*
X124360590Y-56045180D01*
X124360590Y-56045180D02*
X124265352Y-56092800D01*
X124265352Y-56092800D02*
X124217733Y-56188038D01*
X124217733Y-56188038D02*
X124217733Y-56283276D01*
X124217733Y-56283276D02*
X124265352Y-56378514D01*
X124265352Y-56378514D02*
X124360590Y-56426133D01*
X124360590Y-56426133D02*
X124598685Y-56426133D01*
X124598685Y-56426133D02*
X124693923Y-56473752D01*
X125170114Y-56045180D02*
X125170114Y-56711847D01*
X125170114Y-56521371D02*
X125217733Y-56616609D01*
X125217733Y-56616609D02*
X125265352Y-56664228D01*
X125265352Y-56664228D02*
X125360590Y-56711847D01*
X125360590Y-56711847D02*
X125455828Y-56711847D01*
X125646305Y-56711847D02*
X126027257Y-56711847D01*
X125789162Y-57045180D02*
X125789162Y-56188038D01*
X125789162Y-56188038D02*
X125836781Y-56092800D01*
X125836781Y-56092800D02*
X125932019Y-56045180D01*
X125932019Y-56045180D02*
X126027257Y-56045180D01*
M02*
