%TF.GenerationSoftware,KiCad,Pcbnew,10.0.3*%
%TF.CreationDate,2026-06-24T19:53:23-07:00*%
%TF.ProjectId,Tenseract_JBox,54656e73-6572-4616-9374-5f4a426f782e,1.0*%
%TF.SameCoordinates,Original*%
%TF.FileFunction,Copper,L2,Bot*%
%TF.FilePolarity,Positive*%
%FSLAX46Y46*%
G04 Gerber Fmt 4.6, Leading zero omitted, Abs format (unit mm)*
G04 Created by KiCad (PCBNEW 10.0.3) date 2026-06-24 19:53:23*
%MOMM*%
%LPD*%
G01*
G04 APERTURE LIST*
G04 Aperture macros list*
%AMRoundRect*
0 Rectangle with rounded corners*
0 $1 Rounding radius*
0 $2 $3 $4 $5 $6 $7 $8 $9 X,Y pos of 4 corners*
0 Add a 4 corners polygon primitive as box body*
4,1,4,$2,$3,$4,$5,$6,$7,$8,$9,$2,$3,0*
0 Add four circle primitives for the rounded corners*
1,1,$1+$1,$2,$3*
1,1,$1+$1,$4,$5*
1,1,$1+$1,$6,$7*
1,1,$1+$1,$8,$9*
0 Add four rect primitives between the rounded corners*
20,1,$1+$1,$2,$3,$4,$5,0*
20,1,$1+$1,$4,$5,$6,$7,0*
20,1,$1+$1,$6,$7,$8,$9,0*
20,1,$1+$1,$8,$9,$2,$3,0*%
G04 Aperture macros list end*
%TA.AperFunction,ComponentPad*%
%ADD10R,1.700000X1.700000*%
%TD*%
%TA.AperFunction,ComponentPad*%
%ADD11C,1.700000*%
%TD*%
%TA.AperFunction,ComponentPad*%
%ADD12RoundRect,0.249999X-0.850001X-0.850001X0.850001X-0.850001X0.850001X0.850001X-0.850001X0.850001X0*%
%TD*%
%TA.AperFunction,ComponentPad*%
%ADD13C,2.200000*%
%TD*%
%TA.AperFunction,ComponentPad*%
%ADD14C,1.400000*%
%TD*%
%TA.AperFunction,ComponentPad*%
%ADD15RoundRect,0.750000X0.750000X-0.750000X0.750000X0.750000X-0.750000X0.750000X-0.750000X-0.750000X0*%
%TD*%
%TA.AperFunction,ComponentPad*%
%ADD16C,3.000000*%
%TD*%
%TA.AperFunction,ComponentPad*%
%ADD17RoundRect,0.249999X0.850001X0.850001X-0.850001X0.850001X-0.850001X-0.850001X0.850001X-0.850001X0*%
%TD*%
%TA.AperFunction,Conductor*%
%ADD18C,0.800000*%
%TD*%
%TA.AperFunction,Conductor*%
%ADD19C,1.800000*%
%TD*%
G04 APERTURE END LIST*
D10*
%TO.P,J5,1,Pin_1_1*%
%TO.N,+12V*%
X100340000Y-58890000D03*
D11*
%TO.P,J5,2,Pin_2_2*%
%TO.N,/DI2*%
X102880000Y-58890000D03*
%TO.P,J5,3,Pin_3_3*%
%TO.N,/BI2*%
X105420000Y-58890000D03*
%TO.P,J5,4,Pin_4_4*%
%TO.N,GND*%
X107960000Y-58890000D03*
%TD*%
D10*
%TO.P,J3,1,Pin_1_1*%
%TO.N,+12V*%
X107960000Y-41110000D03*
D11*
%TO.P,J3,2,Pin_2_2*%
%TO.N,/DI1*%
X105420000Y-41110000D03*
%TO.P,J3,3,Pin_3_3*%
%TO.N,/BI1*%
X102880000Y-41110000D03*
%TO.P,J3,4,Pin_4_4*%
%TO.N,GND*%
X100340000Y-41110000D03*
%TD*%
D12*
%TO.P,J4,1,Pin_1_1*%
%TO.N,+12V*%
X88910000Y-60160000D03*
D13*
%TO.P,J4,2,Pin_2_2*%
%TO.N,/DI2*%
X91450000Y-60160000D03*
%TO.P,J4,3,Pin_3_3*%
%TO.N,/BI2*%
X93990000Y-60160000D03*
%TO.P,J4,4,Pin_4_4*%
%TO.N,GND*%
X96530000Y-60160000D03*
%TD*%
D14*
%TO.P,J1,*%
%TO.N,*%
X85500000Y-56500000D03*
X85500000Y-43500000D03*
D15*
%TO.P,J1,1,Pin_1_1*%
%TO.N,+12V*%
X95500000Y-53500000D03*
D16*
%TO.P,J1,2,Pin_2_2*%
%TO.N,/DI*%
X95500000Y-50000000D03*
%TO.P,J1,3,Pin_3_3*%
%TO.N,GND*%
X95500000Y-46500000D03*
%TD*%
D17*
%TO.P,J2,1,Pin_1_1*%
%TO.N,+12V*%
X96530000Y-39840000D03*
D13*
%TO.P,J2,2,Pin_2_2*%
%TO.N,/DI1*%
X93990000Y-39840000D03*
%TO.P,J2,3,Pin_3_3*%
%TO.N,/BI1*%
X91450000Y-39840000D03*
%TO.P,J2,4,Pin_4_4*%
%TO.N,GND*%
X88910000Y-39840000D03*
%TD*%
D10*
%TO.P,J6,1,Pin_1_1*%
%TO.N,+12V*%
X100340000Y-53810000D03*
D11*
%TO.P,J6,2,Pin_2_2*%
%TO.N,/DI*%
X100340000Y-51270000D03*
%TO.P,J6,3,Pin_3_3*%
%TO.N,unconnected-(J6-Pin_3-Pad3)*%
X100340000Y-48730000D03*
%TO.P,J6,4,Pin_4_4*%
%TO.N,GND*%
X100340000Y-46190000D03*
%TD*%
D10*
%TO.P,J7,1,Pin_1_1*%
%TO.N,/DI*%
X105420000Y-48730000D03*
D11*
%TO.P,J7,2,Pin_2_2*%
%TO.N,/DI1*%
X107960000Y-48730000D03*
%TO.P,J7,3,Pin_3_3*%
%TO.N,/DI*%
X105420000Y-51270000D03*
%TO.P,J7,4,Pin_4_4*%
%TO.N,/DI2*%
X107960000Y-51270000D03*
%TD*%
%TO.N,/DI1*%
D18*
X105420000Y-43967500D02*
X105420000Y-41110000D01*
%TO.N,/BI1*%
X91450000Y-39840000D02*
X91450000Y-37900000D01*
%TO.N,/BI2*%
X93990000Y-62100000D02*
X105420000Y-62100000D01*
%TO.N,/BI1*%
X102880000Y-37935000D02*
X102880000Y-41110000D01*
X102845000Y-37900000D02*
X102880000Y-37935000D01*
%TO.N,/BI2*%
X93990000Y-60160000D02*
X93990000Y-62100000D01*
X105420000Y-62100000D02*
X105420000Y-58890000D01*
%TO.N,/DI1*%
X107960000Y-48730000D02*
X107960000Y-46507500D01*
%TO.N,/BI1*%
X91450000Y-37900000D02*
X102845000Y-37900000D01*
%TO.N,/DI1*%
X107960000Y-46507500D02*
X105420000Y-43967500D01*
%TO.N,GND*%
D19*
X96530000Y-56350000D02*
X92720000Y-56350000D01*
X92720000Y-56350000D02*
X92720000Y-46500000D01*
X95500000Y-46500000D02*
X95500000Y-45950000D01*
X88910000Y-43015000D02*
X92395000Y-46500000D01*
X95500000Y-45950000D02*
X100340000Y-41110000D01*
X107960000Y-56350000D02*
X107960000Y-58890000D01*
X100030000Y-46500000D02*
X100340000Y-46190000D01*
X96530000Y-60160000D02*
X96530000Y-56350000D01*
X88910000Y-39840000D02*
X88910000Y-43015000D01*
X92395000Y-46500000D02*
X92720000Y-46500000D01*
X96530000Y-56350000D02*
X107960000Y-56350000D01*
X95500000Y-46500000D02*
X100030000Y-46500000D01*
X92720000Y-46500000D02*
X95500000Y-46500000D01*
%TD*%
M02*
