%TF.GenerationSoftware,KiCad,Pcbnew,10.0.3*%
%TF.CreationDate,2026-06-24T19:53:23-07:00*%
%TF.ProjectId,Tenseract_JBox,54656e73-6572-4616-9374-5f4a426f782e,1.0*%
%TF.SameCoordinates,Original*%
%TF.FileFunction,Legend,Bot*%
%TF.FilePolarity,Positive*%
%FSLAX46Y46*%
G04 Gerber Fmt 4.6, Leading zero omitted, Abs format (unit mm)*
G04 Created by KiCad (PCBNEW 10.0.3) date 2026-06-24 19:53:23*
%MOMM*%
%LPD*%
G01*
G04 APERTURE LIST*
%ADD10C,0.200000*%
%ADD11C,0.150000*%
G04 APERTURE END LIST*
D10*
X83047780Y-55428571D02*
X83047780Y-54857143D01*
X82047780Y-55142857D02*
X83047780Y-55142857D01*
X82095400Y-54142857D02*
X82047780Y-54238095D01*
X82047780Y-54238095D02*
X82047780Y-54428571D01*
X82047780Y-54428571D02*
X82095400Y-54523809D01*
X82095400Y-54523809D02*
X82190638Y-54571428D01*
X82190638Y-54571428D02*
X82571590Y-54571428D01*
X82571590Y-54571428D02*
X82666828Y-54523809D01*
X82666828Y-54523809D02*
X82714447Y-54428571D01*
X82714447Y-54428571D02*
X82714447Y-54238095D01*
X82714447Y-54238095D02*
X82666828Y-54142857D01*
X82666828Y-54142857D02*
X82571590Y-54095238D01*
X82571590Y-54095238D02*
X82476352Y-54095238D01*
X82476352Y-54095238D02*
X82381114Y-54571428D01*
X82714447Y-53666666D02*
X82047780Y-53666666D01*
X82619209Y-53666666D02*
X82666828Y-53619047D01*
X82666828Y-53619047D02*
X82714447Y-53523809D01*
X82714447Y-53523809D02*
X82714447Y-53380952D01*
X82714447Y-53380952D02*
X82666828Y-53285714D01*
X82666828Y-53285714D02*
X82571590Y-53238095D01*
X82571590Y-53238095D02*
X82047780Y-53238095D01*
X82095400Y-52809523D02*
X82047780Y-52714285D01*
X82047780Y-52714285D02*
X82047780Y-52523809D01*
X82047780Y-52523809D02*
X82095400Y-52428571D01*
X82095400Y-52428571D02*
X82190638Y-52380952D01*
X82190638Y-52380952D02*
X82238257Y-52380952D01*
X82238257Y-52380952D02*
X82333495Y-52428571D01*
X82333495Y-52428571D02*
X82381114Y-52523809D01*
X82381114Y-52523809D02*
X82381114Y-52666666D01*
X82381114Y-52666666D02*
X82428733Y-52761904D01*
X82428733Y-52761904D02*
X82523971Y-52809523D01*
X82523971Y-52809523D02*
X82571590Y-52809523D01*
X82571590Y-52809523D02*
X82666828Y-52761904D01*
X82666828Y-52761904D02*
X82714447Y-52666666D01*
X82714447Y-52666666D02*
X82714447Y-52523809D01*
X82714447Y-52523809D02*
X82666828Y-52428571D01*
X82095400Y-51571428D02*
X82047780Y-51666666D01*
X82047780Y-51666666D02*
X82047780Y-51857142D01*
X82047780Y-51857142D02*
X82095400Y-51952380D01*
X82095400Y-51952380D02*
X82190638Y-51999999D01*
X82190638Y-51999999D02*
X82571590Y-51999999D01*
X82571590Y-51999999D02*
X82666828Y-51952380D01*
X82666828Y-51952380D02*
X82714447Y-51857142D01*
X82714447Y-51857142D02*
X82714447Y-51666666D01*
X82714447Y-51666666D02*
X82666828Y-51571428D01*
X82666828Y-51571428D02*
X82571590Y-51523809D01*
X82571590Y-51523809D02*
X82476352Y-51523809D01*
X82476352Y-51523809D02*
X82381114Y-51999999D01*
X82047780Y-51095237D02*
X82714447Y-51095237D01*
X82523971Y-51095237D02*
X82619209Y-51047618D01*
X82619209Y-51047618D02*
X82666828Y-50999999D01*
X82666828Y-50999999D02*
X82714447Y-50904761D01*
X82714447Y-50904761D02*
X82714447Y-50809523D01*
X82047780Y-50047618D02*
X82571590Y-50047618D01*
X82571590Y-50047618D02*
X82666828Y-50095237D01*
X82666828Y-50095237D02*
X82714447Y-50190475D01*
X82714447Y-50190475D02*
X82714447Y-50380951D01*
X82714447Y-50380951D02*
X82666828Y-50476189D01*
X82095400Y-50047618D02*
X82047780Y-50142856D01*
X82047780Y-50142856D02*
X82047780Y-50380951D01*
X82047780Y-50380951D02*
X82095400Y-50476189D01*
X82095400Y-50476189D02*
X82190638Y-50523808D01*
X82190638Y-50523808D02*
X82285876Y-50523808D01*
X82285876Y-50523808D02*
X82381114Y-50476189D01*
X82381114Y-50476189D02*
X82428733Y-50380951D01*
X82428733Y-50380951D02*
X82428733Y-50142856D01*
X82428733Y-50142856D02*
X82476352Y-50047618D01*
X82095400Y-49142856D02*
X82047780Y-49238094D01*
X82047780Y-49238094D02*
X82047780Y-49428570D01*
X82047780Y-49428570D02*
X82095400Y-49523808D01*
X82095400Y-49523808D02*
X82143019Y-49571427D01*
X82143019Y-49571427D02*
X82238257Y-49619046D01*
X82238257Y-49619046D02*
X82523971Y-49619046D01*
X82523971Y-49619046D02*
X82619209Y-49571427D01*
X82619209Y-49571427D02*
X82666828Y-49523808D01*
X82666828Y-49523808D02*
X82714447Y-49428570D01*
X82714447Y-49428570D02*
X82714447Y-49238094D01*
X82714447Y-49238094D02*
X82666828Y-49142856D01*
X82714447Y-48857141D02*
X82714447Y-48476189D01*
X83047780Y-48714284D02*
X82190638Y-48714284D01*
X82190638Y-48714284D02*
X82095400Y-48666665D01*
X82095400Y-48666665D02*
X82047780Y-48571427D01*
X82047780Y-48571427D02*
X82047780Y-48476189D01*
X82714447Y-47476188D02*
X82047780Y-47238093D01*
X82047780Y-47238093D02*
X82714447Y-46999998D01*
X82047780Y-46095236D02*
X82047780Y-46666664D01*
X82047780Y-46380950D02*
X83047780Y-46380950D01*
X83047780Y-46380950D02*
X82904923Y-46476188D01*
X82904923Y-46476188D02*
X82809685Y-46571426D01*
X82809685Y-46571426D02*
X82762066Y-46666664D01*
X82143019Y-45666664D02*
X82095400Y-45619045D01*
X82095400Y-45619045D02*
X82047780Y-45666664D01*
X82047780Y-45666664D02*
X82095400Y-45714283D01*
X82095400Y-45714283D02*
X82143019Y-45666664D01*
X82143019Y-45666664D02*
X82047780Y-45666664D01*
X83047780Y-44999998D02*
X83047780Y-44904760D01*
X83047780Y-44904760D02*
X83000161Y-44809522D01*
X83000161Y-44809522D02*
X82952542Y-44761903D01*
X82952542Y-44761903D02*
X82857304Y-44714284D01*
X82857304Y-44714284D02*
X82666828Y-44666665D01*
X82666828Y-44666665D02*
X82428733Y-44666665D01*
X82428733Y-44666665D02*
X82238257Y-44714284D01*
X82238257Y-44714284D02*
X82143019Y-44761903D01*
X82143019Y-44761903D02*
X82095400Y-44809522D01*
X82095400Y-44809522D02*
X82047780Y-44904760D01*
X82047780Y-44904760D02*
X82047780Y-44999998D01*
X82047780Y-44999998D02*
X82095400Y-45095236D01*
X82095400Y-45095236D02*
X82143019Y-45142855D01*
X82143019Y-45142855D02*
X82238257Y-45190474D01*
X82238257Y-45190474D02*
X82428733Y-45238093D01*
X82428733Y-45238093D02*
X82666828Y-45238093D01*
X82666828Y-45238093D02*
X82857304Y-45190474D01*
X82857304Y-45190474D02*
X82952542Y-45142855D01*
X82952542Y-45142855D02*
X83000161Y-45095236D01*
X83000161Y-45095236D02*
X83047780Y-44999998D01*
D11*
X104782268Y-43907200D02*
X104877506Y-43954819D01*
X104877506Y-43954819D02*
X105067982Y-43954819D01*
X105067982Y-43954819D02*
X105163220Y-43907200D01*
X105163220Y-43907200D02*
X105210839Y-43811961D01*
X105210839Y-43811961D02*
X105210839Y-43431009D01*
X105210839Y-43431009D02*
X105163220Y-43335771D01*
X105163220Y-43335771D02*
X105067982Y-43288152D01*
X105067982Y-43288152D02*
X104877506Y-43288152D01*
X104877506Y-43288152D02*
X104782268Y-43335771D01*
X104782268Y-43335771D02*
X104734649Y-43431009D01*
X104734649Y-43431009D02*
X104734649Y-43526247D01*
X104734649Y-43526247D02*
X105210839Y-43621485D01*
X104306077Y-43954819D02*
X104306077Y-43288152D01*
X104306077Y-43478628D02*
X104258458Y-43383390D01*
X104258458Y-43383390D02*
X104210839Y-43335771D01*
X104210839Y-43335771D02*
X104115601Y-43288152D01*
X104115601Y-43288152D02*
X104020363Y-43288152D01*
X103687029Y-43954819D02*
X103687029Y-43288152D01*
X103687029Y-42954819D02*
X103734648Y-43002438D01*
X103734648Y-43002438D02*
X103687029Y-43050057D01*
X103687029Y-43050057D02*
X103639410Y-43002438D01*
X103639410Y-43002438D02*
X103687029Y-42954819D01*
X103687029Y-42954819D02*
X103687029Y-43050057D01*
X102782268Y-43907200D02*
X102877506Y-43954819D01*
X102877506Y-43954819D02*
X103067982Y-43954819D01*
X103067982Y-43954819D02*
X103163220Y-43907200D01*
X103163220Y-43907200D02*
X103210839Y-43859580D01*
X103210839Y-43859580D02*
X103258458Y-43764342D01*
X103258458Y-43764342D02*
X103258458Y-43478628D01*
X103258458Y-43478628D02*
X103210839Y-43383390D01*
X103210839Y-43383390D02*
X103163220Y-43335771D01*
X103163220Y-43335771D02*
X103067982Y-43288152D01*
X103067982Y-43288152D02*
X102877506Y-43288152D01*
X102877506Y-43288152D02*
X102782268Y-43335771D01*
X101925125Y-43954819D02*
X101925125Y-43431009D01*
X101925125Y-43431009D02*
X101972744Y-43335771D01*
X101972744Y-43335771D02*
X102067982Y-43288152D01*
X102067982Y-43288152D02*
X102258458Y-43288152D01*
X102258458Y-43288152D02*
X102353696Y-43335771D01*
X101925125Y-43907200D02*
X102020363Y-43954819D01*
X102020363Y-43954819D02*
X102258458Y-43954819D01*
X102258458Y-43954819D02*
X102353696Y-43907200D01*
X102353696Y-43907200D02*
X102401315Y-43811961D01*
X102401315Y-43811961D02*
X102401315Y-43716723D01*
X102401315Y-43716723D02*
X102353696Y-43621485D01*
X102353696Y-43621485D02*
X102258458Y-43573866D01*
X102258458Y-43573866D02*
X102020363Y-43573866D01*
X102020363Y-43573866D02*
X101925125Y-43526247D01*
X101448934Y-43288152D02*
X101448934Y-43954819D01*
X101448934Y-43383390D02*
X101401315Y-43335771D01*
X101401315Y-43335771D02*
X101306077Y-43288152D01*
X101306077Y-43288152D02*
X101163220Y-43288152D01*
X101163220Y-43288152D02*
X101067982Y-43335771D01*
X101067982Y-43335771D02*
X101020363Y-43431009D01*
X101020363Y-43431009D02*
X101020363Y-43954819D01*
X100115601Y-43954819D02*
X100115601Y-43431009D01*
X100115601Y-43431009D02*
X100163220Y-43335771D01*
X100163220Y-43335771D02*
X100258458Y-43288152D01*
X100258458Y-43288152D02*
X100448934Y-43288152D01*
X100448934Y-43288152D02*
X100544172Y-43335771D01*
X100115601Y-43907200D02*
X100210839Y-43954819D01*
X100210839Y-43954819D02*
X100448934Y-43954819D01*
X100448934Y-43954819D02*
X100544172Y-43907200D01*
X100544172Y-43907200D02*
X100591791Y-43811961D01*
X100591791Y-43811961D02*
X100591791Y-43716723D01*
X100591791Y-43716723D02*
X100544172Y-43621485D01*
X100544172Y-43621485D02*
X100448934Y-43573866D01*
X100448934Y-43573866D02*
X100210839Y-43573866D01*
X100210839Y-43573866D02*
X100115601Y-43526247D01*
X99687029Y-43907200D02*
X99591791Y-43954819D01*
X99591791Y-43954819D02*
X99401315Y-43954819D01*
X99401315Y-43954819D02*
X99306077Y-43907200D01*
X99306077Y-43907200D02*
X99258458Y-43811961D01*
X99258458Y-43811961D02*
X99258458Y-43764342D01*
X99258458Y-43764342D02*
X99306077Y-43669104D01*
X99306077Y-43669104D02*
X99401315Y-43621485D01*
X99401315Y-43621485D02*
X99544172Y-43621485D01*
X99544172Y-43621485D02*
X99639410Y-43573866D01*
X99639410Y-43573866D02*
X99687029Y-43478628D01*
X99687029Y-43478628D02*
X99687029Y-43431009D01*
X99687029Y-43431009D02*
X99639410Y-43335771D01*
X99639410Y-43335771D02*
X99544172Y-43288152D01*
X99544172Y-43288152D02*
X99401315Y-43288152D01*
X99401315Y-43288152D02*
X99306077Y-43335771D01*
X98972743Y-43288152D02*
X98591791Y-43288152D01*
X98829886Y-42954819D02*
X98829886Y-43811961D01*
X98829886Y-43811961D02*
X98782267Y-43907200D01*
X98782267Y-43907200D02*
X98687029Y-43954819D01*
X98687029Y-43954819D02*
X98591791Y-43954819D01*
X97829886Y-43954819D02*
X97829886Y-43431009D01*
X97829886Y-43431009D02*
X97877505Y-43335771D01*
X97877505Y-43335771D02*
X97972743Y-43288152D01*
X97972743Y-43288152D02*
X98163219Y-43288152D01*
X98163219Y-43288152D02*
X98258457Y-43335771D01*
X97829886Y-43907200D02*
X97925124Y-43954819D01*
X97925124Y-43954819D02*
X98163219Y-43954819D01*
X98163219Y-43954819D02*
X98258457Y-43907200D01*
X98258457Y-43907200D02*
X98306076Y-43811961D01*
X98306076Y-43811961D02*
X98306076Y-43716723D01*
X98306076Y-43716723D02*
X98258457Y-43621485D01*
X98258457Y-43621485D02*
X98163219Y-43573866D01*
X98163219Y-43573866D02*
X97925124Y-43573866D01*
X97925124Y-43573866D02*
X97829886Y-43526247D01*
X97401314Y-43907200D02*
X97306076Y-43954819D01*
X97306076Y-43954819D02*
X97115600Y-43954819D01*
X97115600Y-43954819D02*
X97020362Y-43907200D01*
X97020362Y-43907200D02*
X96972743Y-43811961D01*
X96972743Y-43811961D02*
X96972743Y-43764342D01*
X96972743Y-43764342D02*
X97020362Y-43669104D01*
X97020362Y-43669104D02*
X97115600Y-43621485D01*
X97115600Y-43621485D02*
X97258457Y-43621485D01*
X97258457Y-43621485D02*
X97353695Y-43573866D01*
X97353695Y-43573866D02*
X97401314Y-43478628D01*
X97401314Y-43478628D02*
X97401314Y-43431009D01*
X97401314Y-43431009D02*
X97353695Y-43335771D01*
X97353695Y-43335771D02*
X97258457Y-43288152D01*
X97258457Y-43288152D02*
X97115600Y-43288152D01*
X97115600Y-43288152D02*
X97020362Y-43335771D01*
X96544171Y-43859580D02*
X96496552Y-43907200D01*
X96496552Y-43907200D02*
X96544171Y-43954819D01*
X96544171Y-43954819D02*
X96591790Y-43907200D01*
X96591790Y-43907200D02*
X96544171Y-43859580D01*
X96544171Y-43859580D02*
X96544171Y-43954819D01*
X95639410Y-43907200D02*
X95734648Y-43954819D01*
X95734648Y-43954819D02*
X95925124Y-43954819D01*
X95925124Y-43954819D02*
X96020362Y-43907200D01*
X96020362Y-43907200D02*
X96067981Y-43859580D01*
X96067981Y-43859580D02*
X96115600Y-43764342D01*
X96115600Y-43764342D02*
X96115600Y-43478628D01*
X96115600Y-43478628D02*
X96067981Y-43383390D01*
X96067981Y-43383390D02*
X96020362Y-43335771D01*
X96020362Y-43335771D02*
X95925124Y-43288152D01*
X95925124Y-43288152D02*
X95734648Y-43288152D01*
X95734648Y-43288152D02*
X95639410Y-43335771D01*
X95067981Y-43954819D02*
X95163219Y-43907200D01*
X95163219Y-43907200D02*
X95210838Y-43859580D01*
X95210838Y-43859580D02*
X95258457Y-43764342D01*
X95258457Y-43764342D02*
X95258457Y-43478628D01*
X95258457Y-43478628D02*
X95210838Y-43383390D01*
X95210838Y-43383390D02*
X95163219Y-43335771D01*
X95163219Y-43335771D02*
X95067981Y-43288152D01*
X95067981Y-43288152D02*
X94925124Y-43288152D01*
X94925124Y-43288152D02*
X94829886Y-43335771D01*
X94829886Y-43335771D02*
X94782267Y-43383390D01*
X94782267Y-43383390D02*
X94734648Y-43478628D01*
X94734648Y-43478628D02*
X94734648Y-43764342D01*
X94734648Y-43764342D02*
X94782267Y-43859580D01*
X94782267Y-43859580D02*
X94829886Y-43907200D01*
X94829886Y-43907200D02*
X94925124Y-43954819D01*
X94925124Y-43954819D02*
X95067981Y-43954819D01*
X94306076Y-43954819D02*
X94306076Y-43288152D01*
X94306076Y-43383390D02*
X94258457Y-43335771D01*
X94258457Y-43335771D02*
X94163219Y-43288152D01*
X94163219Y-43288152D02*
X94020362Y-43288152D01*
X94020362Y-43288152D02*
X93925124Y-43335771D01*
X93925124Y-43335771D02*
X93877505Y-43431009D01*
X93877505Y-43431009D02*
X93877505Y-43954819D01*
X93877505Y-43431009D02*
X93829886Y-43335771D01*
X93829886Y-43335771D02*
X93734648Y-43288152D01*
X93734648Y-43288152D02*
X93591791Y-43288152D01*
X93591791Y-43288152D02*
X93496552Y-43335771D01*
X93496552Y-43335771D02*
X93448933Y-43431009D01*
X93448933Y-43431009D02*
X93448933Y-43954819D01*
X105306077Y-56288152D02*
X104925125Y-56288152D01*
X105163220Y-55954819D02*
X105163220Y-56811961D01*
X105163220Y-56811961D02*
X105115601Y-56907200D01*
X105115601Y-56907200D02*
X105020363Y-56954819D01*
X105020363Y-56954819D02*
X104925125Y-56954819D01*
X104210839Y-56907200D02*
X104306077Y-56954819D01*
X104306077Y-56954819D02*
X104496553Y-56954819D01*
X104496553Y-56954819D02*
X104591791Y-56907200D01*
X104591791Y-56907200D02*
X104639410Y-56811961D01*
X104639410Y-56811961D02*
X104639410Y-56431009D01*
X104639410Y-56431009D02*
X104591791Y-56335771D01*
X104591791Y-56335771D02*
X104496553Y-56288152D01*
X104496553Y-56288152D02*
X104306077Y-56288152D01*
X104306077Y-56288152D02*
X104210839Y-56335771D01*
X104210839Y-56335771D02*
X104163220Y-56431009D01*
X104163220Y-56431009D02*
X104163220Y-56526247D01*
X104163220Y-56526247D02*
X104639410Y-56621485D01*
X103734648Y-56288152D02*
X103734648Y-56954819D01*
X103734648Y-56383390D02*
X103687029Y-56335771D01*
X103687029Y-56335771D02*
X103591791Y-56288152D01*
X103591791Y-56288152D02*
X103448934Y-56288152D01*
X103448934Y-56288152D02*
X103353696Y-56335771D01*
X103353696Y-56335771D02*
X103306077Y-56431009D01*
X103306077Y-56431009D02*
X103306077Y-56954819D01*
X102877505Y-56907200D02*
X102782267Y-56954819D01*
X102782267Y-56954819D02*
X102591791Y-56954819D01*
X102591791Y-56954819D02*
X102496553Y-56907200D01*
X102496553Y-56907200D02*
X102448934Y-56811961D01*
X102448934Y-56811961D02*
X102448934Y-56764342D01*
X102448934Y-56764342D02*
X102496553Y-56669104D01*
X102496553Y-56669104D02*
X102591791Y-56621485D01*
X102591791Y-56621485D02*
X102734648Y-56621485D01*
X102734648Y-56621485D02*
X102829886Y-56573866D01*
X102829886Y-56573866D02*
X102877505Y-56478628D01*
X102877505Y-56478628D02*
X102877505Y-56431009D01*
X102877505Y-56431009D02*
X102829886Y-56335771D01*
X102829886Y-56335771D02*
X102734648Y-56288152D01*
X102734648Y-56288152D02*
X102591791Y-56288152D01*
X102591791Y-56288152D02*
X102496553Y-56335771D01*
X101639410Y-56907200D02*
X101734648Y-56954819D01*
X101734648Y-56954819D02*
X101925124Y-56954819D01*
X101925124Y-56954819D02*
X102020362Y-56907200D01*
X102020362Y-56907200D02*
X102067981Y-56811961D01*
X102067981Y-56811961D02*
X102067981Y-56431009D01*
X102067981Y-56431009D02*
X102020362Y-56335771D01*
X102020362Y-56335771D02*
X101925124Y-56288152D01*
X101925124Y-56288152D02*
X101734648Y-56288152D01*
X101734648Y-56288152D02*
X101639410Y-56335771D01*
X101639410Y-56335771D02*
X101591791Y-56431009D01*
X101591791Y-56431009D02*
X101591791Y-56526247D01*
X101591791Y-56526247D02*
X102067981Y-56621485D01*
X101163219Y-56954819D02*
X101163219Y-56288152D01*
X101163219Y-56478628D02*
X101115600Y-56383390D01*
X101115600Y-56383390D02*
X101067981Y-56335771D01*
X101067981Y-56335771D02*
X100972743Y-56288152D01*
X100972743Y-56288152D02*
X100877505Y-56288152D01*
X100115600Y-56954819D02*
X100115600Y-56431009D01*
X100115600Y-56431009D02*
X100163219Y-56335771D01*
X100163219Y-56335771D02*
X100258457Y-56288152D01*
X100258457Y-56288152D02*
X100448933Y-56288152D01*
X100448933Y-56288152D02*
X100544171Y-56335771D01*
X100115600Y-56907200D02*
X100210838Y-56954819D01*
X100210838Y-56954819D02*
X100448933Y-56954819D01*
X100448933Y-56954819D02*
X100544171Y-56907200D01*
X100544171Y-56907200D02*
X100591790Y-56811961D01*
X100591790Y-56811961D02*
X100591790Y-56716723D01*
X100591790Y-56716723D02*
X100544171Y-56621485D01*
X100544171Y-56621485D02*
X100448933Y-56573866D01*
X100448933Y-56573866D02*
X100210838Y-56573866D01*
X100210838Y-56573866D02*
X100115600Y-56526247D01*
X99210838Y-56907200D02*
X99306076Y-56954819D01*
X99306076Y-56954819D02*
X99496552Y-56954819D01*
X99496552Y-56954819D02*
X99591790Y-56907200D01*
X99591790Y-56907200D02*
X99639409Y-56859580D01*
X99639409Y-56859580D02*
X99687028Y-56764342D01*
X99687028Y-56764342D02*
X99687028Y-56478628D01*
X99687028Y-56478628D02*
X99639409Y-56383390D01*
X99639409Y-56383390D02*
X99591790Y-56335771D01*
X99591790Y-56335771D02*
X99496552Y-56288152D01*
X99496552Y-56288152D02*
X99306076Y-56288152D01*
X99306076Y-56288152D02*
X99210838Y-56335771D01*
X98925123Y-56288152D02*
X98544171Y-56288152D01*
X98782266Y-55954819D02*
X98782266Y-56811961D01*
X98782266Y-56811961D02*
X98734647Y-56907200D01*
X98734647Y-56907200D02*
X98639409Y-56954819D01*
X98639409Y-56954819D02*
X98544171Y-56954819D01*
X98210837Y-56859580D02*
X98163218Y-56907200D01*
X98163218Y-56907200D02*
X98210837Y-56954819D01*
X98210837Y-56954819D02*
X98258456Y-56907200D01*
X98258456Y-56907200D02*
X98210837Y-56859580D01*
X98210837Y-56859580D02*
X98210837Y-56954819D01*
X97306076Y-56954819D02*
X97306076Y-56431009D01*
X97306076Y-56431009D02*
X97353695Y-56335771D01*
X97353695Y-56335771D02*
X97448933Y-56288152D01*
X97448933Y-56288152D02*
X97639409Y-56288152D01*
X97639409Y-56288152D02*
X97734647Y-56335771D01*
X97306076Y-56907200D02*
X97401314Y-56954819D01*
X97401314Y-56954819D02*
X97639409Y-56954819D01*
X97639409Y-56954819D02*
X97734647Y-56907200D01*
X97734647Y-56907200D02*
X97782266Y-56811961D01*
X97782266Y-56811961D02*
X97782266Y-56716723D01*
X97782266Y-56716723D02*
X97734647Y-56621485D01*
X97734647Y-56621485D02*
X97639409Y-56573866D01*
X97639409Y-56573866D02*
X97401314Y-56573866D01*
X97401314Y-56573866D02*
X97306076Y-56526247D01*
X96829885Y-56954819D02*
X96829885Y-56288152D01*
X96829885Y-56478628D02*
X96782266Y-56383390D01*
X96782266Y-56383390D02*
X96734647Y-56335771D01*
X96734647Y-56335771D02*
X96639409Y-56288152D01*
X96639409Y-56288152D02*
X96544171Y-56288152D01*
X96353694Y-56288152D02*
X95972742Y-56288152D01*
X96210837Y-55954819D02*
X96210837Y-56811961D01*
X96210837Y-56811961D02*
X96163218Y-56907200D01*
X96163218Y-56907200D02*
X96067980Y-56954819D01*
X96067980Y-56954819D02*
X95972742Y-56954819D01*
M02*
