%TF.GenerationSoftware,KiCad,Pcbnew,10.0.3*%
%TF.CreationDate,2026-06-22T07:14:09-07:00*%
%TF.ProjectId,Tenseract_JBox,54656e73-6572-4616-9374-5f4a426f782e,1.0*%
%TF.SameCoordinates,Original*%
%TF.FileFunction,Legend,Top*%
%TF.FilePolarity,Positive*%
%FSLAX46Y46*%
G04 Gerber Fmt 4.6, Leading zero omitted, Abs format (unit mm)*
G04 Created by KiCad (PCBNEW 10.0.3) date 2026-06-22 07:14:09*
%MOMM*%
%LPD*%
G01*
G04 APERTURE LIST*
%ADD10C,0.150000*%
%ADD11C,0.120000*%
G04 APERTURE END LIST*
D10*
X128960180Y-51119286D02*
X129960180Y-51119286D01*
X129960180Y-51119286D02*
X129960180Y-51357381D01*
X129960180Y-51357381D02*
X129912561Y-51500238D01*
X129912561Y-51500238D02*
X129817323Y-51595476D01*
X129817323Y-51595476D02*
X129722085Y-51643095D01*
X129722085Y-51643095D02*
X129531609Y-51690714D01*
X129531609Y-51690714D02*
X129388752Y-51690714D01*
X129388752Y-51690714D02*
X129198276Y-51643095D01*
X129198276Y-51643095D02*
X129103038Y-51595476D01*
X129103038Y-51595476D02*
X129007800Y-51500238D01*
X129007800Y-51500238D02*
X128960180Y-51357381D01*
X128960180Y-51357381D02*
X128960180Y-51119286D01*
X129960180Y-52309762D02*
X129960180Y-52500238D01*
X129960180Y-52500238D02*
X129912561Y-52595476D01*
X129912561Y-52595476D02*
X129817323Y-52690714D01*
X129817323Y-52690714D02*
X129626847Y-52738333D01*
X129626847Y-52738333D02*
X129293514Y-52738333D01*
X129293514Y-52738333D02*
X129103038Y-52690714D01*
X129103038Y-52690714D02*
X129007800Y-52595476D01*
X129007800Y-52595476D02*
X128960180Y-52500238D01*
X128960180Y-52500238D02*
X128960180Y-52309762D01*
X128960180Y-52309762D02*
X129007800Y-52214524D01*
X129007800Y-52214524D02*
X129103038Y-52119286D01*
X129103038Y-52119286D02*
X129293514Y-52071667D01*
X129293514Y-52071667D02*
X129626847Y-52071667D01*
X129626847Y-52071667D02*
X129817323Y-52119286D01*
X129817323Y-52119286D02*
X129912561Y-52214524D01*
X129912561Y-52214524D02*
X129960180Y-52309762D01*
X128960180Y-46833095D02*
X129960180Y-46833095D01*
X129960180Y-46833095D02*
X129960180Y-47071190D01*
X129960180Y-47071190D02*
X129912561Y-47214047D01*
X129912561Y-47214047D02*
X129817323Y-47309285D01*
X129817323Y-47309285D02*
X129722085Y-47356904D01*
X129722085Y-47356904D02*
X129531609Y-47404523D01*
X129531609Y-47404523D02*
X129388752Y-47404523D01*
X129388752Y-47404523D02*
X129198276Y-47356904D01*
X129198276Y-47356904D02*
X129103038Y-47309285D01*
X129103038Y-47309285D02*
X129007800Y-47214047D01*
X129007800Y-47214047D02*
X128960180Y-47071190D01*
X128960180Y-47071190D02*
X128960180Y-46833095D01*
X129960180Y-48023571D02*
X129960180Y-48214047D01*
X129960180Y-48214047D02*
X129912561Y-48309285D01*
X129912561Y-48309285D02*
X129817323Y-48404523D01*
X129817323Y-48404523D02*
X129626847Y-48452142D01*
X129626847Y-48452142D02*
X129293514Y-48452142D01*
X129293514Y-48452142D02*
X129103038Y-48404523D01*
X129103038Y-48404523D02*
X129007800Y-48309285D01*
X129007800Y-48309285D02*
X128960180Y-48214047D01*
X128960180Y-48214047D02*
X128960180Y-48023571D01*
X128960180Y-48023571D02*
X129007800Y-47928333D01*
X129007800Y-47928333D02*
X129103038Y-47833095D01*
X129103038Y-47833095D02*
X129293514Y-47785476D01*
X129293514Y-47785476D02*
X129626847Y-47785476D01*
X129626847Y-47785476D02*
X129817323Y-47833095D01*
X129817323Y-47833095D02*
X129912561Y-47928333D01*
X129912561Y-47928333D02*
X129960180Y-48023571D01*
X128960180Y-49404523D02*
X128960180Y-48833095D01*
X128960180Y-49118809D02*
X129960180Y-49118809D01*
X129960180Y-49118809D02*
X129817323Y-49023571D01*
X129817323Y-49023571D02*
X129722085Y-48928333D01*
X129722085Y-48928333D02*
X129674466Y-48833095D01*
X128960180Y-54453095D02*
X129960180Y-54453095D01*
X129960180Y-54453095D02*
X129960180Y-54691190D01*
X129960180Y-54691190D02*
X129912561Y-54834047D01*
X129912561Y-54834047D02*
X129817323Y-54929285D01*
X129817323Y-54929285D02*
X129722085Y-54976904D01*
X129722085Y-54976904D02*
X129531609Y-55024523D01*
X129531609Y-55024523D02*
X129388752Y-55024523D01*
X129388752Y-55024523D02*
X129198276Y-54976904D01*
X129198276Y-54976904D02*
X129103038Y-54929285D01*
X129103038Y-54929285D02*
X129007800Y-54834047D01*
X129007800Y-54834047D02*
X128960180Y-54691190D01*
X128960180Y-54691190D02*
X128960180Y-54453095D01*
X129960180Y-55643571D02*
X129960180Y-55834047D01*
X129960180Y-55834047D02*
X129912561Y-55929285D01*
X129912561Y-55929285D02*
X129817323Y-56024523D01*
X129817323Y-56024523D02*
X129626847Y-56072142D01*
X129626847Y-56072142D02*
X129293514Y-56072142D01*
X129293514Y-56072142D02*
X129103038Y-56024523D01*
X129103038Y-56024523D02*
X129007800Y-55929285D01*
X129007800Y-55929285D02*
X128960180Y-55834047D01*
X128960180Y-55834047D02*
X128960180Y-55643571D01*
X128960180Y-55643571D02*
X129007800Y-55548333D01*
X129007800Y-55548333D02*
X129103038Y-55453095D01*
X129103038Y-55453095D02*
X129293514Y-55405476D01*
X129293514Y-55405476D02*
X129626847Y-55405476D01*
X129626847Y-55405476D02*
X129817323Y-55453095D01*
X129817323Y-55453095D02*
X129912561Y-55548333D01*
X129912561Y-55548333D02*
X129960180Y-55643571D01*
X129864942Y-56453095D02*
X129912561Y-56500714D01*
X129912561Y-56500714D02*
X129960180Y-56595952D01*
X129960180Y-56595952D02*
X129960180Y-56834047D01*
X129960180Y-56834047D02*
X129912561Y-56929285D01*
X129912561Y-56929285D02*
X129864942Y-56976904D01*
X129864942Y-56976904D02*
X129769704Y-57024523D01*
X129769704Y-57024523D02*
X129674466Y-57024523D01*
X129674466Y-57024523D02*
X129531609Y-56976904D01*
X129531609Y-56976904D02*
X128960180Y-56405476D01*
X128960180Y-56405476D02*
X128960180Y-57024523D01*
X92921779Y-60664819D02*
X92921779Y-59664819D01*
X92921779Y-59664819D02*
X93159874Y-59664819D01*
X93159874Y-59664819D02*
X93302731Y-59712438D01*
X93302731Y-59712438D02*
X93397969Y-59807676D01*
X93397969Y-59807676D02*
X93445588Y-59902914D01*
X93445588Y-59902914D02*
X93493207Y-60093390D01*
X93493207Y-60093390D02*
X93493207Y-60236247D01*
X93493207Y-60236247D02*
X93445588Y-60426723D01*
X93445588Y-60426723D02*
X93397969Y-60521961D01*
X93397969Y-60521961D02*
X93302731Y-60617200D01*
X93302731Y-60617200D02*
X93159874Y-60664819D01*
X93159874Y-60664819D02*
X92921779Y-60664819D01*
X93921779Y-60664819D02*
X93921779Y-59664819D01*
X94445588Y-60045771D02*
X94445588Y-60521961D01*
X94493207Y-60045771D02*
X94493207Y-60521961D01*
X94540826Y-60093390D02*
X94540826Y-60474342D01*
X94588445Y-60093390D02*
X94588445Y-60474342D01*
X94636064Y-60093390D02*
X94636064Y-60474342D01*
X94683683Y-60141009D02*
X94683683Y-60426723D01*
X94731302Y-60141009D02*
X94731302Y-60426723D01*
X94778921Y-60141009D02*
X94778921Y-60426723D01*
X94826540Y-60188628D02*
X94826540Y-60379104D01*
X94874159Y-60188628D02*
X94874159Y-60379104D01*
X94921778Y-60236247D02*
X94921778Y-60331485D01*
X94969397Y-60236247D02*
X94969397Y-60331485D01*
X95017016Y-60236247D02*
X95017016Y-60331485D01*
X95064635Y-60283866D02*
X95017016Y-60283866D01*
X94397969Y-60045771D02*
X95112254Y-60283866D01*
X95112254Y-60283866D02*
X94397969Y-60521961D01*
X95159874Y-60283866D02*
X94397969Y-60569580D01*
X94397969Y-60569580D02*
X94397969Y-59998152D01*
X94397969Y-59998152D02*
X95159874Y-60283866D01*
X95636064Y-60664819D02*
X95636064Y-59664819D01*
X95636064Y-59664819D02*
X95874159Y-59664819D01*
X95874159Y-59664819D02*
X96017016Y-59712438D01*
X96017016Y-59712438D02*
X96112254Y-59807676D01*
X96112254Y-59807676D02*
X96159873Y-59902914D01*
X96159873Y-59902914D02*
X96207492Y-60093390D01*
X96207492Y-60093390D02*
X96207492Y-60236247D01*
X96207492Y-60236247D02*
X96159873Y-60426723D01*
X96159873Y-60426723D02*
X96112254Y-60521961D01*
X96112254Y-60521961D02*
X96017016Y-60617200D01*
X96017016Y-60617200D02*
X95874159Y-60664819D01*
X95874159Y-60664819D02*
X95636064Y-60664819D01*
X96636064Y-60664819D02*
X96636064Y-59664819D01*
X97064635Y-59760057D02*
X97112254Y-59712438D01*
X97112254Y-59712438D02*
X97207492Y-59664819D01*
X97207492Y-59664819D02*
X97445587Y-59664819D01*
X97445587Y-59664819D02*
X97540825Y-59712438D01*
X97540825Y-59712438D02*
X97588444Y-59760057D01*
X97588444Y-59760057D02*
X97636063Y-59855295D01*
X97636063Y-59855295D02*
X97636063Y-59950533D01*
X97636063Y-59950533D02*
X97588444Y-60093390D01*
X97588444Y-60093390D02*
X97017016Y-60664819D01*
X97017016Y-60664819D02*
X97636063Y-60664819D01*
X92921779Y-58124819D02*
X92921779Y-57124819D01*
X92921779Y-57124819D02*
X93159874Y-57124819D01*
X93159874Y-57124819D02*
X93302731Y-57172438D01*
X93302731Y-57172438D02*
X93397969Y-57267676D01*
X93397969Y-57267676D02*
X93445588Y-57362914D01*
X93445588Y-57362914D02*
X93493207Y-57553390D01*
X93493207Y-57553390D02*
X93493207Y-57696247D01*
X93493207Y-57696247D02*
X93445588Y-57886723D01*
X93445588Y-57886723D02*
X93397969Y-57981961D01*
X93397969Y-57981961D02*
X93302731Y-58077200D01*
X93302731Y-58077200D02*
X93159874Y-58124819D01*
X93159874Y-58124819D02*
X92921779Y-58124819D01*
X93921779Y-58124819D02*
X93921779Y-57124819D01*
X94445588Y-57505771D02*
X94445588Y-57981961D01*
X94493207Y-57505771D02*
X94493207Y-57981961D01*
X94540826Y-57553390D02*
X94540826Y-57934342D01*
X94588445Y-57553390D02*
X94588445Y-57934342D01*
X94636064Y-57553390D02*
X94636064Y-57934342D01*
X94683683Y-57601009D02*
X94683683Y-57886723D01*
X94731302Y-57601009D02*
X94731302Y-57886723D01*
X94778921Y-57601009D02*
X94778921Y-57886723D01*
X94826540Y-57648628D02*
X94826540Y-57839104D01*
X94874159Y-57648628D02*
X94874159Y-57839104D01*
X94921778Y-57696247D02*
X94921778Y-57791485D01*
X94969397Y-57696247D02*
X94969397Y-57791485D01*
X95017016Y-57696247D02*
X95017016Y-57791485D01*
X95064635Y-57743866D02*
X95017016Y-57743866D01*
X94397969Y-57505771D02*
X95112254Y-57743866D01*
X95112254Y-57743866D02*
X94397969Y-57981961D01*
X95159874Y-57743866D02*
X94397969Y-58029580D01*
X94397969Y-58029580D02*
X94397969Y-57458152D01*
X94397969Y-57458152D02*
X95159874Y-57743866D01*
X95636064Y-58124819D02*
X95636064Y-57124819D01*
X95636064Y-57124819D02*
X95874159Y-57124819D01*
X95874159Y-57124819D02*
X96017016Y-57172438D01*
X96017016Y-57172438D02*
X96112254Y-57267676D01*
X96112254Y-57267676D02*
X96159873Y-57362914D01*
X96159873Y-57362914D02*
X96207492Y-57553390D01*
X96207492Y-57553390D02*
X96207492Y-57696247D01*
X96207492Y-57696247D02*
X96159873Y-57886723D01*
X96159873Y-57886723D02*
X96112254Y-57981961D01*
X96112254Y-57981961D02*
X96017016Y-58077200D01*
X96017016Y-58077200D02*
X95874159Y-58124819D01*
X95874159Y-58124819D02*
X95636064Y-58124819D01*
X96636064Y-58124819D02*
X96636064Y-57124819D01*
X97636063Y-58124819D02*
X97064635Y-58124819D01*
X97350349Y-58124819D02*
X97350349Y-57124819D01*
X97350349Y-57124819D02*
X97255111Y-57267676D01*
X97255111Y-57267676D02*
X97159873Y-57362914D01*
X97159873Y-57362914D02*
X97064635Y-57410533D01*
X129066428Y-60299819D02*
X129637856Y-60299819D01*
X129352142Y-61299819D02*
X129352142Y-60299819D01*
X130352142Y-61252200D02*
X130256904Y-61299819D01*
X130256904Y-61299819D02*
X130066428Y-61299819D01*
X130066428Y-61299819D02*
X129971190Y-61252200D01*
X129971190Y-61252200D02*
X129923571Y-61156961D01*
X129923571Y-61156961D02*
X129923571Y-60776009D01*
X129923571Y-60776009D02*
X129971190Y-60680771D01*
X129971190Y-60680771D02*
X130066428Y-60633152D01*
X130066428Y-60633152D02*
X130256904Y-60633152D01*
X130256904Y-60633152D02*
X130352142Y-60680771D01*
X130352142Y-60680771D02*
X130399761Y-60776009D01*
X130399761Y-60776009D02*
X130399761Y-60871247D01*
X130399761Y-60871247D02*
X129923571Y-60966485D01*
X130828333Y-60633152D02*
X130828333Y-61299819D01*
X130828333Y-60728390D02*
X130875952Y-60680771D01*
X130875952Y-60680771D02*
X130971190Y-60633152D01*
X130971190Y-60633152D02*
X131114047Y-60633152D01*
X131114047Y-60633152D02*
X131209285Y-60680771D01*
X131209285Y-60680771D02*
X131256904Y-60776009D01*
X131256904Y-60776009D02*
X131256904Y-61299819D01*
X131685476Y-61252200D02*
X131780714Y-61299819D01*
X131780714Y-61299819D02*
X131971190Y-61299819D01*
X131971190Y-61299819D02*
X132066428Y-61252200D01*
X132066428Y-61252200D02*
X132114047Y-61156961D01*
X132114047Y-61156961D02*
X132114047Y-61109342D01*
X132114047Y-61109342D02*
X132066428Y-61014104D01*
X132066428Y-61014104D02*
X131971190Y-60966485D01*
X131971190Y-60966485D02*
X131828333Y-60966485D01*
X131828333Y-60966485D02*
X131733095Y-60918866D01*
X131733095Y-60918866D02*
X131685476Y-60823628D01*
X131685476Y-60823628D02*
X131685476Y-60776009D01*
X131685476Y-60776009D02*
X131733095Y-60680771D01*
X131733095Y-60680771D02*
X131828333Y-60633152D01*
X131828333Y-60633152D02*
X131971190Y-60633152D01*
X131971190Y-60633152D02*
X132066428Y-60680771D01*
X132923571Y-61252200D02*
X132828333Y-61299819D01*
X132828333Y-61299819D02*
X132637857Y-61299819D01*
X132637857Y-61299819D02*
X132542619Y-61252200D01*
X132542619Y-61252200D02*
X132495000Y-61156961D01*
X132495000Y-61156961D02*
X132495000Y-60776009D01*
X132495000Y-60776009D02*
X132542619Y-60680771D01*
X132542619Y-60680771D02*
X132637857Y-60633152D01*
X132637857Y-60633152D02*
X132828333Y-60633152D01*
X132828333Y-60633152D02*
X132923571Y-60680771D01*
X132923571Y-60680771D02*
X132971190Y-60776009D01*
X132971190Y-60776009D02*
X132971190Y-60871247D01*
X132971190Y-60871247D02*
X132495000Y-60966485D01*
X133399762Y-61299819D02*
X133399762Y-60633152D01*
X133399762Y-60823628D02*
X133447381Y-60728390D01*
X133447381Y-60728390D02*
X133495000Y-60680771D01*
X133495000Y-60680771D02*
X133590238Y-60633152D01*
X133590238Y-60633152D02*
X133685476Y-60633152D01*
X134447381Y-61299819D02*
X134447381Y-60776009D01*
X134447381Y-60776009D02*
X134399762Y-60680771D01*
X134399762Y-60680771D02*
X134304524Y-60633152D01*
X134304524Y-60633152D02*
X134114048Y-60633152D01*
X134114048Y-60633152D02*
X134018810Y-60680771D01*
X134447381Y-61252200D02*
X134352143Y-61299819D01*
X134352143Y-61299819D02*
X134114048Y-61299819D01*
X134114048Y-61299819D02*
X134018810Y-61252200D01*
X134018810Y-61252200D02*
X133971191Y-61156961D01*
X133971191Y-61156961D02*
X133971191Y-61061723D01*
X133971191Y-61061723D02*
X134018810Y-60966485D01*
X134018810Y-60966485D02*
X134114048Y-60918866D01*
X134114048Y-60918866D02*
X134352143Y-60918866D01*
X134352143Y-60918866D02*
X134447381Y-60871247D01*
X135352143Y-61252200D02*
X135256905Y-61299819D01*
X135256905Y-61299819D02*
X135066429Y-61299819D01*
X135066429Y-61299819D02*
X134971191Y-61252200D01*
X134971191Y-61252200D02*
X134923572Y-61204580D01*
X134923572Y-61204580D02*
X134875953Y-61109342D01*
X134875953Y-61109342D02*
X134875953Y-60823628D01*
X134875953Y-60823628D02*
X134923572Y-60728390D01*
X134923572Y-60728390D02*
X134971191Y-60680771D01*
X134971191Y-60680771D02*
X135066429Y-60633152D01*
X135066429Y-60633152D02*
X135256905Y-60633152D01*
X135256905Y-60633152D02*
X135352143Y-60680771D01*
X135637858Y-60633152D02*
X136018810Y-60633152D01*
X135780715Y-60299819D02*
X135780715Y-61156961D01*
X135780715Y-61156961D02*
X135828334Y-61252200D01*
X135828334Y-61252200D02*
X135923572Y-61299819D01*
X135923572Y-61299819D02*
X136018810Y-61299819D01*
X137018811Y-60633152D02*
X137256906Y-61299819D01*
X137256906Y-61299819D02*
X137495001Y-60633152D01*
X138399763Y-61299819D02*
X137828335Y-61299819D01*
X138114049Y-61299819D02*
X138114049Y-60299819D01*
X138114049Y-60299819D02*
X138018811Y-60442676D01*
X138018811Y-60442676D02*
X137923573Y-60537914D01*
X137923573Y-60537914D02*
X137828335Y-60585533D01*
X138828335Y-61204580D02*
X138875954Y-61252200D01*
X138875954Y-61252200D02*
X138828335Y-61299819D01*
X138828335Y-61299819D02*
X138780716Y-61252200D01*
X138780716Y-61252200D02*
X138828335Y-61204580D01*
X138828335Y-61204580D02*
X138828335Y-61299819D01*
X139495001Y-60299819D02*
X139590239Y-60299819D01*
X139590239Y-60299819D02*
X139685477Y-60347438D01*
X139685477Y-60347438D02*
X139733096Y-60395057D01*
X139733096Y-60395057D02*
X139780715Y-60490295D01*
X139780715Y-60490295D02*
X139828334Y-60680771D01*
X139828334Y-60680771D02*
X139828334Y-60918866D01*
X139828334Y-60918866D02*
X139780715Y-61109342D01*
X139780715Y-61109342D02*
X139733096Y-61204580D01*
X139733096Y-61204580D02*
X139685477Y-61252200D01*
X139685477Y-61252200D02*
X139590239Y-61299819D01*
X139590239Y-61299819D02*
X139495001Y-61299819D01*
X139495001Y-61299819D02*
X139399763Y-61252200D01*
X139399763Y-61252200D02*
X139352144Y-61204580D01*
X139352144Y-61204580D02*
X139304525Y-61109342D01*
X139304525Y-61109342D02*
X139256906Y-60918866D01*
X139256906Y-60918866D02*
X139256906Y-60680771D01*
X139256906Y-60680771D02*
X139304525Y-60490295D01*
X139304525Y-60490295D02*
X139352144Y-60395057D01*
X139352144Y-60395057D02*
X139399763Y-60347438D01*
X139399763Y-60347438D02*
X139495001Y-60299819D01*
X81130180Y-44071428D02*
X81130180Y-44642856D01*
X80130180Y-44357142D02*
X81130180Y-44357142D01*
X80177800Y-45357142D02*
X80130180Y-45261904D01*
X80130180Y-45261904D02*
X80130180Y-45071428D01*
X80130180Y-45071428D02*
X80177800Y-44976190D01*
X80177800Y-44976190D02*
X80273038Y-44928571D01*
X80273038Y-44928571D02*
X80653990Y-44928571D01*
X80653990Y-44928571D02*
X80749228Y-44976190D01*
X80749228Y-44976190D02*
X80796847Y-45071428D01*
X80796847Y-45071428D02*
X80796847Y-45261904D01*
X80796847Y-45261904D02*
X80749228Y-45357142D01*
X80749228Y-45357142D02*
X80653990Y-45404761D01*
X80653990Y-45404761D02*
X80558752Y-45404761D01*
X80558752Y-45404761D02*
X80463514Y-44928571D01*
X80796847Y-45833333D02*
X80130180Y-45833333D01*
X80701609Y-45833333D02*
X80749228Y-45880952D01*
X80749228Y-45880952D02*
X80796847Y-45976190D01*
X80796847Y-45976190D02*
X80796847Y-46119047D01*
X80796847Y-46119047D02*
X80749228Y-46214285D01*
X80749228Y-46214285D02*
X80653990Y-46261904D01*
X80653990Y-46261904D02*
X80130180Y-46261904D01*
X80177800Y-46690476D02*
X80130180Y-46785714D01*
X80130180Y-46785714D02*
X80130180Y-46976190D01*
X80130180Y-46976190D02*
X80177800Y-47071428D01*
X80177800Y-47071428D02*
X80273038Y-47119047D01*
X80273038Y-47119047D02*
X80320657Y-47119047D01*
X80320657Y-47119047D02*
X80415895Y-47071428D01*
X80415895Y-47071428D02*
X80463514Y-46976190D01*
X80463514Y-46976190D02*
X80463514Y-46833333D01*
X80463514Y-46833333D02*
X80511133Y-46738095D01*
X80511133Y-46738095D02*
X80606371Y-46690476D01*
X80606371Y-46690476D02*
X80653990Y-46690476D01*
X80653990Y-46690476D02*
X80749228Y-46738095D01*
X80749228Y-46738095D02*
X80796847Y-46833333D01*
X80796847Y-46833333D02*
X80796847Y-46976190D01*
X80796847Y-46976190D02*
X80749228Y-47071428D01*
X80177800Y-47928571D02*
X80130180Y-47833333D01*
X80130180Y-47833333D02*
X80130180Y-47642857D01*
X80130180Y-47642857D02*
X80177800Y-47547619D01*
X80177800Y-47547619D02*
X80273038Y-47500000D01*
X80273038Y-47500000D02*
X80653990Y-47500000D01*
X80653990Y-47500000D02*
X80749228Y-47547619D01*
X80749228Y-47547619D02*
X80796847Y-47642857D01*
X80796847Y-47642857D02*
X80796847Y-47833333D01*
X80796847Y-47833333D02*
X80749228Y-47928571D01*
X80749228Y-47928571D02*
X80653990Y-47976190D01*
X80653990Y-47976190D02*
X80558752Y-47976190D01*
X80558752Y-47976190D02*
X80463514Y-47500000D01*
X80130180Y-48404762D02*
X80796847Y-48404762D01*
X80606371Y-48404762D02*
X80701609Y-48452381D01*
X80701609Y-48452381D02*
X80749228Y-48500000D01*
X80749228Y-48500000D02*
X80796847Y-48595238D01*
X80796847Y-48595238D02*
X80796847Y-48690476D01*
X80130180Y-49452381D02*
X80653990Y-49452381D01*
X80653990Y-49452381D02*
X80749228Y-49404762D01*
X80749228Y-49404762D02*
X80796847Y-49309524D01*
X80796847Y-49309524D02*
X80796847Y-49119048D01*
X80796847Y-49119048D02*
X80749228Y-49023810D01*
X80177800Y-49452381D02*
X80130180Y-49357143D01*
X80130180Y-49357143D02*
X80130180Y-49119048D01*
X80130180Y-49119048D02*
X80177800Y-49023810D01*
X80177800Y-49023810D02*
X80273038Y-48976191D01*
X80273038Y-48976191D02*
X80368276Y-48976191D01*
X80368276Y-48976191D02*
X80463514Y-49023810D01*
X80463514Y-49023810D02*
X80511133Y-49119048D01*
X80511133Y-49119048D02*
X80511133Y-49357143D01*
X80511133Y-49357143D02*
X80558752Y-49452381D01*
X80177800Y-50357143D02*
X80130180Y-50261905D01*
X80130180Y-50261905D02*
X80130180Y-50071429D01*
X80130180Y-50071429D02*
X80177800Y-49976191D01*
X80177800Y-49976191D02*
X80225419Y-49928572D01*
X80225419Y-49928572D02*
X80320657Y-49880953D01*
X80320657Y-49880953D02*
X80606371Y-49880953D01*
X80606371Y-49880953D02*
X80701609Y-49928572D01*
X80701609Y-49928572D02*
X80749228Y-49976191D01*
X80749228Y-49976191D02*
X80796847Y-50071429D01*
X80796847Y-50071429D02*
X80796847Y-50261905D01*
X80796847Y-50261905D02*
X80749228Y-50357143D01*
X80796847Y-50642858D02*
X80796847Y-51023810D01*
X81130180Y-50785715D02*
X80273038Y-50785715D01*
X80273038Y-50785715D02*
X80177800Y-50833334D01*
X80177800Y-50833334D02*
X80130180Y-50928572D01*
X80130180Y-50928572D02*
X80130180Y-51023810D01*
X80796847Y-52023811D02*
X80130180Y-52261906D01*
X80130180Y-52261906D02*
X80796847Y-52500001D01*
X80130180Y-53404763D02*
X80130180Y-52833335D01*
X80130180Y-53119049D02*
X81130180Y-53119049D01*
X81130180Y-53119049D02*
X80987323Y-53023811D01*
X80987323Y-53023811D02*
X80892085Y-52928573D01*
X80892085Y-52928573D02*
X80844466Y-52833335D01*
X80225419Y-53833335D02*
X80177800Y-53880954D01*
X80177800Y-53880954D02*
X80130180Y-53833335D01*
X80130180Y-53833335D02*
X80177800Y-53785716D01*
X80177800Y-53785716D02*
X80225419Y-53833335D01*
X80225419Y-53833335D02*
X80130180Y-53833335D01*
X81130180Y-54500001D02*
X81130180Y-54595239D01*
X81130180Y-54595239D02*
X81082561Y-54690477D01*
X81082561Y-54690477D02*
X81034942Y-54738096D01*
X81034942Y-54738096D02*
X80939704Y-54785715D01*
X80939704Y-54785715D02*
X80749228Y-54833334D01*
X80749228Y-54833334D02*
X80511133Y-54833334D01*
X80511133Y-54833334D02*
X80320657Y-54785715D01*
X80320657Y-54785715D02*
X80225419Y-54738096D01*
X80225419Y-54738096D02*
X80177800Y-54690477D01*
X80177800Y-54690477D02*
X80130180Y-54595239D01*
X80130180Y-54595239D02*
X80130180Y-54500001D01*
X80130180Y-54500001D02*
X80177800Y-54404763D01*
X80177800Y-54404763D02*
X80225419Y-54357144D01*
X80225419Y-54357144D02*
X80320657Y-54309525D01*
X80320657Y-54309525D02*
X80511133Y-54261906D01*
X80511133Y-54261906D02*
X80749228Y-54261906D01*
X80749228Y-54261906D02*
X80939704Y-54309525D01*
X80939704Y-54309525D02*
X81034942Y-54357144D01*
X81034942Y-54357144D02*
X81082561Y-54404763D01*
X81082561Y-54404763D02*
X81130180Y-54500001D01*
X91454819Y-44833333D02*
X92169104Y-44833333D01*
X92169104Y-44833333D02*
X92311961Y-44880952D01*
X92311961Y-44880952D02*
X92407200Y-44976190D01*
X92407200Y-44976190D02*
X92454819Y-45119047D01*
X92454819Y-45119047D02*
X92454819Y-45214285D01*
X92454819Y-43833333D02*
X92454819Y-44404761D01*
X92454819Y-44119047D02*
X91454819Y-44119047D01*
X91454819Y-44119047D02*
X91597676Y-44214285D01*
X91597676Y-44214285D02*
X91692914Y-44309523D01*
X91692914Y-44309523D02*
X91740533Y-44404761D01*
X83865476Y-59954819D02*
X83865476Y-60669104D01*
X83865476Y-60669104D02*
X83817857Y-60811961D01*
X83817857Y-60811961D02*
X83722619Y-60907200D01*
X83722619Y-60907200D02*
X83579762Y-60954819D01*
X83579762Y-60954819D02*
X83484524Y-60954819D01*
X84865476Y-60954819D02*
X84294048Y-60954819D01*
X84579762Y-60954819D02*
X84579762Y-59954819D01*
X84579762Y-59954819D02*
X84484524Y-60097676D01*
X84484524Y-60097676D02*
X84389286Y-60192914D01*
X84389286Y-60192914D02*
X84294048Y-60240533D01*
X85341667Y-60954819D02*
X85532143Y-60954819D01*
X85532143Y-60954819D02*
X85627381Y-60907200D01*
X85627381Y-60907200D02*
X85675000Y-60859580D01*
X85675000Y-60859580D02*
X85770238Y-60716723D01*
X85770238Y-60716723D02*
X85817857Y-60526247D01*
X85817857Y-60526247D02*
X85817857Y-60145295D01*
X85817857Y-60145295D02*
X85770238Y-60050057D01*
X85770238Y-60050057D02*
X85722619Y-60002438D01*
X85722619Y-60002438D02*
X85627381Y-59954819D01*
X85627381Y-59954819D02*
X85436905Y-59954819D01*
X85436905Y-59954819D02*
X85341667Y-60002438D01*
X85341667Y-60002438D02*
X85294048Y-60050057D01*
X85294048Y-60050057D02*
X85246429Y-60145295D01*
X85246429Y-60145295D02*
X85246429Y-60383390D01*
X85246429Y-60383390D02*
X85294048Y-60478628D01*
X85294048Y-60478628D02*
X85341667Y-60526247D01*
X85341667Y-60526247D02*
X85436905Y-60573866D01*
X85436905Y-60573866D02*
X85627381Y-60573866D01*
X85627381Y-60573866D02*
X85722619Y-60526247D01*
X85722619Y-60526247D02*
X85770238Y-60478628D01*
X85770238Y-60478628D02*
X85817857Y-60383390D01*
X124880180Y-51095476D02*
X124165895Y-51095476D01*
X124165895Y-51095476D02*
X124023038Y-51047857D01*
X124023038Y-51047857D02*
X123927800Y-50952619D01*
X123927800Y-50952619D02*
X123880180Y-50809762D01*
X123880180Y-50809762D02*
X123880180Y-50714524D01*
X123880180Y-52095476D02*
X123880180Y-51524048D01*
X123880180Y-51809762D02*
X124880180Y-51809762D01*
X124880180Y-51809762D02*
X124737323Y-51714524D01*
X124737323Y-51714524D02*
X124642085Y-51619286D01*
X124642085Y-51619286D02*
X124594466Y-51524048D01*
X123880180Y-53047857D02*
X123880180Y-52476429D01*
X123880180Y-52762143D02*
X124880180Y-52762143D01*
X124880180Y-52762143D02*
X124737323Y-52666905D01*
X124737323Y-52666905D02*
X124642085Y-52571667D01*
X124642085Y-52571667D02*
X124594466Y-52476429D01*
X135045180Y-56666666D02*
X134330895Y-56666666D01*
X134330895Y-56666666D02*
X134188038Y-56619047D01*
X134188038Y-56619047D02*
X134092800Y-56523809D01*
X134092800Y-56523809D02*
X134045180Y-56380952D01*
X134045180Y-56380952D02*
X134045180Y-56285714D01*
X134711847Y-57571428D02*
X134045180Y-57571428D01*
X135092800Y-57333333D02*
X134378514Y-57095238D01*
X134378514Y-57095238D02*
X134378514Y-57714285D01*
X124880180Y-47285476D02*
X124165895Y-47285476D01*
X124165895Y-47285476D02*
X124023038Y-47237857D01*
X124023038Y-47237857D02*
X123927800Y-47142619D01*
X123927800Y-47142619D02*
X123880180Y-46999762D01*
X123880180Y-46999762D02*
X123880180Y-46904524D01*
X123880180Y-48285476D02*
X123880180Y-47714048D01*
X123880180Y-47999762D02*
X124880180Y-47999762D01*
X124880180Y-47999762D02*
X124737323Y-47904524D01*
X124737323Y-47904524D02*
X124642085Y-47809286D01*
X124642085Y-47809286D02*
X124594466Y-47714048D01*
X124784942Y-48666429D02*
X124832561Y-48714048D01*
X124832561Y-48714048D02*
X124880180Y-48809286D01*
X124880180Y-48809286D02*
X124880180Y-49047381D01*
X124880180Y-49047381D02*
X124832561Y-49142619D01*
X124832561Y-49142619D02*
X124784942Y-49190238D01*
X124784942Y-49190238D02*
X124689704Y-49237857D01*
X124689704Y-49237857D02*
X124594466Y-49237857D01*
X124594466Y-49237857D02*
X124451609Y-49190238D01*
X124451609Y-49190238D02*
X123880180Y-48618810D01*
X123880180Y-48618810D02*
X123880180Y-49237857D01*
X85214819Y-41284523D02*
X85929104Y-41284523D01*
X85929104Y-41284523D02*
X86071961Y-41332142D01*
X86071961Y-41332142D02*
X86167200Y-41427380D01*
X86167200Y-41427380D02*
X86214819Y-41570237D01*
X86214819Y-41570237D02*
X86214819Y-41665475D01*
X86214819Y-40284523D02*
X86214819Y-40855951D01*
X86214819Y-40570237D02*
X85214819Y-40570237D01*
X85214819Y-40570237D02*
X85357676Y-40665475D01*
X85357676Y-40665475D02*
X85452914Y-40760713D01*
X85452914Y-40760713D02*
X85500533Y-40855951D01*
X85214819Y-39379761D02*
X85214819Y-39855951D01*
X85214819Y-39855951D02*
X85691009Y-39903570D01*
X85691009Y-39903570D02*
X85643390Y-39855951D01*
X85643390Y-39855951D02*
X85595771Y-39760713D01*
X85595771Y-39760713D02*
X85595771Y-39522618D01*
X85595771Y-39522618D02*
X85643390Y-39427380D01*
X85643390Y-39427380D02*
X85691009Y-39379761D01*
X85691009Y-39379761D02*
X85786247Y-39332142D01*
X85786247Y-39332142D02*
X86024342Y-39332142D01*
X86024342Y-39332142D02*
X86119580Y-39379761D01*
X86119580Y-39379761D02*
X86167200Y-39427380D01*
X86167200Y-39427380D02*
X86214819Y-39522618D01*
X86214819Y-39522618D02*
X86214819Y-39760713D01*
X86214819Y-39760713D02*
X86167200Y-39855951D01*
X86167200Y-39855951D02*
X86119580Y-39903570D01*
X97119819Y-43983333D02*
X97834104Y-43983333D01*
X97834104Y-43983333D02*
X97976961Y-44030952D01*
X97976961Y-44030952D02*
X98072200Y-44126190D01*
X98072200Y-44126190D02*
X98119819Y-44269047D01*
X98119819Y-44269047D02*
X98119819Y-44364285D01*
X97215057Y-43554761D02*
X97167438Y-43507142D01*
X97167438Y-43507142D02*
X97119819Y-43411904D01*
X97119819Y-43411904D02*
X97119819Y-43173809D01*
X97119819Y-43173809D02*
X97167438Y-43078571D01*
X97167438Y-43078571D02*
X97215057Y-43030952D01*
X97215057Y-43030952D02*
X97310295Y-42983333D01*
X97310295Y-42983333D02*
X97405533Y-42983333D01*
X97405533Y-42983333D02*
X97548390Y-43030952D01*
X97548390Y-43030952D02*
X98119819Y-43602380D01*
X98119819Y-43602380D02*
X98119819Y-42983333D01*
X124880180Y-57286666D02*
X124165895Y-57286666D01*
X124165895Y-57286666D02*
X124023038Y-57239047D01*
X124023038Y-57239047D02*
X123927800Y-57143809D01*
X123927800Y-57143809D02*
X123880180Y-57000952D01*
X123880180Y-57000952D02*
X123880180Y-56905714D01*
X124880180Y-58191428D02*
X124880180Y-58000952D01*
X124880180Y-58000952D02*
X124832561Y-57905714D01*
X124832561Y-57905714D02*
X124784942Y-57858095D01*
X124784942Y-57858095D02*
X124642085Y-57762857D01*
X124642085Y-57762857D02*
X124451609Y-57715238D01*
X124451609Y-57715238D02*
X124070657Y-57715238D01*
X124070657Y-57715238D02*
X123975419Y-57762857D01*
X123975419Y-57762857D02*
X123927800Y-57810476D01*
X123927800Y-57810476D02*
X123880180Y-57905714D01*
X123880180Y-57905714D02*
X123880180Y-58096190D01*
X123880180Y-58096190D02*
X123927800Y-58191428D01*
X123927800Y-58191428D02*
X123975419Y-58239047D01*
X123975419Y-58239047D02*
X124070657Y-58286666D01*
X124070657Y-58286666D02*
X124308752Y-58286666D01*
X124308752Y-58286666D02*
X124403990Y-58239047D01*
X124403990Y-58239047D02*
X124451609Y-58191428D01*
X124451609Y-58191428D02*
X124499228Y-58096190D01*
X124499228Y-58096190D02*
X124499228Y-57905714D01*
X124499228Y-57905714D02*
X124451609Y-57810476D01*
X124451609Y-57810476D02*
X124403990Y-57762857D01*
X124403990Y-57762857D02*
X124308752Y-57715238D01*
X96954819Y-56048333D02*
X97669104Y-56048333D01*
X97669104Y-56048333D02*
X97811961Y-56095952D01*
X97811961Y-56095952D02*
X97907200Y-56191190D01*
X97907200Y-56191190D02*
X97954819Y-56334047D01*
X97954819Y-56334047D02*
X97954819Y-56429285D01*
X96954819Y-55667380D02*
X96954819Y-55048333D01*
X96954819Y-55048333D02*
X97335771Y-55381666D01*
X97335771Y-55381666D02*
X97335771Y-55238809D01*
X97335771Y-55238809D02*
X97383390Y-55143571D01*
X97383390Y-55143571D02*
X97431009Y-55095952D01*
X97431009Y-55095952D02*
X97526247Y-55048333D01*
X97526247Y-55048333D02*
X97764342Y-55048333D01*
X97764342Y-55048333D02*
X97859580Y-55095952D01*
X97859580Y-55095952D02*
X97907200Y-55143571D01*
X97907200Y-55143571D02*
X97954819Y-55238809D01*
X97954819Y-55238809D02*
X97954819Y-55524523D01*
X97954819Y-55524523D02*
X97907200Y-55619761D01*
X97907200Y-55619761D02*
X97859580Y-55667380D01*
X124880180Y-43316666D02*
X124165895Y-43316666D01*
X124165895Y-43316666D02*
X124023038Y-43269047D01*
X124023038Y-43269047D02*
X123927800Y-43173809D01*
X123927800Y-43173809D02*
X123880180Y-43030952D01*
X123880180Y-43030952D02*
X123880180Y-42935714D01*
X124880180Y-44269047D02*
X124880180Y-43792857D01*
X124880180Y-43792857D02*
X124403990Y-43745238D01*
X124403990Y-43745238D02*
X124451609Y-43792857D01*
X124451609Y-43792857D02*
X124499228Y-43888095D01*
X124499228Y-43888095D02*
X124499228Y-44126190D01*
X124499228Y-44126190D02*
X124451609Y-44221428D01*
X124451609Y-44221428D02*
X124403990Y-44269047D01*
X124403990Y-44269047D02*
X124308752Y-44316666D01*
X124308752Y-44316666D02*
X124070657Y-44316666D01*
X124070657Y-44316666D02*
X123975419Y-44269047D01*
X123975419Y-44269047D02*
X123927800Y-44221428D01*
X123927800Y-44221428D02*
X123880180Y-44126190D01*
X123880180Y-44126190D02*
X123880180Y-43888095D01*
X123880180Y-43888095D02*
X123927800Y-43792857D01*
X123927800Y-43792857D02*
X123975419Y-43745238D01*
X136945180Y-39690476D02*
X136230895Y-39690476D01*
X136230895Y-39690476D02*
X136088038Y-39642857D01*
X136088038Y-39642857D02*
X135992800Y-39547619D01*
X135992800Y-39547619D02*
X135945180Y-39404762D01*
X135945180Y-39404762D02*
X135945180Y-39309524D01*
X135945180Y-40690476D02*
X135945180Y-40119048D01*
X135945180Y-40404762D02*
X136945180Y-40404762D01*
X136945180Y-40404762D02*
X136802323Y-40309524D01*
X136802323Y-40309524D02*
X136707085Y-40214286D01*
X136707085Y-40214286D02*
X136659466Y-40119048D01*
X136945180Y-41547619D02*
X136945180Y-41357143D01*
X136945180Y-41357143D02*
X136897561Y-41261905D01*
X136897561Y-41261905D02*
X136849942Y-41214286D01*
X136849942Y-41214286D02*
X136707085Y-41119048D01*
X136707085Y-41119048D02*
X136516609Y-41071429D01*
X136516609Y-41071429D02*
X136135657Y-41071429D01*
X136135657Y-41071429D02*
X136040419Y-41119048D01*
X136040419Y-41119048D02*
X135992800Y-41166667D01*
X135992800Y-41166667D02*
X135945180Y-41261905D01*
X135945180Y-41261905D02*
X135945180Y-41452381D01*
X135945180Y-41452381D02*
X135992800Y-41547619D01*
X135992800Y-41547619D02*
X136040419Y-41595238D01*
X136040419Y-41595238D02*
X136135657Y-41642857D01*
X136135657Y-41642857D02*
X136373752Y-41642857D01*
X136373752Y-41642857D02*
X136468990Y-41595238D01*
X136468990Y-41595238D02*
X136516609Y-41547619D01*
X136516609Y-41547619D02*
X136564228Y-41452381D01*
X136564228Y-41452381D02*
X136564228Y-41261905D01*
X136564228Y-41261905D02*
X136516609Y-41166667D01*
X136516609Y-41166667D02*
X136468990Y-41119048D01*
X136468990Y-41119048D02*
X136373752Y-41071429D01*
X97454819Y-48428333D02*
X98169104Y-48428333D01*
X98169104Y-48428333D02*
X98311961Y-48475952D01*
X98311961Y-48475952D02*
X98407200Y-48571190D01*
X98407200Y-48571190D02*
X98454819Y-48714047D01*
X98454819Y-48714047D02*
X98454819Y-48809285D01*
X97883390Y-47809285D02*
X97835771Y-47904523D01*
X97835771Y-47904523D02*
X97788152Y-47952142D01*
X97788152Y-47952142D02*
X97692914Y-47999761D01*
X97692914Y-47999761D02*
X97645295Y-47999761D01*
X97645295Y-47999761D02*
X97550057Y-47952142D01*
X97550057Y-47952142D02*
X97502438Y-47904523D01*
X97502438Y-47904523D02*
X97454819Y-47809285D01*
X97454819Y-47809285D02*
X97454819Y-47618809D01*
X97454819Y-47618809D02*
X97502438Y-47523571D01*
X97502438Y-47523571D02*
X97550057Y-47475952D01*
X97550057Y-47475952D02*
X97645295Y-47428333D01*
X97645295Y-47428333D02*
X97692914Y-47428333D01*
X97692914Y-47428333D02*
X97788152Y-47475952D01*
X97788152Y-47475952D02*
X97835771Y-47523571D01*
X97835771Y-47523571D02*
X97883390Y-47618809D01*
X97883390Y-47618809D02*
X97883390Y-47809285D01*
X97883390Y-47809285D02*
X97931009Y-47904523D01*
X97931009Y-47904523D02*
X97978628Y-47952142D01*
X97978628Y-47952142D02*
X98073866Y-47999761D01*
X98073866Y-47999761D02*
X98264342Y-47999761D01*
X98264342Y-47999761D02*
X98359580Y-47952142D01*
X98359580Y-47952142D02*
X98407200Y-47904523D01*
X98407200Y-47904523D02*
X98454819Y-47809285D01*
X98454819Y-47809285D02*
X98454819Y-47618809D01*
X98454819Y-47618809D02*
X98407200Y-47523571D01*
X98407200Y-47523571D02*
X98359580Y-47475952D01*
X98359580Y-47475952D02*
X98264342Y-47428333D01*
X98264342Y-47428333D02*
X98073866Y-47428333D01*
X98073866Y-47428333D02*
X97978628Y-47475952D01*
X97978628Y-47475952D02*
X97931009Y-47523571D01*
X97931009Y-47523571D02*
X97883390Y-47618809D01*
X97454819Y-52714523D02*
X98169104Y-52714523D01*
X98169104Y-52714523D02*
X98311961Y-52762142D01*
X98311961Y-52762142D02*
X98407200Y-52857380D01*
X98407200Y-52857380D02*
X98454819Y-53000237D01*
X98454819Y-53000237D02*
X98454819Y-53095475D01*
X98454819Y-51714523D02*
X98454819Y-52285951D01*
X98454819Y-52000237D02*
X97454819Y-52000237D01*
X97454819Y-52000237D02*
X97597676Y-52095475D01*
X97597676Y-52095475D02*
X97692914Y-52190713D01*
X97692914Y-52190713D02*
X97740533Y-52285951D01*
X97454819Y-51095475D02*
X97454819Y-51000237D01*
X97454819Y-51000237D02*
X97502438Y-50904999D01*
X97502438Y-50904999D02*
X97550057Y-50857380D01*
X97550057Y-50857380D02*
X97645295Y-50809761D01*
X97645295Y-50809761D02*
X97835771Y-50762142D01*
X97835771Y-50762142D02*
X98073866Y-50762142D01*
X98073866Y-50762142D02*
X98264342Y-50809761D01*
X98264342Y-50809761D02*
X98359580Y-50857380D01*
X98359580Y-50857380D02*
X98407200Y-50904999D01*
X98407200Y-50904999D02*
X98454819Y-51000237D01*
X98454819Y-51000237D02*
X98454819Y-51095475D01*
X98454819Y-51095475D02*
X98407200Y-51190713D01*
X98407200Y-51190713D02*
X98359580Y-51238332D01*
X98359580Y-51238332D02*
X98264342Y-51285951D01*
X98264342Y-51285951D02*
X98073866Y-51333570D01*
X98073866Y-51333570D02*
X97835771Y-51333570D01*
X97835771Y-51333570D02*
X97645295Y-51285951D01*
X97645295Y-51285951D02*
X97550057Y-51238332D01*
X97550057Y-51238332D02*
X97502438Y-51190713D01*
X97502438Y-51190713D02*
X97454819Y-51095475D01*
X127420180Y-44745476D02*
X126705895Y-44745476D01*
X126705895Y-44745476D02*
X126563038Y-44697857D01*
X126563038Y-44697857D02*
X126467800Y-44602619D01*
X126467800Y-44602619D02*
X126420180Y-44459762D01*
X126420180Y-44459762D02*
X126420180Y-44364524D01*
X126420180Y-45745476D02*
X126420180Y-45174048D01*
X126420180Y-45459762D02*
X127420180Y-45459762D01*
X127420180Y-45459762D02*
X127277323Y-45364524D01*
X127277323Y-45364524D02*
X127182085Y-45269286D01*
X127182085Y-45269286D02*
X127134466Y-45174048D01*
X127420180Y-46078810D02*
X127420180Y-46745476D01*
X127420180Y-46745476D02*
X126420180Y-46316905D01*
%TO.C,J1*%
D11*
X81690000Y-44140000D02*
X83890000Y-44140000D01*
X81690000Y-55860000D02*
X81690000Y-44140000D01*
X81690000Y-55860000D02*
X83890000Y-55860000D01*
X83890000Y-44140000D02*
X83890000Y-43300000D01*
X83890000Y-56700000D02*
X83890000Y-55860000D01*
X86110000Y-44140000D02*
X86110000Y-43300000D01*
X86110000Y-44140000D02*
X90910000Y-44140000D01*
X86110000Y-55860000D02*
X90910000Y-55860000D01*
X86110000Y-56700000D02*
X86110000Y-55860000D01*
X90910000Y-55860000D02*
X90910000Y-44140000D01*
X83890000Y-43300000D02*
G75*
G02*
X86110000Y-43300000I1110000J0D01*
G01*
X86110000Y-56700000D02*
G75*
G02*
X83890000Y-56700000I-1110000J0D01*
G01*
%TO.C,J19*%
X86755000Y-56580000D02*
X88135000Y-56580000D01*
X86755000Y-57960000D02*
X86755000Y-56580000D01*
X86755000Y-59230000D02*
X86755000Y-61880000D01*
X86755000Y-59230000D02*
X89405000Y-59230000D01*
X86755000Y-61880000D02*
X92055000Y-61880000D01*
X89405000Y-56580000D02*
X92055000Y-56580000D01*
X89405000Y-59230000D02*
X89405000Y-56580000D01*
X92055000Y-56580000D02*
X92055000Y-61880000D01*
%TO.C,J11*%
X112795000Y-53285000D02*
X112795000Y-51905000D01*
X114175000Y-53285000D02*
X112795000Y-53285000D01*
X115445000Y-50525000D02*
X123175000Y-50525000D01*
X115445000Y-53285000D02*
X115445000Y-50525000D01*
X115445000Y-53285000D02*
X123175000Y-53285000D01*
X123175000Y-53285000D02*
X123175000Y-50525000D01*
%TO.C,J4*%
X135890000Y-43300000D02*
X135890000Y-56700000D01*
X138110000Y-43300000D02*
X138110000Y-44140000D01*
X138110000Y-55860000D02*
X138110000Y-56700000D01*
X140160000Y-44140000D02*
X138110000Y-44140000D01*
X140160000Y-44140000D02*
X140160000Y-44740000D01*
X140160000Y-55260000D02*
X140160000Y-55860000D01*
X140160000Y-55860000D02*
X138110000Y-55860000D01*
X146260000Y-44740000D02*
X140160000Y-44740000D01*
X146260000Y-44740000D02*
X146260000Y-55260000D01*
X146260000Y-55260000D02*
X140160000Y-55260000D01*
X135890000Y-43300000D02*
G75*
G02*
X138110000Y-43300000I1110000J0D01*
G01*
X138110000Y-56700000D02*
G75*
G02*
X135890000Y-56700000I-1110000J0D01*
G01*
%TO.C,J12*%
X112795000Y-46715000D02*
X112795000Y-49475000D01*
X120525000Y-46715000D02*
X112795000Y-46715000D01*
X120525000Y-46715000D02*
X120525000Y-49475000D01*
X120525000Y-49475000D02*
X112795000Y-49475000D01*
X121795000Y-46715000D02*
X123175000Y-46715000D01*
X123175000Y-46715000D02*
X123175000Y-48095000D01*
%TO.C,J15*%
X86760000Y-42490000D02*
X86760000Y-41110000D01*
X88140000Y-42490000D02*
X86760000Y-42490000D01*
X89410000Y-39730000D02*
X97140000Y-39730000D01*
X89410000Y-42490000D02*
X89410000Y-39730000D01*
X89410000Y-42490000D02*
X97140000Y-42490000D01*
X97140000Y-42490000D02*
X97140000Y-39730000D01*
%TO.C,J2*%
X98585000Y-39160000D02*
X107525000Y-39160000D01*
X98585000Y-45600000D02*
X98585000Y-39160000D01*
X108125000Y-39160000D02*
X109445000Y-39160000D01*
X109445000Y-39160000D02*
X109445000Y-45600000D01*
X109445000Y-39780000D02*
X98585000Y-39780000D01*
X109445000Y-45080000D02*
X98585000Y-45080000D01*
X109445000Y-45600000D02*
X98585000Y-45600000D01*
X107825000Y-39160000D02*
X107385000Y-38550000D01*
X108265000Y-38550000D01*
X107825000Y-39160000D01*
G36*
X107825000Y-39160000D02*
G01*
X107385000Y-38550000D01*
X108265000Y-38550000D01*
X107825000Y-39160000D01*
G37*
%TO.C,J6*%
X112555000Y-54400000D02*
X123415000Y-54400000D01*
X112555000Y-54920000D02*
X123415000Y-54920000D01*
X112555000Y-60220000D02*
X123415000Y-60220000D01*
X112555000Y-60840000D02*
X112555000Y-54400000D01*
X113875000Y-60840000D02*
X112555000Y-60840000D01*
X123415000Y-54400000D02*
X123415000Y-60840000D01*
X123415000Y-60840000D02*
X114475000Y-60840000D01*
X114175000Y-60840000D02*
X114615000Y-61450000D01*
X113735000Y-61450000D01*
X114175000Y-60840000D01*
G36*
X114615000Y-61450000D02*
G01*
X113735000Y-61450000D01*
X114175000Y-60840000D01*
X114615000Y-61450000D01*
G37*
%TO.C,J3*%
X98585000Y-54400000D02*
X109445000Y-54400000D01*
X98585000Y-54920000D02*
X109445000Y-54920000D01*
X98585000Y-60220000D02*
X109445000Y-60220000D01*
X98585000Y-60840000D02*
X98585000Y-54400000D01*
X99905000Y-60840000D02*
X98585000Y-60840000D01*
X109445000Y-54400000D02*
X109445000Y-60840000D01*
X109445000Y-60840000D02*
X100505000Y-60840000D01*
X100205000Y-60840000D02*
X100645000Y-61450000D01*
X99765000Y-61450000D01*
X100205000Y-60840000D01*
G36*
X100645000Y-61450000D02*
G01*
X99765000Y-61450000D01*
X100205000Y-60840000D01*
X100645000Y-61450000D01*
G37*
%TO.C,J5*%
X112555000Y-39160000D02*
X121495000Y-39160000D01*
X112555000Y-45600000D02*
X112555000Y-39160000D01*
X122095000Y-39160000D02*
X123415000Y-39160000D01*
X123415000Y-39160000D02*
X123415000Y-45600000D01*
X123415000Y-39780000D02*
X112555000Y-39780000D01*
X123415000Y-45080000D02*
X112555000Y-45080000D01*
X123415000Y-45600000D02*
X112555000Y-45600000D01*
X121795000Y-39160000D02*
X121355000Y-38550000D01*
X122235000Y-38550000D01*
X121795000Y-39160000D01*
G36*
X121795000Y-39160000D02*
G01*
X121355000Y-38550000D01*
X122235000Y-38550000D01*
X121795000Y-39160000D01*
G37*
%TO.C,J16*%
X124860000Y-39730000D02*
X124860000Y-42490000D01*
X132590000Y-39730000D02*
X124860000Y-39730000D01*
X132590000Y-39730000D02*
X132590000Y-42490000D01*
X132590000Y-42490000D02*
X124860000Y-42490000D01*
X133860000Y-39730000D02*
X135240000Y-39730000D01*
X135240000Y-39730000D02*
X135240000Y-41110000D01*
%TO.C,J8*%
X98825000Y-46715000D02*
X98825000Y-49475000D01*
X106555000Y-46715000D02*
X98825000Y-46715000D01*
X106555000Y-46715000D02*
X106555000Y-49475000D01*
X106555000Y-49475000D02*
X98825000Y-49475000D01*
X107825000Y-46715000D02*
X109205000Y-46715000D01*
X109205000Y-46715000D02*
X109205000Y-48095000D01*
%TO.C,J10*%
X98825000Y-53285000D02*
X98825000Y-51905000D01*
X100205000Y-53285000D02*
X98825000Y-53285000D01*
X101475000Y-50525000D02*
X109205000Y-50525000D01*
X101475000Y-53285000D02*
X101475000Y-50525000D01*
X101475000Y-53285000D02*
X109205000Y-53285000D01*
X109205000Y-53285000D02*
X109205000Y-50525000D01*
%TO.C,J17*%
X125495000Y-47985000D02*
X126875000Y-47985000D01*
X125495000Y-49365000D02*
X125495000Y-47985000D01*
X125495000Y-50635000D02*
X125495000Y-55825000D01*
X125495000Y-50635000D02*
X128255000Y-50635000D01*
X125495000Y-55825000D02*
X128255000Y-55825000D01*
X128255000Y-50635000D02*
X128255000Y-55825000D01*
%TD*%
M02*
