M48
; DRILL file KiCad 10.0.3 date 2026-06-22T07:15:00
; FORMAT={-:-/ absolute / metric / decimal}
; #@! TF.CreationDate,2026-06-22T07:15:00-07:00
; #@! TF.GenerationSoftware,Kicad,Pcbnew,10.0.3
; #@! TF.FileFunction,Plated,1,2,PTH
FMAT,2
METRIC
; #@! TA.AperFunction,Plated,PTH,ComponentDrill
T1C1.000
; #@! TA.AperFunction,Plated,PTH,ComponentDrill
T2C1.100
; #@! TA.AperFunction,Plated,PTH,ComponentDrill
T3C1.900
%
G90
G05
T1
X85.0Y-43.5
X85.0Y-56.5
X88.135Y-57.96
X88.135Y-60.5
X88.14Y-41.11
X90.675Y-57.96
X90.675Y-60.5
X90.68Y-41.11
X93.22Y-41.11
X95.76Y-41.11
X100.205Y-48.095
X100.205Y-51.905
X102.745Y-48.095
X102.745Y-51.905
X105.285Y-48.095
X105.285Y-51.905
X107.825Y-48.095
X107.825Y-51.905
X114.175Y-48.095
X114.175Y-51.905
X116.715Y-48.095
X116.715Y-51.905
X119.255Y-48.095
X119.255Y-51.905
X121.795Y-48.095
X121.795Y-51.905
X126.24Y-41.11
X126.875Y-49.365
X126.875Y-51.905
X126.875Y-54.445
X128.78Y-41.11
X131.32Y-41.11
X133.86Y-41.11
X137.0Y-43.5
X137.0Y-56.5
T2
X100.205Y-42.38
X100.205Y-57.62
X102.745Y-42.38
X102.745Y-57.62
X105.285Y-42.38
X105.285Y-57.62
X107.825Y-42.38
X107.825Y-57.62
X114.175Y-42.38
X114.175Y-57.62
X116.715Y-42.38
X116.715Y-57.62
X119.255Y-42.38
X119.255Y-57.62
X121.795Y-42.38
X121.795Y-57.62
T3
X95.0Y-46.5
X95.0Y-50.0
X95.0Y-53.5
X132.0Y-46.5
X132.0Y-50.0
X132.0Y-53.5
M30
